<svg width="940" height="320" viewBox="0 0 940 320" fill="none" xmlns="http://www.w3.org/2000/svg">
<path d="M76.5657 91.0767V96.1092H66.546V121H60.2893V96.1092H50.2241V91.0767H76.5657ZM78.4721 121V88.4017H84.6834V102.185C85.4088 100.734 86.4063 99.6607 87.6758 98.9656C88.9452 98.2401 90.3809 97.8774 91.9829 97.8774C93.5546 97.8774 94.945 98.1797 96.154 98.7842C97.3933 99.3887 98.3605 100.311 99.0557 101.55C99.7811 102.759 100.144 104.285 100.144 106.129V121H93.9325V107.943C93.9325 105.978 93.5546 104.633 92.799 103.907C92.0434 103.152 91.0761 102.774 89.8973 102.774C89.0208 102.774 88.1745 102.986 87.3584 103.409C86.5725 103.802 85.9227 104.467 85.4088 105.404C84.9252 106.31 84.6834 107.519 84.6834 109.031V121H78.4721ZM115.021 121.453C112.633 121.453 110.548 120.985 108.764 120.048C107.011 119.111 105.651 117.766 104.684 116.013C103.717 114.26 103.233 112.144 103.233 109.665C103.233 107.187 103.717 105.071 104.684 103.318C105.651 101.565 106.996 100.22 108.719 99.2829C110.472 98.3459 112.467 97.8774 114.704 97.8774C117.001 97.8774 118.95 98.3459 120.552 99.2829C122.154 100.19 123.379 101.444 124.225 103.046C125.071 104.618 125.494 106.416 125.494 108.441C125.494 109.046 125.479 109.62 125.449 110.164C125.419 110.708 125.373 111.192 125.313 111.615H107.223V107.308H122.593L119.6 108.396C119.6 106.492 119.162 105.026 118.286 103.998C117.439 102.97 116.23 102.457 114.658 102.457C113.51 102.457 112.512 102.729 111.666 103.273C110.85 103.817 110.23 104.633 109.807 105.721C109.384 106.779 109.173 108.124 109.173 109.756C109.173 111.358 109.399 112.688 109.853 113.746C110.336 114.774 111.001 115.544 111.847 116.058C112.724 116.572 113.767 116.829 114.976 116.829C116.306 116.829 117.379 116.572 118.195 116.058C119.011 115.544 119.646 114.834 120.099 113.927L125.041 115.831C124.557 117.01 123.817 118.023 122.819 118.869C121.852 119.715 120.688 120.365 119.328 120.819C117.998 121.242 116.563 121.453 115.021 121.453ZM147.427 115.967H163.205V121H141.171V91.0767H147.427V115.967ZM175.845 121.453C173.458 121.453 171.372 120.985 169.589 120.048C167.836 119.111 166.475 117.766 165.508 116.013C164.541 114.26 164.057 112.144 164.057 109.665C164.057 107.187 164.541 105.071 165.508 103.318C166.475 101.565 167.821 100.22 169.543 99.2829C171.296 98.3459 173.291 97.8774 175.528 97.8774C177.825 97.8774 179.775 98.3459 181.377 99.2829C182.979 100.19 184.203 101.444 185.049 103.046C185.895 104.618 186.319 106.416 186.319 108.441C186.319 109.046 186.303 109.62 186.273 110.164C186.243 110.708 186.198 111.192 186.137 111.615H168.047V107.308H183.417L180.425 108.396C180.425 106.492 179.986 105.026 179.11 103.998C178.263 102.97 177.054 102.457 175.483 102.457C174.334 102.457 173.337 102.729 172.49 103.273C171.674 103.817 171.055 104.633 170.632 105.721C170.208 106.779 169.997 108.124 169.997 109.756C169.997 111.358 170.223 112.688 170.677 113.746C171.16 114.774 171.825 115.544 172.672 116.058C173.548 116.572 174.591 116.829 175.8 116.829C177.13 116.829 178.203 116.572 179.019 116.058C179.835 115.544 180.47 114.834 180.923 113.927L185.865 115.831C185.382 117.01 184.641 118.023 183.644 118.869C182.676 119.715 181.513 120.365 180.153 120.819C178.823 121.242 177.387 121.453 175.845 121.453ZM202.464 106.537C202.464 105.237 202.086 104.225 201.33 103.499C200.605 102.774 199.638 102.411 198.429 102.411C197.31 102.411 196.328 102.698 195.482 103.273C194.635 103.847 194.016 104.799 193.623 106.129L188.318 104.497C188.832 102.502 189.95 100.9 191.673 99.691C193.426 98.4819 195.769 97.8774 198.701 97.8774C200.695 97.8774 202.433 98.1948 203.914 98.8295C205.396 99.434 206.544 100.356 207.36 101.595C208.207 102.834 208.63 104.391 208.63 106.265V115.469C208.63 116.617 209.174 117.192 210.262 117.192C210.776 117.192 211.259 117.116 211.713 116.965L211.35 120.819C210.564 121.212 209.582 121.408 208.403 121.408C207.345 121.408 206.393 121.227 205.547 120.864C204.7 120.501 204.035 119.957 203.552 119.232C203.068 118.476 202.826 117.539 202.826 116.421V116.239L203.914 116.058C203.733 117.207 203.234 118.189 202.418 119.005C201.602 119.791 200.605 120.395 199.426 120.819C198.277 121.242 197.084 121.453 195.844 121.453C194.303 121.453 192.973 121.227 191.854 120.773C190.736 120.29 189.875 119.595 189.27 118.688C188.666 117.781 188.363 116.663 188.363 115.333C188.363 113.64 188.907 112.265 189.996 111.207C191.084 110.119 192.64 109.378 194.665 108.985L203.189 107.262L203.144 111.116L197.703 112.204C196.675 112.416 195.89 112.703 195.346 113.066C194.832 113.398 194.575 113.957 194.575 114.743C194.575 115.499 194.847 116.073 195.391 116.466C195.965 116.859 196.645 117.056 197.431 117.056C198.066 117.056 198.685 116.98 199.29 116.829C199.894 116.678 200.439 116.436 200.922 116.103C201.406 115.771 201.784 115.318 202.056 114.743C202.328 114.169 202.464 113.474 202.464 112.658V106.537ZM222.017 121.453C220.143 121.453 218.465 120.985 216.984 120.048C215.533 119.111 214.385 117.766 213.538 116.013C212.722 114.26 212.314 112.159 212.314 109.711C212.314 107.202 212.752 105.071 213.629 103.318C214.505 101.535 215.684 100.19 217.165 99.2829C218.677 98.3459 220.369 97.8774 222.243 97.8774C224.238 97.8774 225.885 98.4517 227.185 99.6003C228.485 100.749 229.331 102.23 229.724 104.043L229.135 104.769V88.4017H235.346V121H229.769L229.361 114.109L230.132 114.471C229.921 115.892 229.437 117.131 228.681 118.189C227.926 119.217 226.974 120.018 225.825 120.592C224.676 121.166 223.407 121.453 222.017 121.453ZM223.83 116.693C224.918 116.693 225.855 116.421 226.641 115.877C227.427 115.302 228.031 114.471 228.455 113.383C228.908 112.295 229.135 110.995 229.135 109.484C229.135 108.033 228.923 106.809 228.5 105.812C228.077 104.784 227.472 103.998 226.686 103.454C225.901 102.91 224.979 102.638 223.921 102.638C222.228 102.638 220.898 103.242 219.931 104.451C218.994 105.63 218.525 107.368 218.525 109.665C218.525 111.963 218.994 113.716 219.931 114.925C220.868 116.103 222.168 116.693 223.83 116.693ZM242.961 95.0665C241.661 95.0665 240.694 94.7944 240.059 94.2504C239.424 93.6761 239.107 92.8449 239.107 91.7567C239.107 90.6384 239.424 89.8072 240.059 89.2631C240.694 88.6889 241.661 88.4017 242.961 88.4017C244.26 88.4017 245.228 88.6889 245.862 89.2631C246.497 89.8072 246.814 90.6384 246.814 91.7567C246.814 92.8449 246.497 93.6761 245.862 94.2504C245.228 94.7944 244.26 95.0665 242.961 95.0665ZM246.044 98.3308V121H239.832V98.3308H246.044ZM250.588 121V98.3308H256.164L256.527 105.132L255.756 104.406C256.119 102.925 256.693 101.701 257.479 100.734C258.265 99.7665 259.217 99.0562 260.336 98.6028C261.484 98.1192 262.739 97.8774 264.099 97.8774C265.67 97.8774 267.061 98.1797 268.27 98.7842C269.509 99.3887 270.476 100.311 271.171 101.55C271.897 102.759 272.26 104.285 272.26 106.129V121H266.048V107.897C266.048 105.963 265.67 104.633 264.915 103.907C264.159 103.152 263.177 102.774 261.968 102.774C261.121 102.774 260.29 102.986 259.474 103.409C258.688 103.802 258.038 104.451 257.525 105.358C257.041 106.265 256.799 107.474 256.799 108.985V121H250.588ZM297.519 92.9355L298.245 97.3787C298.124 97.3787 297.988 97.3787 297.837 97.3787C297.716 97.3485 297.58 97.3334 297.429 97.3334C296.038 97.3334 294.996 97.6507 294.3 98.2855C293.605 98.89 293.258 99.7363 293.258 100.824L290.719 99.7816C290.719 98.5726 290.96 97.4543 291.444 96.4266C291.928 95.3687 292.638 94.5224 293.575 93.8877C294.542 93.2529 295.691 92.9355 297.021 92.9355C297.081 92.9355 297.157 92.9355 297.247 92.9355C297.338 92.9355 297.429 92.9355 297.519 92.9355ZM290.084 116.738C292.532 116.738 294.421 117.267 295.751 118.325C297.081 119.383 297.746 120.864 297.746 122.768C297.746 124.491 297.247 125.942 296.25 127.121C295.253 128.33 293.847 129.236 292.034 129.841C290.25 130.445 288.18 130.748 285.822 130.748C281.923 130.748 279.067 130.204 277.253 129.116C275.47 128.027 274.578 126.607 274.578 124.854C274.578 123.615 275.047 122.572 275.984 121.725C276.951 120.879 278.538 120.411 280.744 120.32L280.518 121.045C278.946 120.773 277.737 120.259 276.89 119.504C276.074 118.718 275.666 117.645 275.666 116.285C275.666 114.894 276.195 113.761 277.253 112.884C278.341 111.978 279.807 111.449 281.651 111.298L284.371 112.567H283.737C282.437 112.658 281.515 112.93 280.971 113.383C280.457 113.806 280.2 114.29 280.2 114.834C280.2 115.469 280.442 115.952 280.926 116.285C281.439 116.587 282.165 116.738 283.102 116.738H290.084ZM285.867 126.486C287.439 126.486 288.724 126.35 289.721 126.078C290.749 125.806 291.505 125.458 291.988 125.035C292.502 124.612 292.759 124.143 292.759 123.63C292.759 123.055 292.532 122.587 292.079 122.224C291.625 121.892 290.809 121.725 289.631 121.725H281.968C281.243 121.725 280.638 121.907 280.155 122.269C279.701 122.632 279.475 123.131 279.475 123.766C279.475 124.612 280.034 125.277 281.152 125.761C282.301 126.244 283.873 126.486 285.867 126.486ZM285.913 97.8774C288.029 97.8774 289.857 98.1948 291.399 98.8295C292.97 99.434 294.164 100.311 294.98 101.459C295.827 102.608 296.25 103.983 296.25 105.585C296.25 107.157 295.827 108.517 294.98 109.665C294.164 110.814 292.97 111.706 291.399 112.34C289.857 112.945 288.029 113.247 285.913 113.247C282.558 113.247 279.989 112.567 278.205 111.207C276.452 109.817 275.576 107.943 275.576 105.585C275.576 103.983 275.984 102.608 276.8 101.459C277.646 100.311 278.84 99.434 280.382 98.8295C281.923 98.1948 283.767 97.8774 285.913 97.8774ZM285.913 101.777C284.704 101.777 283.706 102.109 282.92 102.774C282.135 103.439 281.742 104.361 281.742 105.54C281.742 106.718 282.135 107.655 282.92 108.351C283.706 109.016 284.704 109.348 285.913 109.348C287.122 109.348 288.104 109.016 288.86 108.351C289.646 107.655 290.039 106.718 290.039 105.54C290.039 104.361 289.646 103.439 288.86 102.774C288.104 102.109 287.122 101.777 285.913 101.777ZM334.651 91.0767V96.1092H324.631V121H318.374V96.1092H308.309V91.0767H334.651ZM339.597 95.0665C338.297 95.0665 337.33 94.7944 336.695 94.2504C336.061 93.6761 335.743 92.8449 335.743 91.7567C335.743 90.6384 336.061 89.8072 336.695 89.2631C337.33 88.6889 338.297 88.4017 339.597 88.4017C340.897 88.4017 341.864 88.6889 342.499 89.2631C343.133 89.8072 343.451 90.6384 343.451 91.7567C343.451 92.8449 343.133 93.6761 342.499 94.2504C341.864 94.7944 340.897 95.0665 339.597 95.0665ZM342.68 98.3308V121H336.469V98.3308H342.68ZM353.345 88.4017V114.018C353.345 115.076 353.526 115.816 353.889 116.239C354.252 116.663 354.856 116.874 355.702 116.874C356.216 116.874 356.639 116.844 356.972 116.784C357.304 116.693 357.728 116.572 358.241 116.421L357.697 120.501C357.183 120.804 356.534 121.03 355.748 121.181C354.992 121.363 354.236 121.453 353.481 121.453C351.274 121.453 349.657 120.924 348.63 119.867C347.632 118.778 347.133 117.056 347.133 114.698V88.4017H353.345ZM370.181 121.453C367.793 121.453 365.707 120.985 363.924 120.048C362.171 119.111 360.811 117.766 359.843 116.013C358.876 114.26 358.393 112.144 358.393 109.665C358.393 107.187 358.876 105.071 359.843 103.318C360.811 101.565 362.156 100.22 363.879 99.2829C365.632 98.3459 367.627 97.8774 369.863 97.8774C372.16 97.8774 374.11 98.3459 375.712 99.2829C377.314 100.19 378.538 101.444 379.384 103.046C380.231 104.618 380.654 106.416 380.654 108.441C380.654 109.046 380.639 109.62 380.608 110.164C380.578 110.708 380.533 111.192 380.472 111.615H362.382V107.308H377.752L374.76 108.396C374.76 106.492 374.321 105.026 373.445 103.998C372.599 102.97 371.39 102.457 369.818 102.457C368.669 102.457 367.672 102.729 366.826 103.273C366.009 103.817 365.39 104.633 364.967 105.721C364.543 106.779 364.332 108.124 364.332 109.756C364.332 111.358 364.559 112.688 365.012 113.746C365.496 114.774 366.161 115.544 367.007 116.058C367.883 116.572 368.926 116.829 370.135 116.829C371.465 116.829 372.538 116.572 373.354 116.058C374.17 115.544 374.805 114.834 375.258 113.927L380.2 115.831C379.717 117.01 378.976 118.023 377.979 118.869C377.012 119.715 375.848 120.365 374.488 120.819C373.158 121.242 371.722 121.453 370.181 121.453ZM396.33 121V91.0767H409.433C413.06 91.0767 415.735 91.787 417.458 93.2076C419.181 94.6282 420.042 96.6382 420.042 99.2376C420.042 100.84 419.559 102.26 418.591 103.499C417.624 104.739 416.204 105.525 414.33 105.857V105.902C416.415 106.205 418.017 106.99 419.135 108.26C420.254 109.529 420.813 111.041 420.813 112.794C420.813 115.363 419.876 117.373 418.002 118.824C416.158 120.275 413.453 121 409.886 121H396.33ZM402.406 116.285H409.342C411.035 116.285 412.289 115.937 413.105 115.242C413.921 114.547 414.33 113.58 414.33 112.34C414.33 111.071 413.921 110.104 413.105 109.439C412.289 108.774 411.035 108.441 409.342 108.441H402.406V116.285ZM402.406 103.635H408.617C411.911 103.635 413.559 102.351 413.559 99.7816C413.559 97.2125 411.911 95.9279 408.617 95.9279H402.406V103.635ZM424.117 121V98.3308H429.512L429.92 102.774C430.525 101.202 431.401 99.9932 432.55 99.1469C433.729 98.3006 435.195 97.8774 436.948 97.8774C437.462 97.8774 437.93 97.9228 438.353 98.0134C438.776 98.1041 439.124 98.225 439.396 98.3762L438.671 103.59C438.368 103.469 437.99 103.378 437.537 103.318C437.114 103.258 436.555 103.227 435.86 103.227C434.953 103.227 434.076 103.454 433.23 103.907C432.384 104.331 431.688 104.996 431.144 105.902C430.6 106.779 430.328 107.897 430.328 109.257V121H424.117ZM453.727 106.537C453.727 105.237 453.349 104.225 452.593 103.499C451.868 102.774 450.901 102.411 449.692 102.411C448.573 102.411 447.591 102.698 446.745 103.273C445.898 103.847 445.279 104.799 444.886 106.129L439.581 104.497C440.095 102.502 441.213 100.9 442.936 99.691C444.689 98.4819 447.032 97.8774 449.964 97.8774C451.959 97.8774 453.697 98.1948 455.178 98.8295C456.659 99.434 457.807 100.356 458.623 101.595C459.47 102.834 459.893 104.391 459.893 106.265V115.469C459.893 116.617 460.437 117.192 461.525 117.192C462.039 117.192 462.522 117.116 462.976 116.965L462.613 120.819C461.827 121.212 460.845 121.408 459.666 121.408C458.608 121.408 457.656 121.227 456.81 120.864C455.963 120.501 455.299 119.957 454.815 119.232C454.331 118.476 454.089 117.539 454.089 116.421V116.239L455.178 116.058C454.996 117.207 454.498 118.189 453.681 119.005C452.865 119.791 451.868 120.395 450.689 120.819C449.541 121.242 448.347 121.453 447.107 121.453C445.566 121.453 444.236 121.227 443.118 120.773C441.999 120.29 441.138 119.595 440.533 118.688C439.929 117.781 439.627 116.663 439.627 115.333C439.627 113.64 440.171 112.265 441.259 111.207C442.347 110.119 443.903 109.378 445.929 108.985L454.452 107.262L454.407 111.116L448.966 112.204C447.939 112.416 447.153 112.703 446.609 113.066C446.095 113.398 445.838 113.957 445.838 114.743C445.838 115.499 446.11 116.073 446.654 116.466C447.228 116.859 447.908 117.056 448.694 117.056C449.329 117.056 449.949 116.98 450.553 116.829C451.158 116.678 451.702 116.436 452.185 116.103C452.669 115.771 453.047 115.318 453.319 114.743C453.591 114.169 453.727 113.474 453.727 112.658V106.537ZM464.799 121V98.3308H470.376L470.739 105.132L469.968 104.406C470.331 102.925 470.905 101.701 471.691 100.734C472.477 99.7665 473.429 99.0562 474.547 98.6028C475.696 98.1192 476.95 97.8774 478.31 97.8774C479.882 97.8774 481.272 98.1797 482.481 98.7842C483.72 99.3887 484.688 100.311 485.383 101.55C486.108 102.759 486.471 104.285 486.471 106.129V121H480.26V107.897C480.26 105.963 479.882 104.633 479.126 103.907C478.371 103.152 477.388 102.774 476.179 102.774C475.333 102.774 474.502 102.986 473.686 103.409C472.9 103.802 472.25 104.451 471.736 105.358C471.252 106.265 471.011 107.474 471.011 108.985V121H464.799ZM499.399 121.453C497.525 121.453 495.847 120.985 494.366 120.048C492.915 119.111 491.767 117.766 490.921 116.013C490.104 114.26 489.696 112.159 489.696 109.711C489.696 107.202 490.135 105.071 491.011 103.318C491.888 101.535 493.067 100.19 494.548 99.2829C496.059 98.3459 497.752 97.8774 499.625 97.8774C501.62 97.8774 503.268 98.4517 504.567 99.6003C505.867 100.749 506.713 102.23 507.106 104.043L506.517 104.769V88.4017H512.728V121H507.152L506.744 114.109L507.514 114.471C507.303 115.892 506.819 117.131 506.064 118.189C505.308 119.217 504.356 120.018 503.207 120.592C502.059 121.166 500.789 121.453 499.399 121.453ZM501.212 116.693C502.3 116.693 503.237 116.421 504.023 115.877C504.809 115.302 505.414 114.471 505.837 113.383C506.29 112.295 506.517 110.995 506.517 109.484C506.517 108.033 506.305 106.809 505.882 105.812C505.459 104.784 504.855 103.998 504.069 103.454C503.283 102.91 502.361 102.638 501.303 102.638C499.61 102.638 498.28 103.242 497.313 104.451C496.376 105.63 495.908 107.368 495.908 109.665C495.908 111.963 496.376 113.716 497.313 114.925C498.25 116.103 499.55 116.693 501.212 116.693ZM55.3927 135.066C54.093 135.066 53.1258 134.794 52.4911 134.25C51.8563 133.676 51.5389 132.845 51.5389 131.757C51.5389 130.638 51.8563 129.807 52.4911 129.263C53.1258 128.689 54.093 128.402 55.3927 128.402C56.6924 128.402 57.6596 128.689 58.2944 129.263C58.9291 129.807 59.2465 130.638 59.2465 131.757C59.2465 132.845 58.9291 133.676 58.2944 134.25C57.6596 134.794 56.6924 135.066 55.3927 135.066ZM58.4757 138.331V161H52.2644V138.331H58.4757ZM63.0198 161V138.331H68.5964L68.9592 145.132L68.1884 144.406C68.5511 142.925 69.1254 141.701 69.9113 140.734C70.6971 139.767 71.6492 139.056 72.7676 138.603C73.9162 138.119 75.1705 137.877 76.5307 137.877C78.1024 137.877 79.4928 138.18 80.7018 138.784C81.941 139.389 82.9083 140.311 83.6034 141.55C84.3289 142.759 84.6916 144.285 84.6916 146.129V161H78.4802V147.897C78.4802 145.963 78.1024 144.633 77.3468 143.907C76.5911 143.152 75.6088 142.774 74.3998 142.774C73.5534 142.774 72.7222 142.986 71.9061 143.409C71.1203 143.802 70.4704 144.451 69.9566 145.358C69.473 146.265 69.2312 147.474 69.2312 148.985V161H63.0198ZM108.362 131.394V153.61C108.362 154.698 108.634 155.499 109.178 156.013C109.752 156.496 110.523 156.738 111.49 156.738C112.246 156.738 112.911 156.632 113.485 156.421C114.06 156.179 114.573 155.862 115.027 155.469L116.024 159.595C115.299 160.169 114.392 160.622 113.304 160.955C112.216 161.287 111.067 161.453 109.858 161.453C108.347 161.453 107.002 161.227 105.823 160.773C104.675 160.32 103.768 159.595 103.103 158.597C102.468 157.6 102.151 156.27 102.151 154.607V133.117L108.362 131.394ZM115.616 138.331V142.955H97.9796V138.331H115.616ZM118.133 161V128.402H124.344V142.185C125.069 140.734 126.067 139.661 127.336 138.966C128.606 138.24 130.041 137.877 131.643 137.877C133.215 137.877 134.605 138.18 135.814 138.784C137.054 139.389 138.021 140.311 138.716 141.55C139.442 142.759 139.804 144.285 139.804 146.129V161H133.593V147.943C133.593 145.978 133.215 144.633 132.459 143.907C131.704 143.152 130.737 142.774 129.558 142.774C128.681 142.774 127.835 142.986 127.019 143.409C126.233 143.802 125.583 144.467 125.069 145.404C124.586 146.31 124.344 147.519 124.344 149.031V161H118.133ZM154.682 161.453C152.294 161.453 150.208 160.985 148.425 160.048C146.672 159.111 145.312 157.766 144.344 156.013C143.377 154.26 142.894 152.144 142.894 149.665C142.894 147.187 143.377 145.071 144.344 143.318C145.312 141.565 146.657 140.22 148.38 139.283C150.133 138.346 152.128 137.877 154.364 137.877C156.661 137.877 158.611 138.346 160.213 139.283C161.815 140.19 163.039 141.444 163.885 143.046C164.732 144.618 165.155 146.416 165.155 148.441C165.155 149.046 165.14 149.62 165.109 150.164C165.079 150.708 165.034 151.192 164.973 151.615H146.883V147.308H162.253L159.261 148.396C159.261 146.492 158.823 145.026 157.946 143.998C157.1 142.97 155.891 142.457 154.319 142.457C153.17 142.457 152.173 142.729 151.327 143.273C150.51 143.817 149.891 144.633 149.468 145.721C149.045 146.779 148.833 148.124 148.833 149.756C148.833 151.358 149.06 152.688 149.513 153.746C149.997 154.774 150.662 155.544 151.508 156.058C152.384 156.572 153.427 156.829 154.636 156.829C155.966 156.829 157.039 156.572 157.855 156.058C158.671 155.544 159.306 154.834 159.76 153.927L164.701 155.831C164.218 157.01 163.477 158.023 162.48 158.869C161.513 159.715 160.349 160.365 158.989 160.819C157.659 161.242 156.223 161.453 154.682 161.453ZM193.39 131.077C195.687 131.077 197.652 131.47 199.284 132.255C200.916 133.011 202.17 134.114 203.047 135.565C203.954 136.986 204.407 138.709 204.407 140.734C204.407 142.759 203.954 144.497 203.047 145.948C202.17 147.368 200.916 148.471 199.284 149.257C197.652 150.013 195.687 150.391 193.39 150.391H187.088V161H180.831V131.077H193.39ZM192.438 145.449C194.312 145.449 195.717 145.056 196.654 144.27C197.591 143.454 198.06 142.275 198.06 140.734C198.06 139.162 197.591 137.983 196.654 137.197C195.717 136.411 194.312 136.019 192.438 136.019H187.088V145.449H192.438ZM207.467 161V128.402H213.678V142.185C214.404 140.734 215.401 139.661 216.671 138.966C217.94 138.24 219.376 137.877 220.978 137.877C222.549 137.877 223.94 138.18 225.149 138.784C226.388 139.389 227.355 140.311 228.05 141.55C228.776 142.759 229.139 144.285 229.139 146.129V161H222.927V147.943C222.927 145.978 222.549 144.633 221.794 143.907C221.038 143.152 220.071 142.774 218.892 142.774C218.016 142.774 217.169 142.986 216.353 143.409C215.567 143.802 214.917 144.467 214.404 145.404C213.92 146.31 213.678 147.519 213.678 149.031V161H207.467ZM236.626 135.066C235.326 135.066 234.359 134.794 233.724 134.25C233.089 133.676 232.772 132.845 232.772 131.757C232.772 130.638 233.089 129.807 233.724 129.263C234.359 128.689 235.326 128.402 236.626 128.402C237.925 128.402 238.893 128.689 239.527 129.263C240.162 129.807 240.48 130.638 240.48 131.757C240.48 132.845 240.162 133.676 239.527 134.25C238.893 134.794 237.925 135.066 236.626 135.066ZM239.709 138.331V161H233.497V138.331H239.709ZM250.374 128.402V154.018C250.374 155.076 250.555 155.816 250.918 156.239C251.28 156.663 251.885 156.874 252.731 156.874C253.245 156.874 253.668 156.844 254.001 156.784C254.333 156.693 254.756 156.572 255.27 156.421L254.726 160.501C254.212 160.804 253.562 161.03 252.777 161.181C252.021 161.363 251.265 161.453 250.51 161.453C248.303 161.453 246.686 160.924 245.658 159.867C244.661 158.778 244.162 157.056 244.162 154.698V128.402H250.374ZM259.819 135.066C258.519 135.066 257.552 134.794 256.918 134.25C256.283 133.676 255.965 132.845 255.965 131.757C255.965 130.638 256.283 129.807 256.918 129.263C257.552 128.689 258.519 128.402 259.819 128.402C261.119 128.402 262.086 128.689 262.721 129.263C263.356 129.807 263.673 130.638 263.673 131.757C263.673 132.845 263.356 133.676 262.721 134.25C262.086 134.794 261.119 135.066 259.819 135.066ZM262.902 138.331V161H256.691V138.331H262.902ZM267.446 170.521V138.331H273.023L273.431 145.54L272.66 144.724C272.932 143.394 273.431 142.215 274.156 141.187C274.912 140.159 275.864 139.358 277.013 138.784C278.161 138.18 279.446 137.877 280.866 137.877C282.71 137.877 284.358 138.346 285.808 139.283C287.259 140.22 288.393 141.565 289.209 143.318C290.055 145.041 290.478 147.142 290.478 149.62C290.478 152.099 290.055 154.229 289.209 156.013C288.362 157.766 287.199 159.111 285.718 160.048C284.267 160.985 282.604 161.453 280.73 161.453C278.736 161.453 277.073 160.894 275.743 159.776C274.444 158.658 273.552 157.252 273.068 155.559L273.658 154.607V170.521H267.446ZM278.917 156.693C280.579 156.693 281.879 156.103 282.816 154.925C283.783 153.716 284.267 151.963 284.267 149.665C284.267 147.368 283.798 145.63 282.861 144.451C281.955 143.242 280.67 142.638 279.008 142.638C277.95 142.638 277.013 142.925 276.197 143.499C275.411 144.043 274.791 144.844 274.338 145.902C273.884 146.93 273.658 148.184 273.658 149.665C273.658 151.116 273.869 152.371 274.292 153.428C274.716 154.486 275.32 155.302 276.106 155.877C276.922 156.421 277.859 156.693 278.917 156.693ZM293.831 170.521V138.331H299.408L299.816 145.54L299.045 144.724C299.317 143.394 299.816 142.215 300.541 141.187C301.297 140.159 302.249 139.358 303.398 138.784C304.546 138.18 305.831 137.877 307.251 137.877C309.095 137.877 310.742 138.346 312.193 139.283C313.644 140.22 314.777 141.565 315.594 143.318C316.44 145.041 316.863 147.142 316.863 149.62C316.863 152.099 316.44 154.229 315.594 156.013C314.747 157.766 313.584 159.111 312.102 160.048C310.652 160.985 308.989 161.453 307.115 161.453C305.12 161.453 303.458 160.894 302.128 159.776C300.828 158.658 299.937 157.252 299.453 155.559L300.042 154.607V170.521H293.831ZM305.302 156.693C306.964 156.693 308.264 156.103 309.201 154.925C310.168 153.716 310.652 151.963 310.652 149.665C310.652 147.368 310.183 145.63 309.246 144.451C308.339 143.242 307.055 142.638 305.392 142.638C304.334 142.638 303.398 142.925 302.581 143.499C301.796 144.043 301.176 144.844 300.723 145.902C300.269 146.93 300.042 148.184 300.042 149.665C300.042 151.116 300.254 152.371 300.677 153.428C301.1 154.486 301.705 155.302 302.491 155.877C303.307 156.421 304.244 156.693 305.302 156.693ZM323.344 135.066C322.045 135.066 321.077 134.794 320.443 134.25C319.808 133.676 319.49 132.845 319.49 131.757C319.49 130.638 319.808 129.807 320.443 129.263C321.077 128.689 322.045 128.402 323.344 128.402C324.644 128.402 325.611 128.689 326.246 129.263C326.881 129.807 327.198 130.638 327.198 131.757C327.198 132.845 326.881 133.676 326.246 134.25C325.611 134.794 324.644 135.066 323.344 135.066ZM326.427 138.331V161H320.216V138.331H326.427ZM330.971 161V138.331H336.548L336.911 145.132L336.14 144.406C336.503 142.925 337.077 141.701 337.863 140.734C338.649 139.767 339.601 139.056 340.719 138.603C341.868 138.119 343.122 137.877 344.482 137.877C346.054 137.877 347.444 138.18 348.653 138.784C349.893 139.389 350.86 140.311 351.555 141.55C352.28 142.759 352.643 144.285 352.643 146.129V161H346.432V147.897C346.432 145.963 346.054 144.633 345.298 143.907C344.543 143.152 343.56 142.774 342.351 142.774C341.505 142.774 340.674 142.986 339.858 143.409C339.072 143.802 338.422 144.451 337.908 145.358C337.425 146.265 337.183 147.474 337.183 148.985V161H330.971ZM367.52 161.453C365.133 161.453 363.047 160.985 361.264 160.048C359.511 159.111 358.151 157.766 357.183 156.013C356.216 154.26 355.732 152.144 355.732 149.665C355.732 147.187 356.216 145.071 357.183 143.318C358.151 141.565 359.496 140.22 361.218 139.283C362.972 138.346 364.966 137.877 367.203 137.877C369.5 137.877 371.45 138.346 373.052 139.283C374.654 140.19 375.878 141.444 376.724 143.046C377.57 144.618 377.994 146.416 377.994 148.441C377.994 149.046 377.979 149.62 377.948 150.164C377.918 150.708 377.873 151.192 377.812 151.615H359.722V147.308H375.092L372.1 148.396C372.1 146.492 371.661 145.026 370.785 143.998C369.939 142.97 368.729 142.457 367.158 142.457C366.009 142.457 365.012 142.729 364.165 143.273C363.349 143.817 362.73 144.633 362.307 145.721C361.883 146.779 361.672 148.124 361.672 149.756C361.672 151.358 361.899 152.688 362.352 153.746C362.836 154.774 363.5 155.544 364.347 156.058C365.223 156.572 366.266 156.829 367.475 156.829C368.805 156.829 369.878 156.572 370.694 156.058C371.51 155.544 372.145 154.834 372.598 153.927L377.54 155.831C377.057 157.01 376.316 158.023 375.319 158.869C374.351 159.715 373.188 160.365 371.828 160.819C370.498 161.242 369.062 161.453 367.52 161.453ZM390.285 161.453C387.988 161.453 385.887 161.045 383.983 160.229C382.109 159.413 380.583 158.265 379.404 156.784L382.985 153.156C383.711 154.245 384.678 155.136 385.887 155.831C387.096 156.527 388.532 156.874 390.194 156.874C391.373 156.874 392.31 156.708 393.005 156.375C393.731 156.013 394.093 155.454 394.093 154.698C394.093 154.214 393.927 153.806 393.595 153.474C393.262 153.111 392.597 152.824 391.6 152.612L387.61 151.796C384.98 151.252 383.106 150.436 381.988 149.348C380.9 148.23 380.356 146.794 380.356 145.041C380.356 143.802 380.719 142.638 381.444 141.55C382.2 140.462 383.318 139.585 384.799 138.92C386.28 138.225 388.124 137.877 390.33 137.877C392.597 137.877 394.562 138.24 396.224 138.966C397.917 139.661 399.247 140.704 400.214 142.094L396.496 145.721C395.831 144.663 394.955 143.862 393.867 143.318C392.809 142.744 391.69 142.457 390.512 142.457C389.665 142.457 388.94 142.547 388.335 142.729C387.731 142.91 387.278 143.167 386.975 143.499C386.673 143.802 386.522 144.195 386.522 144.678C386.522 145.162 386.733 145.585 387.157 145.948C387.58 146.28 388.351 146.567 389.469 146.809L394.093 147.761C396.33 148.215 397.932 148.985 398.899 150.073C399.866 151.131 400.35 152.416 400.35 153.927C400.35 155.378 399.957 156.678 399.171 157.826C398.416 158.945 397.282 159.836 395.771 160.501C394.29 161.136 392.461 161.453 390.285 161.453Z" fill="#657B88"/>
<rect x="49" y="195" width="172" height="48" rx="24" fill="#BF1901"/>
<path d="M99.7494 212.94C100.829 212.94 101.777 213.126 102.593 213.498C103.409 213.87 104.105 214.422 104.681 215.154L103.295 216.756C102.803 216.132 102.263 215.676 101.675 215.388C101.099 215.088 100.427 214.938 99.6594 214.938C99.1554 214.938 98.7354 215.004 98.3994 215.136C98.0754 215.268 97.8354 215.442 97.6794 215.658C97.5354 215.874 97.4634 216.114 97.4634 216.378C97.4634 216.702 97.5894 216.978 97.8414 217.206C98.0934 217.422 98.5254 217.602 99.1374 217.746L101.351 218.25C102.527 218.514 103.367 218.91 103.871 219.438C104.387 219.954 104.645 220.626 104.645 221.454C104.645 222.234 104.441 222.906 104.033 223.47C103.625 224.022 103.055 224.448 102.323 224.748C101.591 225.036 100.751 225.18 99.8034 225.18C98.9754 225.18 98.2134 225.084 97.5174 224.892C96.8334 224.688 96.2214 224.412 95.6814 224.064C95.1414 223.716 94.6914 223.314 94.3314 222.858L95.7354 221.184C96.0114 221.568 96.3534 221.91 96.7614 222.21C97.1694 222.51 97.6314 222.75 98.1474 222.93C98.6754 223.098 99.2274 223.182 99.8034 223.182C100.295 223.182 100.709 223.128 101.045 223.02C101.393 222.9 101.651 222.738 101.819 222.534C101.999 222.318 102.089 222.06 102.089 221.76C102.089 221.448 101.981 221.184 101.765 220.968C101.561 220.74 101.177 220.566 100.613 220.446L98.2014 219.906C97.5054 219.738 96.9054 219.522 96.4014 219.258C95.9094 218.982 95.5314 218.634 95.2674 218.214C95.0154 217.782 94.8894 217.272 94.8894 216.684C94.8894 215.976 95.0814 215.34 95.4654 214.776C95.8494 214.212 96.4014 213.768 97.1214 213.444C97.8534 213.108 98.7294 212.94 99.7494 212.94ZM105.933 225V212.058H108.399V217.53C108.687 216.954 109.083 216.528 109.587 216.252C110.091 215.964 110.661 215.82 111.297 215.82C111.921 215.82 112.473 215.94 112.953 216.18C113.445 216.42 113.829 216.786 114.105 217.278C114.393 217.758 114.537 218.364 114.537 219.096V225H112.071V219.816C112.071 219.036 111.921 218.502 111.621 218.214C111.321 217.914 110.937 217.764 110.469 217.764C110.121 217.764 109.785 217.848 109.461 218.016C109.149 218.172 108.891 218.436 108.687 218.808C108.495 219.168 108.399 219.648 108.399 220.248V225H105.933ZM120.372 215.82C121.284 215.82 122.082 216.006 122.766 216.378C123.462 216.75 124.002 217.284 124.386 217.98C124.782 218.676 124.98 219.516 124.98 220.5C124.98 221.472 124.782 222.312 124.386 223.02C124.002 223.716 123.462 224.25 122.766 224.622C122.082 224.994 121.284 225.18 120.372 225.18C119.472 225.18 118.674 224.994 117.978 224.622C117.282 224.25 116.736 223.716 116.34 223.02C115.956 222.312 115.764 221.472 115.764 220.5C115.764 219.516 115.956 218.676 116.34 217.98C116.736 217.284 117.282 216.75 117.978 216.378C118.674 216.006 119.472 215.82 120.372 215.82ZM120.372 217.656C119.916 217.656 119.526 217.764 119.202 217.98C118.89 218.184 118.65 218.496 118.482 218.916C118.314 219.336 118.23 219.864 118.23 220.5C118.23 221.136 118.314 221.664 118.482 222.084C118.65 222.504 118.89 222.822 119.202 223.038C119.526 223.242 119.916 223.344 120.372 223.344C120.816 223.344 121.194 223.242 121.506 223.038C121.83 222.822 122.076 222.504 122.244 222.084C122.412 221.664 122.496 221.136 122.496 220.5C122.496 219.864 122.412 219.336 122.244 218.916C122.076 218.496 121.83 218.184 121.506 217.98C121.194 217.764 120.816 217.656 120.372 217.656ZM126.233 228.78V216H128.447L128.609 218.862L128.303 218.538C128.411 218.01 128.609 217.542 128.897 217.134C129.197 216.726 129.575 216.408 130.031 216.18C130.487 215.94 130.997 215.82 131.561 215.82C132.293 215.82 132.947 216.006 133.523 216.378C134.099 216.75 134.549 217.284 134.873 217.98C135.209 218.664 135.377 219.498 135.377 220.482C135.377 221.466 135.209 222.312 134.873 223.02C134.537 223.716 134.075 224.25 133.487 224.622C132.911 224.994 132.251 225.18 131.507 225.18C130.715 225.18 130.055 224.958 129.527 224.514C129.011 224.07 128.657 223.512 128.465 222.84L128.699 222.462V228.78H126.233ZM130.787 223.29C131.447 223.29 131.963 223.056 132.335 222.588C132.719 222.108 132.911 221.412 132.911 220.5C132.911 219.588 132.725 218.898 132.353 218.43C131.993 217.95 131.483 217.71 130.823 217.71C130.403 217.71 130.031 217.824 129.707 218.052C129.395 218.268 129.149 218.586 128.969 219.006C128.789 219.414 128.699 219.912 128.699 220.5C128.699 221.076 128.783 221.574 128.951 221.994C129.119 222.414 129.359 222.738 129.671 222.966C129.995 223.182 130.367 223.29 130.787 223.29ZM151.858 213.12V225H149.014L144.856 218.016L143.83 216.072H143.812L143.884 218.124V225H141.652V213.12H144.478L148.636 220.086L149.662 222.048H149.698L149.626 219.996V213.12H151.858ZM157.913 215.82C158.825 215.82 159.623 216.006 160.307 216.378C161.003 216.75 161.543 217.284 161.927 217.98C162.323 218.676 162.521 219.516 162.521 220.5C162.521 221.472 162.323 222.312 161.927 223.02C161.543 223.716 161.003 224.25 160.307 224.622C159.623 224.994 158.825 225.18 157.913 225.18C157.013 225.18 156.215 224.994 155.519 224.622C154.823 224.25 154.277 223.716 153.881 223.02C153.497 222.312 153.305 221.472 153.305 220.5C153.305 219.516 153.497 218.676 153.881 217.98C154.277 217.284 154.823 216.75 155.519 216.378C156.215 216.006 157.013 215.82 157.913 215.82ZM157.913 217.656C157.457 217.656 157.067 217.764 156.743 217.98C156.431 218.184 156.191 218.496 156.023 218.916C155.855 219.336 155.771 219.864 155.771 220.5C155.771 221.136 155.855 221.664 156.023 222.084C156.191 222.504 156.431 222.822 156.743 223.038C157.067 223.242 157.457 223.344 157.913 223.344C158.357 223.344 158.735 223.242 159.047 223.038C159.371 222.822 159.617 222.504 159.785 222.084C159.953 221.664 160.037 221.136 160.037 220.5C160.037 219.864 159.953 219.336 159.785 218.916C159.617 218.496 159.371 218.184 159.047 217.98C158.735 217.764 158.357 217.656 157.913 217.656ZM175.138 216H177.766L174.886 225H172.042L170.08 218.88L168.19 225H165.346L162.466 216H165.094L166.894 222.894L168.892 216H171.34L173.356 222.894L175.138 216Z" fill="#D7DCDE"/>
</svg>
