<svg width="940" height="320" viewBox="0 0 940 320" fill="none" xmlns="http://www.w3.org/2000/svg">
<path d="M58.0912 103V63.928H75.2C79.936 63.928 83.4288 64.8555 85.6784 66.7104C87.928 68.5653 89.0528 71.1899 89.0528 74.584C89.0528 76.6757 88.4213 78.5307 87.1584 80.1488C85.8955 81.7669 84.0405 82.7931 81.5936 83.2272V83.2864C84.3168 83.6811 86.4085 84.7072 87.8688 86.3648C89.3291 88.0224 90.0592 89.9957 90.0592 92.2848C90.0592 95.6395 88.8357 98.264 86.3888 100.158C83.9813 102.053 80.4491 103 75.792 103H58.0912ZM66.024 96.8432H75.0816C77.2917 96.8432 78.9296 96.3893 79.9952 95.4816C81.0608 94.5739 81.5936 93.3109 81.5936 91.6928C81.5936 90.0352 81.0608 88.7723 79.9952 87.904C78.9296 87.0357 77.2917 86.6016 75.0816 86.6016H66.024V96.8432ZM66.024 80.3264H74.1344C78.4363 80.3264 80.5872 78.6491 80.5872 75.2944C80.5872 71.9397 78.4363 70.2624 74.1344 70.2624H66.024V80.3264ZM101.122 69.1376C99.4251 69.1376 98.1622 68.7824 97.3334 68.072C96.5046 67.3221 96.0902 66.2368 96.0902 64.816C96.0902 63.3557 96.5046 62.2704 97.3334 61.56C98.1622 60.8101 99.4251 60.4352 101.122 60.4352C102.819 60.4352 104.082 60.8101 104.911 61.56C105.74 62.2704 106.154 63.3557 106.154 64.816C106.154 66.2368 105.74 67.3221 104.911 68.072C104.082 68.7824 102.819 69.1376 101.122 69.1376ZM105.148 73.4V103H97.0374V73.4H105.148ZM141.036 66.3552L141.984 72.1568C141.826 72.1568 141.648 72.1568 141.451 72.1568C141.293 72.1173 141.115 72.0976 140.918 72.0976C139.103 72.0976 137.741 72.512 136.833 73.3408C135.925 74.1301 135.472 75.2352 135.472 76.656L132.156 75.2944C132.156 73.7157 132.472 72.2555 133.104 70.9136C133.735 69.5323 134.663 68.4272 135.886 67.5984C137.149 66.7696 138.649 66.3552 140.385 66.3552C140.464 66.3552 140.563 66.3552 140.681 66.3552C140.8 66.3552 140.918 66.3552 141.036 66.3552ZM131.328 97.4352C134.524 97.4352 136.991 98.1259 138.728 99.5072C140.464 100.889 141.332 102.822 141.332 105.309C141.332 107.558 140.681 109.453 139.379 110.992C138.076 112.571 136.241 113.755 133.873 114.544C131.545 115.333 128.841 115.728 125.763 115.728C120.672 115.728 116.942 115.018 114.574 113.597C112.245 112.176 111.081 110.321 111.081 108.032C111.081 106.414 111.693 105.052 112.916 103.947C114.179 102.842 116.251 102.23 119.132 102.112L118.836 103.059C116.784 102.704 115.205 102.033 114.1 101.046C113.035 100.02 112.502 98.6192 112.502 96.8432C112.502 95.0277 113.193 93.5477 114.574 92.4032C115.995 91.2192 117.909 90.5285 120.316 90.3312L123.868 91.9888H123.04C121.343 92.1072 120.139 92.4624 119.428 93.0544C118.757 93.6069 118.422 94.2384 118.422 94.9488C118.422 95.7776 118.738 96.4091 119.369 96.8432C120.04 97.2379 120.987 97.4352 122.211 97.4352H131.328ZM125.822 110.163C127.874 110.163 129.552 109.986 130.854 109.63C132.196 109.275 133.183 108.821 133.814 108.269C134.485 107.716 134.82 107.105 134.82 106.434C134.82 105.684 134.524 105.072 133.932 104.598C133.34 104.164 132.275 103.947 130.736 103.947H120.731C119.784 103.947 118.994 104.184 118.363 104.658C117.771 105.131 117.475 105.782 117.475 106.611C117.475 107.716 118.205 108.585 119.665 109.216C121.165 109.847 123.217 110.163 125.822 110.163ZM125.881 72.808C128.644 72.808 131.032 73.2224 133.044 74.0512C135.097 74.8405 136.656 75.9851 137.721 77.4848C138.826 78.9845 139.379 80.7803 139.379 82.872C139.379 84.9243 138.826 86.7003 137.721 88.2C136.656 89.6997 135.097 90.864 133.044 91.6928C131.032 92.4821 128.644 92.8768 125.881 92.8768C121.5 92.8768 118.146 91.9888 115.817 90.2128C113.528 88.3973 112.384 85.9504 112.384 82.872C112.384 80.7803 112.916 78.9845 113.982 77.4848C115.087 75.9851 116.646 74.8405 118.659 74.0512C120.672 73.2224 123.079 72.808 125.881 72.808ZM125.881 77.8992C124.303 77.8992 123 78.3333 121.974 79.2016C120.948 80.0699 120.435 81.2736 120.435 82.8128C120.435 84.352 120.948 85.5755 121.974 86.4832C123 87.3515 124.303 87.7856 125.881 87.7856C127.46 87.7856 128.743 87.3515 129.729 86.4832C130.755 85.5755 131.268 84.352 131.268 82.8128C131.268 81.2736 130.755 80.0699 129.729 79.2016C128.743 78.3333 127.46 77.8992 125.881 77.8992ZM181.558 63.928C184.558 63.928 187.123 64.4411 189.254 65.4672C191.386 66.4539 193.023 67.8944 194.168 69.7888C195.352 71.6437 195.944 73.8933 195.944 76.5376C195.944 79.1819 195.352 81.4512 194.168 83.3456C193.023 85.2005 191.386 86.6411 189.254 87.6672C187.123 88.6539 184.558 89.1472 181.558 89.1472H173.33V103H165.16V63.928H181.558ZM180.315 82.6944C182.762 82.6944 184.597 82.1813 185.821 81.1552C187.044 80.0896 187.656 78.5504 187.656 76.5376C187.656 74.4853 187.044 72.9461 185.821 71.92C184.597 70.8939 182.762 70.3808 180.315 70.3808H173.33V82.6944H180.315ZM202.603 103V73.4H209.648L210.181 79.2016C210.97 77.1493 212.115 75.5707 213.614 74.4656C215.153 73.3605 217.068 72.808 219.357 72.808C220.028 72.808 220.639 72.8672 221.192 72.9856C221.744 73.104 222.198 73.2619 222.553 73.4592L221.606 80.2672C221.212 80.1093 220.718 79.9909 220.126 79.912C219.574 79.8331 218.844 79.7936 217.936 79.7936C216.752 79.7936 215.607 80.0896 214.502 80.6816C213.397 81.2341 212.489 82.1024 211.779 83.2864C211.069 84.4309 210.713 85.8912 210.713 87.6672V103H202.603ZM240.498 72.808C243.497 72.808 246.122 73.4197 248.371 74.6432C250.66 75.8667 252.436 77.6229 253.699 79.912C255.002 82.2011 255.653 84.9637 255.653 88.2C255.653 91.3968 255.002 94.1595 253.699 96.488C252.436 98.7771 250.66 100.533 248.371 101.757C246.122 102.98 243.497 103.592 240.498 103.592C237.538 103.592 234.913 102.98 232.624 101.757C230.335 100.533 228.539 98.7771 227.237 96.488C225.974 94.1595 225.342 91.3968 225.342 88.2C225.342 84.9637 225.974 82.2011 227.237 79.912C228.539 77.6229 230.335 75.8667 232.624 74.6432C234.913 73.4197 237.538 72.808 240.498 72.808ZM240.498 78.8464C238.998 78.8464 237.715 79.2016 236.65 79.912C235.623 80.5829 234.834 81.6091 234.282 82.9904C233.729 84.3717 233.453 86.1083 233.453 88.2C233.453 90.2917 233.729 92.0283 234.282 93.4096C234.834 94.7909 235.623 95.8368 236.65 96.5472C237.715 97.2181 238.998 97.5536 240.498 97.5536C241.958 97.5536 243.201 97.2181 244.227 96.5472C245.293 95.8368 246.102 94.7909 246.654 93.4096C247.207 92.0283 247.483 90.2917 247.483 88.2C247.483 86.1083 247.207 84.3717 246.654 82.9904C246.102 81.6091 245.293 80.5829 244.227 79.912C243.201 79.2016 241.958 78.8464 240.498 78.8464ZM266.524 69.1376C264.827 69.1376 263.564 68.7824 262.735 68.072C261.906 67.3221 261.492 66.2368 261.492 64.816C261.492 63.3557 261.906 62.2704 262.735 61.56C263.564 60.8101 264.827 60.4352 266.524 60.4352C268.221 60.4352 269.484 60.8101 270.313 61.56C271.141 62.2704 271.556 63.3557 271.556 64.816C271.556 66.2368 271.141 67.3221 270.313 68.072C269.484 68.7824 268.221 69.1376 266.524 69.1376ZM270.549 73.4V105.19C270.549 107.756 270.076 109.808 269.129 111.347C268.221 112.886 266.978 113.991 265.399 114.662C263.82 115.373 262.025 115.728 260.012 115.728C258.552 115.728 257.229 115.55 256.045 115.195C254.861 114.879 253.835 114.426 252.967 113.834L254.21 108.032C254.684 108.427 255.276 108.762 255.986 109.038C256.697 109.315 257.486 109.453 258.354 109.453C259.578 109.453 260.564 109.078 261.314 108.328C262.064 107.578 262.439 106.276 262.439 104.421V73.4H270.549ZM292.881 103.592C289.763 103.592 287.04 102.98 284.712 101.757C282.423 100.533 280.647 98.7771 279.384 96.488C278.121 94.1989 277.489 91.4363 277.489 88.2C277.489 84.9637 278.121 82.2011 279.384 79.912C280.647 77.6229 282.403 75.8667 284.652 74.6432C286.941 73.4197 289.546 72.808 292.467 72.808C295.466 72.808 298.012 73.4197 300.104 74.6432C302.195 75.8272 303.794 77.4651 304.899 79.5568C306.004 81.6091 306.556 83.9573 306.556 86.6016C306.556 87.3909 306.537 88.1408 306.497 88.8512C306.458 89.5616 306.399 90.1931 306.32 90.7456H282.699V85.1216H302.768L298.86 86.5424C298.86 84.056 298.288 82.1419 297.144 80.8C296.039 79.4581 294.46 78.7872 292.408 78.7872C290.908 78.7872 289.605 79.1424 288.5 79.8528C287.435 80.5632 286.626 81.6288 286.073 83.0496C285.521 84.4309 285.244 86.1872 285.244 88.3184C285.244 90.4101 285.54 92.1467 286.132 93.528C286.764 94.8699 287.632 95.8763 288.737 96.5472C289.882 97.2181 291.243 97.5536 292.822 97.5536C294.559 97.5536 295.96 97.2181 297.025 96.5472C298.091 95.8763 298.92 94.9488 299.512 93.7648L305.964 96.2512C305.333 97.7904 304.366 99.1125 303.064 100.218C301.801 101.323 300.281 102.171 298.505 102.763C296.769 103.316 294.894 103.592 292.881 103.592ZM326.868 72.808C329.512 72.808 331.742 73.2027 333.558 73.992C335.413 74.7419 336.893 75.7877 337.998 77.1296C339.142 78.432 339.951 79.8923 340.425 81.5104L332.847 84.2336C332.453 82.4576 331.782 81.1157 330.834 80.208C329.887 79.3003 328.605 78.8464 326.986 78.8464C325.487 78.8464 324.204 79.2016 323.138 79.912C322.073 80.5829 321.264 81.6288 320.711 83.0496C320.159 84.4309 319.882 86.1675 319.882 88.2592C319.882 90.3509 320.159 92.0875 320.711 93.4688C321.303 94.8501 322.132 95.8763 323.198 96.5472C324.303 97.2181 325.585 97.5536 327.046 97.5536C328.23 97.5536 329.236 97.3563 330.065 96.9616C330.894 96.5275 331.565 95.9157 332.078 95.1264C332.63 94.3371 333.005 93.3899 333.202 92.2848L340.543 94.6528C340.109 96.4288 339.3 97.9877 338.116 99.3296C336.932 100.671 335.413 101.717 333.558 102.467C331.703 103.217 329.552 103.592 327.105 103.592C324.066 103.592 321.382 102.98 319.054 101.757C316.725 100.533 314.929 98.7771 313.666 96.488C312.403 94.1989 311.772 91.4363 311.772 88.2C311.772 84.9637 312.403 82.2011 313.666 79.912C314.929 77.6229 316.705 75.8667 318.994 74.6432C321.283 73.4197 323.908 72.808 326.868 72.808ZM357.324 64.3424V93.3504C357.324 94.7712 357.679 95.8171 358.389 96.488C359.139 97.1195 360.145 97.4352 361.408 97.4352C362.395 97.4352 363.263 97.2971 364.013 97.0208C364.763 96.7051 365.434 96.2907 366.026 95.7776L367.328 101.165C366.381 101.915 365.197 102.507 363.776 102.941C362.356 103.375 360.856 103.592 359.277 103.592C357.304 103.592 355.548 103.296 354.008 102.704C352.509 102.112 351.325 101.165 350.456 99.8624C349.628 98.56 349.213 96.8235 349.213 94.6528V66.592L357.324 64.3424ZM366.796 73.4V79.4384H343.767V73.4H366.796ZM384.123 103.592C381.123 103.592 378.38 103.059 375.894 101.994C373.447 100.928 371.454 99.4283 369.915 97.4944L374.592 92.7584C375.539 94.1792 376.802 95.3435 378.38 96.2512C379.959 97.1589 381.834 97.6128 384.004 97.6128C385.544 97.6128 386.767 97.3957 387.675 96.9616C388.622 96.488 389.096 95.7579 389.096 94.7712C389.096 94.1397 388.878 93.6069 388.444 93.1728C388.01 92.6992 387.142 92.3243 385.84 92.048L380.63 90.9824C377.196 90.272 374.749 89.2064 373.289 87.7856C371.868 86.3253 371.158 84.4507 371.158 82.1616C371.158 80.5435 371.632 79.024 372.579 77.6032C373.565 76.1824 375.026 75.0379 376.96 74.1696C378.893 73.2619 381.301 72.808 384.182 72.808C387.142 72.808 389.707 73.2816 391.878 74.2288C394.088 75.1365 395.825 76.4981 397.088 78.3136L392.233 83.0496C391.365 81.6683 390.22 80.6224 388.8 79.912C387.418 79.1621 385.958 78.7872 384.419 78.7872C383.314 78.7872 382.366 78.9056 381.577 79.1424C380.788 79.3792 380.196 79.7147 379.801 80.1488C379.406 80.5435 379.209 81.0565 379.209 81.688C379.209 82.3195 379.485 82.872 380.038 83.3456C380.59 83.7797 381.597 84.1547 383.057 84.4704L389.096 85.7136C392.016 86.3056 394.108 87.312 395.371 88.7328C396.634 90.1141 397.265 91.7915 397.265 93.7648C397.265 95.6592 396.752 97.3563 395.726 98.856C394.739 100.316 393.259 101.481 391.286 102.349C389.352 103.178 386.964 103.592 384.123 103.592ZM415.489 63.336C418.291 63.336 420.778 63.7504 422.948 64.5792C425.119 65.408 426.816 66.6315 428.039 68.2496C429.263 69.8283 429.875 71.7819 429.875 74.1104C429.875 76.4784 429.362 78.432 428.335 79.9712C427.349 81.4709 426.007 82.6155 424.31 83.4048C422.613 84.1547 420.738 84.648 418.686 84.8848L418.271 90.4496H410.871L410.931 81.5104C413.575 81.1947 415.627 80.7803 417.087 80.2672C418.587 79.7147 419.633 79.024 420.225 78.1952C420.856 77.3664 421.172 76.3797 421.172 75.2352C421.172 74.1301 420.935 73.2027 420.462 72.4528C420.028 71.7029 419.357 71.1307 418.449 70.736C417.541 70.3413 416.377 70.144 414.956 70.144C412.904 70.144 411.266 70.736 410.043 71.92C408.819 73.0645 408.069 74.7024 407.793 76.8336L400.097 73.8736C400.571 71.8213 401.439 70.0059 402.702 68.4272C403.965 66.8091 405.642 65.5659 407.734 64.6976C409.865 63.7899 412.45 63.336 415.489 63.336ZM414.66 94.416C416.199 94.416 417.423 94.8304 418.331 95.6592C419.238 96.488 419.692 97.5931 419.692 98.9744C419.692 100.395 419.238 101.52 418.331 102.349C417.423 103.138 416.199 103.533 414.66 103.533C413.121 103.533 411.898 103.138 410.99 102.349C410.082 101.52 409.628 100.395 409.628 98.9744C409.628 97.5931 410.082 96.488 410.99 95.6592C411.898 94.8304 413.121 94.416 414.66 94.416Z" fill="#BF1901"/>
<path d="M64.0514 145.302C62.1793 145.302 60.5588 144.889 59.19 144.064C57.8211 143.239 56.7542 142.071 55.9893 140.561C55.2244 139.031 54.8419 137.19 54.8419 135.036C54.8419 132.922 55.2344 131.1 56.0195 129.57C56.8247 128.04 57.952 126.863 59.4013 126.038C60.8708 125.192 62.5517 124.769 64.4439 124.769C66.5173 124.769 68.1881 125.152 69.4563 125.917C70.7446 126.682 71.7712 127.869 72.5361 129.48L69.5468 130.899C69.1644 129.792 68.5303 128.966 67.6446 128.423C66.779 127.859 65.7222 127.577 64.4741 127.577C63.226 127.577 62.1289 127.869 61.1828 128.453C60.2569 129.037 59.5322 129.892 59.0088 131.02C58.4854 132.127 58.2237 133.466 58.2237 135.036C58.2237 136.626 58.4552 137.985 58.9182 139.112C59.3812 140.219 60.0757 141.065 61.0017 141.648C61.9478 142.232 63.1053 142.524 64.4741 142.524C65.2189 142.524 65.9134 142.433 66.5575 142.252C67.2017 142.051 67.7653 141.769 68.2485 141.407C68.7316 141.024 69.104 140.551 69.3657 139.988C69.6475 139.404 69.7884 138.719 69.7884 137.934V137.361H63.991V134.734H72.6569V145H70.2413L70.0602 140.984L70.6641 141.286C70.1809 142.554 69.3757 143.541 68.2485 144.245C67.1413 144.95 65.7423 145.302 64.0514 145.302ZM83.9992 145.302C82.4894 145.302 81.1608 144.99 80.0134 144.366C78.866 143.742 77.9702 142.846 77.3261 141.679C76.702 140.491 76.39 139.082 76.39 137.451C76.39 135.821 76.702 134.422 77.3261 133.254C77.9702 132.066 78.8559 131.161 79.9832 130.537C81.1105 129.913 82.3888 129.601 83.818 129.601C85.2875 129.601 86.5355 129.903 87.5622 130.506C88.5888 131.11 89.3739 131.936 89.9174 132.982C90.4609 134.029 90.7326 135.217 90.7326 136.545C90.7326 136.908 90.7226 137.25 90.7024 137.572C90.6823 137.894 90.6521 138.176 90.6119 138.417H78.4735V135.942H89.1927L87.5924 136.425C87.5924 135.056 87.2501 134.009 86.5657 133.284C85.8813 132.54 84.9453 132.167 83.7576 132.167C82.892 132.167 82.1371 132.368 81.493 132.771C80.8488 133.174 80.3556 133.778 80.0134 134.583C79.6712 135.368 79.5001 136.334 79.5001 137.481C79.5001 138.609 79.6813 139.565 80.0436 140.35C80.406 141.135 80.9193 141.729 81.5836 142.131C82.2478 142.534 83.0329 142.735 83.9388 142.735C84.9453 142.735 85.7605 142.544 86.3846 142.162C87.0086 141.779 87.5018 141.246 87.8641 140.561L90.4307 141.769C90.0683 142.494 89.5752 143.128 88.9511 143.671C88.3472 144.195 87.6225 144.597 86.7771 144.879C85.9316 145.161 85.0057 145.302 83.9992 145.302ZM98.8673 125.464V140.471C98.8673 141.216 99.0586 141.759 99.4411 142.101C99.8437 142.443 100.377 142.615 101.041 142.615C101.585 142.615 102.058 142.534 102.461 142.373C102.863 142.192 103.236 141.95 103.578 141.648L104.302 144.004C103.839 144.406 103.266 144.728 102.581 144.97C101.917 145.191 101.172 145.302 100.347 145.302C99.4813 145.302 98.6862 145.161 97.9615 144.879C97.2368 144.597 96.6732 144.144 96.2706 143.52C95.868 142.876 95.6566 142.041 95.6365 141.014V126.37L98.8673 125.464ZM104.061 129.903V132.439H92.7378V129.903H104.061ZM125.802 135.307C125.802 134.301 125.52 133.526 124.957 132.982C124.413 132.419 123.658 132.137 122.692 132.137C121.786 132.137 121.011 132.348 120.367 132.771C119.723 133.194 119.25 133.878 118.948 134.824L116.23 133.677C116.613 132.449 117.357 131.463 118.465 130.718C119.592 129.973 121.041 129.601 122.813 129.601C124.02 129.601 125.087 129.802 126.013 130.204C126.939 130.587 127.664 131.171 128.187 131.956C128.731 132.741 129.003 133.747 129.003 134.975V141.709C129.003 142.454 129.375 142.826 130.12 142.826C130.482 142.826 130.834 142.776 131.177 142.675L130.996 144.909C130.533 145.131 129.949 145.242 129.244 145.242C128.6 145.242 128.016 145.131 127.493 144.909C126.99 144.668 126.587 144.316 126.285 143.853C126.003 143.369 125.862 142.776 125.862 142.071V141.86L126.527 141.83C126.345 142.615 125.973 143.269 125.409 143.792C124.846 144.295 124.192 144.678 123.447 144.94C122.702 145.181 121.947 145.302 121.182 145.302C120.236 145.302 119.381 145.151 118.616 144.849C117.871 144.547 117.277 144.094 116.834 143.49C116.411 142.866 116.2 142.101 116.2 141.195C116.2 140.068 116.562 139.142 117.287 138.417C118.032 137.693 119.079 137.2 120.427 136.938L126.285 135.791L126.255 138.055L121.997 138.931C121.152 139.092 120.518 139.323 120.095 139.625C119.672 139.927 119.461 140.37 119.461 140.954C119.461 141.518 119.672 141.97 120.095 142.313C120.538 142.635 121.122 142.796 121.846 142.796C122.35 142.796 122.833 142.735 123.296 142.615C123.779 142.494 124.212 142.303 124.594 142.041C124.977 141.759 125.269 141.407 125.47 140.984C125.691 140.541 125.802 140.018 125.802 139.414V135.307ZM150.773 124.769C152.564 124.769 154.114 125.112 155.423 125.796C156.731 126.46 157.838 127.447 158.744 128.755L156.57 130.839C155.805 129.671 154.939 128.836 153.973 128.332C153.027 127.809 151.9 127.547 150.591 127.547C149.625 127.547 148.83 127.678 148.206 127.94C147.582 128.202 147.119 128.554 146.817 128.997C146.535 129.419 146.394 129.903 146.394 130.446C146.394 131.07 146.606 131.614 147.028 132.077C147.471 132.54 148.286 132.902 149.474 133.164L153.52 134.069C155.453 134.492 156.822 135.136 157.627 136.002C158.432 136.867 158.835 137.965 158.835 139.293C158.835 140.521 158.502 141.588 157.838 142.494C157.174 143.4 156.248 144.094 155.06 144.577C153.893 145.06 152.514 145.302 150.923 145.302C149.514 145.302 148.246 145.121 147.119 144.758C145.992 144.396 145.005 143.903 144.16 143.279C143.314 142.655 142.62 141.94 142.076 141.135L144.311 138.901C144.734 139.605 145.267 140.239 145.911 140.803C146.555 141.346 147.3 141.769 148.146 142.071C149.011 142.373 149.967 142.524 151.014 142.524C151.94 142.524 152.735 142.413 153.399 142.192C154.084 141.97 154.597 141.648 154.939 141.226C155.302 140.783 155.483 140.259 155.483 139.655C155.483 139.072 155.282 138.558 154.879 138.116C154.497 137.673 153.772 137.33 152.705 137.089L148.327 136.092C147.119 135.831 146.122 135.458 145.337 134.975C144.552 134.492 143.969 133.908 143.586 133.224C143.204 132.519 143.012 131.734 143.012 130.869C143.012 129.741 143.314 128.725 143.918 127.819C144.542 126.893 145.438 126.158 146.606 125.615C147.773 125.051 149.162 124.769 150.773 124.769ZM162.781 151.341V129.903H165.649L165.891 134.13L165.468 133.616C165.71 132.831 166.082 132.137 166.585 131.533C167.089 130.929 167.713 130.456 168.458 130.114C169.223 129.772 170.058 129.601 170.964 129.601C172.192 129.601 173.309 129.913 174.315 130.537C175.322 131.161 176.117 132.056 176.701 133.224C177.285 134.371 177.576 135.77 177.576 137.421C177.576 139.072 177.274 140.491 176.671 141.679C176.087 142.846 175.282 143.742 174.255 144.366C173.249 144.99 172.121 145.302 170.873 145.302C169.585 145.302 168.488 144.97 167.582 144.306C166.676 143.621 166.032 142.756 165.649 141.709L166.012 141.195V151.341H162.781ZM170.179 142.675C171.487 142.675 172.504 142.212 173.228 141.286C173.973 140.36 174.346 139.082 174.346 137.451C174.346 135.821 173.983 134.542 173.259 133.616C172.534 132.67 171.527 132.197 170.239 132.197C169.394 132.197 168.649 132.419 168.005 132.862C167.381 133.284 166.887 133.888 166.525 134.673C166.183 135.438 166.012 136.364 166.012 137.451C166.012 138.518 166.183 139.444 166.525 140.229C166.867 141.014 167.35 141.618 167.974 142.041C168.598 142.464 169.333 142.675 170.179 142.675ZM188.355 145.302C186.845 145.302 185.516 144.99 184.369 144.366C183.221 143.742 182.326 142.846 181.682 141.679C181.058 140.491 180.746 139.082 180.746 137.451C180.746 135.821 181.058 134.422 181.682 133.254C182.326 132.066 183.211 131.161 184.339 130.537C185.466 129.913 186.744 129.601 188.173 129.601C189.643 129.601 190.891 129.903 191.918 130.506C192.944 131.11 193.729 131.936 194.273 132.982C194.816 134.029 195.088 135.217 195.088 136.545C195.088 136.908 195.078 137.25 195.058 137.572C195.038 137.894 195.008 138.176 194.967 138.417H182.829V135.942H193.548L191.948 136.425C191.948 135.056 191.606 134.009 190.921 133.284C190.237 132.54 189.301 132.167 188.113 132.167C187.247 132.167 186.493 132.368 185.848 132.771C185.204 133.174 184.711 133.778 184.369 134.583C184.027 135.368 183.856 136.334 183.856 137.481C183.856 138.609 184.037 139.565 184.399 140.35C184.761 141.135 185.275 141.729 185.939 142.131C186.603 142.534 187.388 142.735 188.294 142.735C189.301 142.735 190.116 142.544 190.74 142.162C191.364 141.779 191.857 141.246 192.22 140.561L194.786 141.769C194.424 142.494 193.931 143.128 193.307 143.671C192.703 144.195 191.978 144.597 191.133 144.879C190.287 145.161 189.361 145.302 188.355 145.302ZM205.69 129.601C206.898 129.601 207.925 129.782 208.77 130.144C209.636 130.486 210.36 130.979 210.944 131.624C211.528 132.268 211.971 133.003 212.273 133.828L209.223 135.036C208.961 134.11 208.539 133.405 207.955 132.922C207.391 132.419 206.647 132.167 205.721 132.167C204.815 132.167 204.04 132.379 203.396 132.801C202.751 133.204 202.258 133.798 201.916 134.583C201.594 135.368 201.433 136.334 201.433 137.481C201.433 138.609 201.604 139.565 201.946 140.35C202.288 141.135 202.782 141.729 203.426 142.131C204.07 142.534 204.835 142.735 205.721 142.735C206.405 142.735 206.999 142.625 207.502 142.403C208.005 142.162 208.418 141.83 208.74 141.407C209.082 140.964 209.314 140.43 209.435 139.806L212.363 140.803C212.082 141.709 211.639 142.504 211.035 143.188C210.451 143.853 209.716 144.376 208.831 144.758C207.945 145.121 206.928 145.302 205.781 145.302C204.291 145.302 202.973 144.99 201.825 144.366C200.678 143.742 199.782 142.846 199.138 141.679C198.514 140.491 198.202 139.082 198.202 137.451C198.202 135.821 198.514 134.422 199.138 133.254C199.782 132.066 200.668 131.161 201.795 130.537C202.943 129.913 204.241 129.601 205.69 129.601ZM217.754 127.366C217.049 127.366 216.506 127.195 216.123 126.853C215.761 126.49 215.58 125.987 215.58 125.343C215.58 124.699 215.761 124.206 216.123 123.864C216.506 123.521 217.049 123.35 217.754 123.35C218.438 123.35 218.962 123.521 219.324 123.864C219.707 124.206 219.898 124.699 219.898 125.343C219.898 125.987 219.707 126.49 219.324 126.853C218.962 127.195 218.438 127.366 217.754 127.366ZM219.354 129.903V145H216.123V129.903H219.354ZM233.136 135.307C233.136 134.301 232.854 133.526 232.29 132.982C231.747 132.419 230.992 132.137 230.026 132.137C229.12 132.137 228.345 132.348 227.701 132.771C227.056 133.194 226.583 133.878 226.281 134.824L223.564 133.677C223.946 132.449 224.691 131.463 225.798 130.718C226.926 129.973 228.375 129.601 230.146 129.601C231.354 129.601 232.421 129.802 233.347 130.204C234.273 130.587 234.998 131.171 235.521 131.956C236.065 132.741 236.336 133.747 236.336 134.975V141.709C236.336 142.454 236.709 142.826 237.454 142.826C237.816 142.826 238.168 142.776 238.51 142.675L238.329 144.909C237.866 145.131 237.282 145.242 236.578 145.242C235.934 145.242 235.35 145.131 234.827 144.909C234.323 144.668 233.921 144.316 233.619 143.853C233.337 143.369 233.196 142.776 233.196 142.071V141.86L233.86 141.83C233.679 142.615 233.307 143.269 232.743 143.792C232.179 144.295 231.525 144.678 230.78 144.94C230.036 145.181 229.281 145.302 228.516 145.302C227.57 145.302 226.714 145.151 225.949 144.849C225.204 144.547 224.611 144.094 224.168 143.49C223.745 142.866 223.534 142.101 223.534 141.195C223.534 140.068 223.896 139.142 224.621 138.417C225.365 137.693 226.412 137.2 227.761 136.938L233.619 135.791L233.589 138.055L229.331 138.931C228.486 139.092 227.852 139.323 227.429 139.625C227.006 139.927 226.795 140.37 226.795 140.954C226.795 141.518 227.006 141.97 227.429 142.313C227.872 142.635 228.455 142.796 229.18 142.796C229.683 142.796 230.166 142.735 230.629 142.615C231.113 142.494 231.545 142.303 231.928 142.041C232.31 141.759 232.602 141.407 232.804 140.984C233.025 140.541 233.136 140.018 233.136 139.414V135.307ZM244.77 123.109V140.773C244.77 141.518 244.901 142.031 245.163 142.313C245.424 142.594 245.857 142.735 246.461 142.735C246.823 142.735 247.125 142.715 247.367 142.675C247.629 142.615 247.951 142.514 248.333 142.373L247.971 144.789C247.629 144.95 247.236 145.07 246.793 145.151C246.35 145.252 245.908 145.302 245.465 145.302C244.116 145.302 243.12 144.96 242.475 144.275C241.851 143.571 241.539 142.494 241.539 141.044V123.109H244.77ZM273.619 150.979C272.492 150.979 271.455 150.777 270.509 150.375C269.583 149.972 268.828 149.318 268.244 148.412C267.681 147.506 267.399 146.298 267.399 144.789C267.399 144.547 267.419 144.285 267.459 144.004C267.5 143.722 267.57 143.45 267.671 143.188L270.056 143.007C269.996 143.289 269.945 143.551 269.905 143.792C269.865 144.014 269.845 144.225 269.845 144.426C269.845 145.473 270.016 146.258 270.358 146.782C270.72 147.305 271.183 147.657 271.747 147.838C272.331 148.019 272.965 148.11 273.649 148.11C274.434 148.11 275.129 148.009 275.733 147.808C276.357 147.607 276.86 147.345 277.243 147.023L278.028 149.65C277.544 150.073 276.87 150.395 276.005 150.616C275.159 150.858 274.364 150.979 273.619 150.979ZM268.697 124.769C270.63 124.769 272.301 125.182 273.71 126.007C275.119 126.833 276.206 128.01 276.971 129.54C277.736 131.07 278.118 132.902 278.118 135.036C278.118 137.169 277.736 139.001 276.971 140.531C276.206 142.061 275.119 143.239 273.71 144.064C272.301 144.889 270.63 145.302 268.697 145.302C266.785 145.302 265.124 144.889 263.715 144.064C262.306 143.239 261.219 142.061 260.454 140.531C259.689 139.001 259.307 137.169 259.307 135.036C259.307 132.902 259.689 131.07 260.454 129.54C261.219 128.01 262.306 126.833 263.715 126.007C265.124 125.182 266.785 124.769 268.697 124.769ZM268.697 127.577C267.449 127.577 266.372 127.869 265.466 128.453C264.581 129.037 263.896 129.882 263.413 130.99C262.93 132.097 262.689 133.445 262.689 135.036C262.689 136.606 262.93 137.955 263.413 139.082C263.896 140.189 264.581 141.034 265.466 141.618C266.372 142.202 267.449 142.494 268.697 142.494C269.966 142.494 271.042 142.202 271.928 141.618C272.834 141.034 273.529 140.189 274.012 139.082C274.495 137.955 274.736 136.606 274.736 135.036C274.736 133.445 274.495 132.097 274.012 130.99C273.529 129.882 272.834 129.037 271.928 128.453C271.042 127.869 269.966 127.577 268.697 127.577ZM287.844 145.302C286.858 145.302 285.942 145.121 285.097 144.758C284.271 144.396 283.607 143.812 283.104 143.007C282.601 142.202 282.349 141.155 282.349 139.867V129.903H285.58V139.052C285.58 140.42 285.872 141.367 286.456 141.89C287.039 142.393 287.855 142.645 288.901 142.645C289.405 142.645 289.888 142.564 290.351 142.403C290.834 142.222 291.267 141.95 291.649 141.588C292.032 141.205 292.323 140.722 292.525 140.139C292.746 139.555 292.857 138.87 292.857 138.085V129.903H296.088V145H293.249L293.098 142.554C292.575 143.5 291.87 144.195 290.985 144.638C290.099 145.081 289.052 145.302 287.844 145.302ZM307.688 129.601C309.157 129.601 310.455 129.913 311.583 130.537C312.71 131.161 313.586 132.066 314.21 133.254C314.854 134.422 315.176 135.821 315.176 137.451C315.176 139.082 314.854 140.491 314.21 141.679C313.586 142.846 312.71 143.742 311.583 144.366C310.455 144.99 309.157 145.302 307.688 145.302C306.218 145.302 304.92 144.99 303.792 144.366C302.665 143.742 301.779 142.846 301.135 141.679C300.491 140.491 300.169 139.082 300.169 137.451C300.169 135.821 300.491 134.422 301.135 133.254C301.779 132.066 302.665 131.161 303.792 130.537C304.92 129.913 306.218 129.601 307.688 129.601ZM307.688 132.137C306.782 132.137 306.007 132.348 305.363 132.771C304.738 133.174 304.255 133.767 303.913 134.553C303.571 135.338 303.4 136.304 303.4 137.451C303.4 138.579 303.571 139.545 303.913 140.35C304.255 141.135 304.738 141.739 305.363 142.162C306.007 142.564 306.782 142.766 307.688 142.766C308.593 142.766 309.358 142.564 309.982 142.162C310.606 141.739 311.09 141.135 311.432 140.35C311.774 139.545 311.945 138.579 311.945 137.451C311.945 136.304 311.774 135.338 311.432 134.553C311.09 133.767 310.606 133.174 309.982 132.771C309.358 132.348 308.593 132.137 307.688 132.137ZM323.442 125.464V140.471C323.442 141.216 323.634 141.759 324.016 142.101C324.419 142.443 324.952 142.615 325.617 142.615C326.16 142.615 326.633 142.534 327.036 142.373C327.438 142.192 327.811 141.95 328.153 141.648L328.878 144.004C328.415 144.406 327.841 144.728 327.156 144.97C326.492 145.191 325.747 145.302 324.922 145.302C324.056 145.302 323.261 145.161 322.537 144.879C321.812 144.597 321.248 144.144 320.846 143.52C320.443 142.876 320.232 142.041 320.212 141.014V126.37L323.442 125.464ZM328.636 129.903V132.439H317.313V129.903H328.636ZM338.474 145.302C336.965 145.302 335.636 144.99 334.489 144.366C333.341 143.742 332.445 142.846 331.801 141.679C331.177 140.491 330.865 139.082 330.865 137.451C330.865 135.821 331.177 134.422 331.801 133.254C332.445 132.066 333.331 131.161 334.458 130.537C335.586 129.913 336.864 129.601 338.293 129.601C339.763 129.601 341.011 129.903 342.037 130.506C343.064 131.11 343.849 131.936 344.393 132.982C344.936 134.029 345.208 135.217 345.208 136.545C345.208 136.908 345.198 137.25 345.178 137.572C345.158 137.894 345.127 138.176 345.087 138.417H332.949V135.942H343.668L342.068 136.425C342.068 135.056 341.725 134.009 341.041 133.284C340.357 132.54 339.421 132.167 338.233 132.167C337.367 132.167 336.612 132.368 335.968 132.771C335.324 133.174 334.831 133.778 334.489 134.583C334.146 135.368 333.975 136.334 333.975 137.481C333.975 138.609 334.157 139.565 334.519 140.35C334.881 141.135 335.395 141.729 336.059 142.131C336.723 142.534 337.508 142.735 338.414 142.735C339.421 142.735 340.236 142.544 340.86 142.162C341.484 141.779 341.977 141.246 342.339 140.561L344.906 141.769C344.544 142.494 344.05 143.128 343.426 143.671C342.822 144.195 342.098 144.597 341.252 144.879C340.407 145.161 339.481 145.302 338.474 145.302ZM365.066 122.897C365.69 122.897 366.254 122.968 366.757 123.109C367.281 123.229 367.673 123.401 367.935 123.622L367.331 125.947C367.109 125.806 366.858 125.705 366.576 125.645C366.294 125.565 365.972 125.524 365.61 125.524C364.784 125.524 364.13 125.715 363.647 126.098C363.184 126.48 362.953 127.104 362.953 127.97V130.174L363.043 130.99V145H359.812V127.728C359.812 126.964 359.923 126.279 360.144 125.675C360.386 125.071 360.738 124.568 361.201 124.165C361.664 123.743 362.218 123.431 362.862 123.229C363.526 123.008 364.261 122.897 365.066 122.897ZM367.844 129.903V132.439H356.974V129.903H367.844ZM370.755 145V129.903H373.502L373.804 132.62C374.207 131.634 374.801 130.889 375.586 130.386C376.391 129.862 377.377 129.601 378.545 129.601C378.847 129.601 379.149 129.631 379.451 129.691C379.753 129.731 380.004 129.802 380.206 129.903L379.753 132.741C379.531 132.66 379.28 132.6 378.998 132.56C378.736 132.499 378.374 132.469 377.911 132.469C377.287 132.469 376.673 132.64 376.069 132.982C375.465 133.304 374.962 133.798 374.559 134.462C374.177 135.126 373.986 135.972 373.986 136.998V145H370.755ZM389.426 129.601C390.896 129.601 392.194 129.913 393.321 130.537C394.449 131.161 395.324 132.066 395.948 133.254C396.593 134.422 396.915 135.821 396.915 137.451C396.915 139.082 396.593 140.491 395.948 141.679C395.324 142.846 394.449 143.742 393.321 144.366C392.194 144.99 390.896 145.302 389.426 145.302C387.957 145.302 386.658 144.99 385.531 144.366C384.404 143.742 383.518 142.846 382.874 141.679C382.23 140.491 381.908 139.082 381.908 137.451C381.908 135.821 382.23 134.422 382.874 133.254C383.518 132.066 384.404 131.161 385.531 130.537C386.658 129.913 387.957 129.601 389.426 129.601ZM389.426 132.137C388.52 132.137 387.745 132.348 387.101 132.771C386.477 133.174 385.994 133.767 385.652 134.553C385.31 135.338 385.139 136.304 385.139 137.451C385.139 138.579 385.31 139.545 385.652 140.35C385.994 141.135 386.477 141.739 387.101 142.162C387.745 142.564 388.52 142.766 389.426 142.766C390.332 142.766 391.097 142.564 391.721 142.162C392.345 141.739 392.828 141.135 393.17 140.35C393.513 139.545 393.684 138.579 393.684 137.451C393.684 136.304 393.513 135.338 393.17 134.553C392.828 133.767 392.345 133.174 391.721 132.771C391.097 132.348 390.332 132.137 389.426 132.137ZM400.979 145V129.903H403.848L403.999 132.439C404.522 131.473 405.217 130.758 406.082 130.295C406.968 129.832 407.904 129.601 408.89 129.601C409.977 129.601 410.974 129.852 411.88 130.355C412.806 130.839 413.5 131.573 413.963 132.56C414.285 131.895 414.728 131.342 415.292 130.899C415.855 130.456 416.479 130.134 417.164 129.933C417.848 129.711 418.522 129.601 419.187 129.601C420.153 129.601 421.059 129.802 421.904 130.204C422.75 130.607 423.434 131.221 423.958 132.046C424.481 132.872 424.743 133.929 424.743 135.217V145H421.512V135.73C421.512 134.502 421.22 133.616 420.636 133.073C420.052 132.529 419.308 132.258 418.402 132.258C417.697 132.258 417.043 132.429 416.439 132.771C415.855 133.113 415.382 133.627 415.02 134.311C414.657 134.975 414.476 135.801 414.476 136.787V145H411.245V135.73C411.245 134.502 410.954 133.616 410.37 133.073C409.786 132.529 409.041 132.258 408.135 132.258C407.531 132.258 406.928 132.419 406.324 132.741C405.72 133.063 405.217 133.566 404.814 134.251C404.411 134.935 404.21 135.841 404.21 136.968V145H400.979ZM444.835 145.302C443.848 145.302 442.932 145.121 442.087 144.758C441.262 144.396 440.597 143.812 440.094 143.007C439.591 142.202 439.339 141.155 439.339 139.867V129.903H442.57V139.052C442.57 140.42 442.862 141.367 443.446 141.89C444.03 142.393 444.845 142.645 445.892 142.645C446.395 142.645 446.878 142.564 447.341 142.403C447.824 142.222 448.257 141.95 448.639 141.588C449.022 141.205 449.314 140.722 449.515 140.139C449.736 139.555 449.847 138.87 449.847 138.085V129.903H453.078V145H450.24L450.089 142.554C449.565 143.5 448.861 144.195 447.975 144.638C447.089 145.081 446.043 145.302 444.835 145.302ZM463.863 145.302C462.353 145.302 460.974 145.01 459.726 144.426C458.478 143.843 457.491 143.017 456.767 141.95L459.001 140.018C459.444 140.843 460.078 141.507 460.903 142.011C461.749 142.494 462.755 142.735 463.923 142.735C464.849 142.735 465.584 142.574 466.127 142.252C466.671 141.93 466.942 141.477 466.942 140.893C466.942 140.511 466.812 140.179 466.55 139.897C466.308 139.595 465.835 139.364 465.131 139.203L461.96 138.538C460.35 138.216 459.202 137.703 458.518 136.998C457.834 136.274 457.491 135.358 457.491 134.251C457.491 133.425 457.733 132.66 458.216 131.956C458.699 131.251 459.404 130.688 460.33 130.265C461.276 129.822 462.403 129.601 463.712 129.601C465.221 129.601 466.51 129.872 467.577 130.416C468.643 130.939 469.459 131.694 470.022 132.68L467.788 134.553C467.405 133.747 466.842 133.154 466.097 132.771C465.352 132.368 464.577 132.167 463.772 132.167C463.128 132.167 462.574 132.248 462.111 132.409C461.648 132.57 461.296 132.791 461.054 133.073C460.813 133.355 460.692 133.687 460.692 134.069C460.692 134.472 460.843 134.824 461.145 135.126C461.447 135.428 461.99 135.66 462.776 135.821L466.218 136.545C467.667 136.827 468.684 137.31 469.267 137.995C469.871 138.659 470.173 139.474 470.173 140.441C470.173 141.407 469.922 142.262 469.418 143.007C468.915 143.732 468.19 144.295 467.244 144.698C466.298 145.101 465.171 145.302 463.863 145.302ZM477.52 125.071V133.043L477.097 138.659H474.561L474.138 133.043V125.071H477.52ZM475.829 141.014C476.513 141.014 477.057 141.216 477.459 141.618C477.882 142.001 478.093 142.514 478.093 143.158C478.093 143.802 477.882 144.316 477.459 144.698C477.057 145.081 476.513 145.272 475.829 145.272C475.164 145.272 474.621 145.081 474.198 144.698C473.796 144.316 473.594 143.802 473.594 143.158C473.594 142.514 473.796 142.001 474.198 141.618C474.621 141.216 475.164 141.014 475.829 141.014Z" fill="#1C1C1C"/>
<path d="M57.9459 177.181C57.0401 177.181 56.2127 177.006 55.4639 176.656C54.7151 176.306 54.1233 175.81 53.6884 175.17L55.0291 174.011C55.2948 174.506 55.6753 174.904 56.1705 175.206C56.6777 175.496 57.2816 175.641 57.9822 175.641C58.5378 175.641 58.9786 175.545 59.3047 175.351C59.6308 175.158 59.7939 174.886 59.7939 174.536C59.7939 174.307 59.7154 174.107 59.5583 173.938C59.4134 173.757 59.1296 173.618 58.7069 173.522L56.8046 173.123C55.8383 172.93 55.1499 172.622 54.7392 172.199C54.3286 171.764 54.1233 171.215 54.1233 170.55C54.1233 170.055 54.2682 169.596 54.5581 169.173C54.8479 168.751 55.2707 168.413 55.8262 168.159C56.3939 167.893 57.0703 167.76 57.8554 167.76C58.7612 167.76 59.5342 167.923 60.1743 168.249C60.8145 168.564 61.3036 169.016 61.6418 169.608L60.3011 170.732C60.0717 170.248 59.7335 169.892 59.2866 169.663C58.8397 169.421 58.3747 169.3 57.8916 169.3C57.5051 169.3 57.1729 169.349 56.8952 169.445C56.6174 169.542 56.406 169.675 56.2611 169.844C56.1161 170.013 56.0437 170.212 56.0437 170.442C56.0437 170.683 56.1342 170.895 56.3154 171.076C56.4966 171.257 56.8227 171.396 57.2937 171.492L59.3591 171.927C60.2287 172.096 60.8386 172.386 61.1889 172.797C61.5512 173.195 61.7324 173.685 61.7324 174.264C61.7324 174.844 61.5814 175.357 61.2795 175.804C60.9775 176.239 60.5427 176.577 59.975 176.819C59.4074 177.06 58.731 177.181 57.9459 177.181ZM66.7381 165.278V174.282C66.7381 174.729 66.8528 175.055 67.0823 175.261C67.3238 175.466 67.6439 175.569 68.0425 175.569C68.3686 175.569 68.6524 175.52 68.894 175.424C69.1355 175.315 69.359 175.17 69.5643 174.989L69.9991 176.402C69.7213 176.644 69.3771 176.837 68.9664 176.982C68.5679 177.115 68.121 177.181 67.6258 177.181C67.1064 177.181 66.6294 177.097 66.1945 176.928C65.7597 176.758 65.4216 176.487 65.18 176.112C64.9384 175.726 64.8116 175.225 64.7995 174.609V165.822L66.7381 165.278ZM69.8542 167.942V169.463H63.0603V167.942H69.8542ZM77.0603 171.184C77.0603 170.581 76.8913 170.116 76.5531 169.789C76.227 169.451 75.774 169.282 75.1943 169.282C74.6508 169.282 74.1858 169.409 73.7993 169.663C73.4128 169.916 73.129 170.327 72.9478 170.895L71.3173 170.206C71.5467 169.469 71.9936 168.878 72.6579 168.431C73.3343 167.984 74.2039 167.76 75.2668 167.76C75.9914 167.76 76.6316 167.881 77.1872 168.123C77.7428 168.352 78.1776 168.702 78.4916 169.173C78.8177 169.645 78.9807 170.248 78.9807 170.985V175.025C78.9807 175.472 79.2042 175.696 79.6511 175.696C79.8685 175.696 80.0798 175.665 80.2852 175.605L80.1765 176.946C79.8987 177.079 79.5484 177.145 79.1257 177.145C78.7392 177.145 78.3889 177.079 78.0749 176.946C77.7729 176.801 77.5314 176.589 77.3502 176.312C77.1811 176.022 77.0966 175.665 77.0966 175.243V175.116L77.4952 175.098C77.3865 175.569 77.163 175.961 76.8248 176.275C76.4866 176.577 76.0941 176.807 75.6472 176.964C75.2003 177.109 74.7474 177.181 74.2884 177.181C73.7208 177.181 73.2075 177.091 72.7485 176.909C72.3016 176.728 71.9453 176.456 71.6796 176.094C71.426 175.72 71.2991 175.261 71.2991 174.717C71.2991 174.041 71.5166 173.485 71.9514 173.05C72.3982 172.616 73.0263 172.32 73.8355 172.163L77.3502 171.474L77.3321 172.833L74.7776 173.358C74.2703 173.455 73.8899 173.594 73.6362 173.775C73.3826 173.956 73.2558 174.222 73.2558 174.572C73.2558 174.911 73.3826 175.182 73.6362 175.388C73.902 175.581 74.2522 175.677 74.687 175.677C74.989 175.677 75.2788 175.641 75.5566 175.569C75.8465 175.496 76.1062 175.382 76.3357 175.225C76.5652 175.055 76.7403 174.844 76.8611 174.59C76.9939 174.325 77.0603 174.011 77.0603 173.648V171.184ZM82.1569 177V167.942H83.8055L83.9867 169.572C84.2283 168.98 84.5846 168.533 85.0556 168.231C85.5387 167.917 86.1305 167.76 86.8311 167.76C87.0122 167.76 87.1934 167.778 87.3746 167.815C87.5557 167.839 87.7067 167.881 87.8275 167.942L87.5557 169.645C87.4229 169.596 87.2719 169.56 87.1028 169.536C86.9458 169.5 86.7284 169.481 86.4506 169.481C86.0762 169.481 85.7078 169.584 85.3455 169.789C84.9831 169.983 84.6812 170.279 84.4396 170.677C84.2101 171.076 84.0954 171.583 84.0954 172.199V177H82.1569ZM91.8612 165.278V174.282C91.8612 174.729 91.976 175.055 92.2054 175.261C92.447 175.466 92.7671 175.569 93.1656 175.569C93.4917 175.569 93.7756 175.52 94.0171 175.424C94.2587 175.315 94.4821 175.17 94.6875 174.989L95.1223 176.402C94.8445 176.644 94.5003 176.837 94.0896 176.982C93.691 177.115 93.2441 177.181 92.7489 177.181C92.2296 177.181 91.7525 177.097 91.3177 176.928C90.8829 176.758 90.5447 176.487 90.3032 176.112C90.0616 175.726 89.9348 175.225 89.9227 174.609V165.822L91.8612 165.278ZM94.9773 167.942V169.463H88.1835V167.942H94.9773ZM110.368 167.942L106.4 178.069C106.135 178.769 105.845 179.325 105.531 179.736C105.229 180.146 104.879 180.442 104.48 180.623C104.081 180.805 103.616 180.895 103.085 180.895C102.65 180.895 102.246 180.835 101.871 180.714C101.509 180.605 101.189 180.454 100.911 180.261L101.382 178.757C101.611 178.951 101.853 179.096 102.107 179.192C102.372 179.289 102.656 179.337 102.958 179.337C103.284 179.337 103.574 179.247 103.828 179.065C104.093 178.896 104.329 178.552 104.534 178.033L104.933 177.054L103.973 174.808L101.146 167.942H103.32L105.331 173.63L105.857 175.333L106.455 173.467L108.357 167.942H110.368ZM115.9 167.76C116.782 167.76 117.561 167.948 118.237 168.322C118.913 168.696 119.439 169.24 119.813 169.952C120.2 170.653 120.393 171.492 120.393 172.471C120.393 173.449 120.2 174.295 119.813 175.007C119.439 175.708 118.913 176.245 118.237 176.62C117.561 176.994 116.782 177.181 115.9 177.181C115.018 177.181 114.239 176.994 113.563 176.62C112.886 176.245 112.355 175.708 111.969 175.007C111.582 174.295 111.389 173.449 111.389 172.471C111.389 171.492 111.582 170.653 111.969 169.952C112.355 169.24 112.886 168.696 113.563 168.322C114.239 167.948 115.018 167.76 115.9 167.76ZM115.9 169.282C115.356 169.282 114.891 169.409 114.505 169.663C114.13 169.904 113.841 170.26 113.635 170.732C113.43 171.203 113.327 171.782 113.327 172.471C113.327 173.147 113.43 173.727 113.635 174.21C113.841 174.681 114.13 175.043 114.505 175.297C114.891 175.539 115.356 175.659 115.9 175.659C116.443 175.659 116.902 175.539 117.277 175.297C117.651 175.043 117.941 174.681 118.146 174.21C118.352 173.727 118.454 173.147 118.454 172.471C118.454 171.782 118.352 171.203 118.146 170.732C117.941 170.26 117.651 169.904 117.277 169.663C116.902 169.409 116.443 169.282 115.9 169.282ZM126.056 177.181C125.465 177.181 124.915 177.072 124.408 176.855C123.913 176.638 123.514 176.287 123.212 175.804C122.91 175.321 122.759 174.693 122.759 173.92V167.942H124.698V173.431C124.698 174.252 124.873 174.82 125.223 175.134C125.573 175.436 126.062 175.587 126.691 175.587C126.993 175.587 127.282 175.539 127.56 175.442C127.85 175.333 128.11 175.17 128.339 174.953C128.569 174.723 128.744 174.433 128.865 174.083C128.997 173.733 129.064 173.322 129.064 172.851V167.942H131.002V177H129.299L129.209 175.533C128.895 176.1 128.472 176.517 127.941 176.783C127.409 177.048 126.781 177.181 126.056 177.181ZM134.031 177V167.942H135.68L135.861 169.572C136.102 168.98 136.459 168.533 136.93 168.231C137.413 167.917 138.005 167.76 138.705 167.76C138.886 167.76 139.067 167.778 139.249 167.815C139.43 167.839 139.581 167.881 139.702 167.942L139.43 169.645C139.297 169.596 139.146 169.56 138.977 169.536C138.82 169.5 138.602 169.481 138.325 169.481C137.95 169.481 137.582 169.584 137.219 169.789C136.857 169.983 136.555 170.279 136.314 170.677C136.084 171.076 135.969 171.583 135.969 172.199V177H134.031ZM150.61 163.738C150.985 163.738 151.323 163.781 151.625 163.865C151.939 163.938 152.174 164.04 152.331 164.173L151.969 165.568C151.836 165.484 151.685 165.423 151.516 165.387C151.347 165.339 151.154 165.315 150.936 165.315C150.441 165.315 150.049 165.429 149.759 165.659C149.481 165.888 149.342 166.263 149.342 166.782V168.105L149.396 168.594V177H147.458V166.637C147.458 166.178 147.524 165.767 147.657 165.405C147.802 165.043 148.013 164.741 148.291 164.499C148.569 164.246 148.901 164.058 149.288 163.938C149.686 163.805 150.127 163.738 150.61 163.738ZM152.277 167.942V169.463H145.755V167.942H152.277ZM154.023 177V167.942H155.672L155.853 169.572C156.095 168.98 156.451 168.533 156.922 168.231C157.405 167.917 157.997 167.76 158.697 167.76C158.879 167.76 159.06 167.778 159.241 167.815C159.422 167.839 159.573 167.881 159.694 167.942L159.422 169.645C159.289 169.596 159.138 169.56 158.969 169.536C158.812 169.5 158.595 169.481 158.317 169.481C157.943 169.481 157.574 169.584 157.212 169.789C156.85 169.983 156.548 170.279 156.306 170.677C156.077 171.076 155.962 171.583 155.962 172.199V177H154.023ZM165.281 177.181C164.375 177.181 163.578 176.994 162.889 176.62C162.201 176.245 161.663 175.708 161.277 175.007C160.902 174.295 160.715 173.449 160.715 172.471C160.715 171.492 160.902 170.653 161.277 169.952C161.663 169.24 162.195 168.696 162.871 168.322C163.547 167.948 164.314 167.76 165.172 167.76C166.054 167.76 166.802 167.942 167.418 168.304C168.034 168.666 168.505 169.161 168.832 169.789C169.158 170.417 169.321 171.13 169.321 171.927C169.321 172.145 169.315 172.35 169.303 172.543C169.29 172.736 169.272 172.906 169.248 173.05H161.965V171.565H168.397L167.437 171.855C167.437 171.033 167.231 170.405 166.821 169.971C166.41 169.524 165.848 169.3 165.136 169.3C164.616 169.3 164.163 169.421 163.777 169.663C163.39 169.904 163.094 170.267 162.889 170.75C162.684 171.221 162.581 171.8 162.581 172.489C162.581 173.165 162.69 173.739 162.907 174.21C163.125 174.681 163.433 175.037 163.831 175.279C164.23 175.52 164.701 175.641 165.244 175.641C165.848 175.641 166.337 175.526 166.712 175.297C167.086 175.068 167.382 174.747 167.6 174.337L169.14 175.061C168.922 175.496 168.626 175.877 168.252 176.203C167.889 176.517 167.455 176.758 166.947 176.928C166.44 177.097 165.884 177.181 165.281 177.181ZM175.754 177.181C174.849 177.181 174.051 176.994 173.363 176.62C172.675 176.245 172.137 175.708 171.751 175.007C171.376 174.295 171.189 173.449 171.189 172.471C171.189 171.492 171.376 170.653 171.751 169.952C172.137 169.24 172.669 168.696 173.345 168.322C174.021 167.948 174.788 167.76 175.646 167.76C176.527 167.76 177.276 167.942 177.892 168.304C178.508 168.666 178.979 169.161 179.305 169.789C179.631 170.417 179.795 171.13 179.795 171.927C179.795 172.145 179.789 172.35 179.776 172.543C179.764 172.736 179.746 172.906 179.722 173.05H172.439V171.565H178.871L177.91 171.855C177.91 171.033 177.705 170.405 177.294 169.971C176.884 169.524 176.322 169.3 175.61 169.3C175.09 169.3 174.637 169.421 174.251 169.663C173.864 169.904 173.568 170.267 173.363 170.75C173.158 171.221 173.055 171.8 173.055 172.489C173.055 173.165 173.164 173.739 173.381 174.21C173.599 174.681 173.907 175.037 174.305 175.279C174.704 175.52 175.175 175.641 175.718 175.641C176.322 175.641 176.811 175.526 177.186 175.297C177.56 175.068 177.856 174.747 178.073 174.337L179.613 175.061C179.396 175.496 179.1 175.877 178.726 176.203C178.363 176.517 177.928 176.758 177.421 176.928C176.914 177.097 176.358 177.181 175.754 177.181ZM192.047 167.76C192.772 167.76 193.388 167.869 193.895 168.086C194.415 168.292 194.85 168.588 195.2 168.974C195.55 169.361 195.816 169.802 195.997 170.297L194.167 171.021C194.01 170.466 193.756 170.043 193.406 169.753C193.068 169.451 192.621 169.3 192.066 169.3C191.522 169.3 191.057 169.427 190.671 169.681C190.284 169.922 189.988 170.279 189.783 170.75C189.59 171.221 189.493 171.8 189.493 172.489C189.493 173.165 189.596 173.739 189.801 174.21C190.006 174.681 190.302 175.037 190.689 175.279C191.075 175.52 191.534 175.641 192.066 175.641C192.476 175.641 192.833 175.575 193.134 175.442C193.436 175.297 193.684 175.098 193.877 174.844C194.083 174.578 194.221 174.258 194.294 173.884L196.051 174.482C195.882 175.025 195.616 175.502 195.254 175.913C194.904 176.312 194.463 176.626 193.932 176.855C193.4 177.072 192.79 177.181 192.102 177.181C191.208 177.181 190.417 176.994 189.728 176.62C189.04 176.245 188.503 175.708 188.116 175.007C187.742 174.295 187.554 173.449 187.554 172.471C187.554 171.492 187.742 170.653 188.116 169.952C188.503 169.24 189.034 168.696 189.71 168.322C190.399 167.948 191.178 167.76 192.047 167.76ZM202.239 167.76C203.12 167.76 203.899 167.948 204.576 168.322C205.252 168.696 205.778 169.24 206.152 169.952C206.538 170.653 206.732 171.492 206.732 172.471C206.732 173.449 206.538 174.295 206.152 175.007C205.778 175.708 205.252 176.245 204.576 176.62C203.899 176.994 203.12 177.181 202.239 177.181C201.357 177.181 200.578 176.994 199.902 176.62C199.225 176.245 198.694 175.708 198.307 175.007C197.921 174.295 197.728 173.449 197.728 172.471C197.728 171.492 197.921 170.653 198.307 169.952C198.694 169.24 199.225 168.696 199.902 168.322C200.578 167.948 201.357 167.76 202.239 167.76ZM202.239 169.282C201.695 169.282 201.23 169.409 200.844 169.663C200.469 169.904 200.179 170.26 199.974 170.732C199.769 171.203 199.666 171.782 199.666 172.471C199.666 173.147 199.769 173.727 199.974 174.21C200.179 174.681 200.469 175.043 200.844 175.297C201.23 175.539 201.695 175.659 202.239 175.659C202.782 175.659 203.241 175.539 203.616 175.297C203.99 175.043 204.28 174.681 204.485 174.21C204.691 173.727 204.793 173.147 204.793 172.471C204.793 171.782 204.691 171.203 204.485 170.732C204.28 170.26 203.99 169.904 203.616 169.663C203.241 169.409 202.782 169.282 202.239 169.282ZM209.17 177V167.942H210.892L211.018 170.297L210.765 170.043C210.934 169.524 211.175 169.095 211.489 168.757C211.815 168.407 212.196 168.153 212.631 167.996C213.078 167.839 213.549 167.76 214.044 167.76C214.684 167.76 215.258 167.887 215.765 168.141C216.284 168.382 216.695 168.751 216.997 169.246C217.299 169.741 217.45 170.369 217.45 171.13V177H215.511V171.728C215.511 170.834 215.324 170.218 214.95 169.88C214.587 169.53 214.128 169.355 213.573 169.355C213.174 169.355 212.788 169.451 212.413 169.645C212.039 169.826 211.725 170.122 211.471 170.532C211.23 170.943 211.109 171.492 211.109 172.181V177H209.17ZM223.83 177.181C222.924 177.181 222.096 177.006 221.348 176.656C220.599 176.306 220.007 175.81 219.572 175.17L220.913 174.011C221.178 174.506 221.559 174.904 222.054 175.206C222.561 175.496 223.165 175.641 223.866 175.641C224.421 175.641 224.862 175.545 225.188 175.351C225.514 175.158 225.678 174.886 225.678 174.536C225.678 174.307 225.599 174.107 225.442 173.938C225.297 173.757 225.013 173.618 224.591 173.522L222.688 173.123C221.722 172.93 221.034 172.622 220.623 172.199C220.212 171.764 220.007 171.215 220.007 170.55C220.007 170.055 220.152 169.596 220.442 169.173C220.732 168.751 221.154 168.413 221.71 168.159C222.278 167.893 222.954 167.76 223.739 167.76C224.645 167.76 225.418 167.923 226.058 168.249C226.698 168.564 227.187 169.016 227.525 169.608L226.185 170.732C225.955 170.248 225.617 169.892 225.17 169.663C224.723 169.421 224.258 169.3 223.775 169.3C223.389 169.3 223.057 169.349 222.779 169.445C222.501 169.542 222.29 169.675 222.145 169.844C222 170.013 221.927 170.212 221.927 170.442C221.927 170.683 222.018 170.895 222.199 171.076C222.38 171.257 222.706 171.396 223.177 171.492L225.243 171.927C226.112 172.096 226.722 172.386 227.073 172.797C227.435 173.195 227.616 173.685 227.616 174.264C227.616 174.844 227.465 175.357 227.163 175.804C226.861 176.239 226.426 176.577 225.859 176.819C225.291 177.06 224.615 177.181 223.83 177.181ZM233.201 177.181C232.61 177.181 232.06 177.072 231.553 176.855C231.058 176.638 230.659 176.287 230.357 175.804C230.055 175.321 229.904 174.693 229.904 173.92V167.942H231.843V173.431C231.843 174.252 232.018 174.82 232.368 175.134C232.718 175.436 233.207 175.587 233.836 175.587C234.137 175.587 234.427 175.539 234.705 175.442C234.995 175.333 235.255 175.17 235.484 174.953C235.714 174.723 235.889 174.433 236.01 174.083C236.142 173.733 236.209 173.322 236.209 172.851V167.942H238.147V177H236.444L236.354 175.533C236.04 176.1 235.617 176.517 235.086 176.783C234.554 177.048 233.926 177.181 233.201 177.181ZM243.06 163.865V174.464C243.06 174.911 243.139 175.218 243.296 175.388C243.453 175.557 243.712 175.641 244.075 175.641C244.292 175.641 244.473 175.629 244.618 175.605C244.775 175.569 244.968 175.508 245.198 175.424L244.98 176.873C244.775 176.97 244.54 177.042 244.274 177.091C244.008 177.151 243.742 177.181 243.477 177.181C242.668 177.181 242.07 176.976 241.683 176.565C241.309 176.142 241.122 175.496 241.122 174.627V163.865H243.06ZM249.129 165.278V174.282C249.129 174.729 249.243 175.055 249.473 175.261C249.714 175.466 250.035 175.569 250.433 175.569C250.759 175.569 251.043 175.52 251.285 175.424C251.526 175.315 251.75 175.17 251.955 174.989L252.39 176.402C252.112 176.644 251.768 176.837 251.357 176.982C250.958 177.115 250.512 177.181 250.016 177.181C249.497 177.181 249.02 177.097 248.585 176.928C248.15 176.758 247.812 176.487 247.571 176.112C247.329 175.726 247.202 175.225 247.19 174.609V165.822L249.129 165.278ZM252.245 167.942V169.463H245.451V167.942H252.245ZM259.451 171.184C259.451 170.581 259.282 170.116 258.944 169.789C258.618 169.451 258.165 169.282 257.585 169.282C257.041 169.282 256.576 169.409 256.19 169.663C255.803 169.916 255.52 170.327 255.338 170.895L253.708 170.206C253.937 169.469 254.384 168.878 255.049 168.431C255.725 167.984 256.595 167.76 257.657 167.76C258.382 167.76 259.022 167.881 259.578 168.123C260.133 168.352 260.568 168.702 260.882 169.173C261.208 169.645 261.371 170.248 261.371 170.985V175.025C261.371 175.472 261.595 175.696 262.042 175.696C262.259 175.696 262.47 175.665 262.676 175.605L262.567 176.946C262.289 177.079 261.939 177.145 261.516 177.145C261.13 177.145 260.78 177.079 260.466 176.946C260.164 176.801 259.922 176.589 259.741 176.312C259.572 176.022 259.487 175.665 259.487 175.243V175.116L259.886 175.098C259.777 175.569 259.554 175.961 259.215 176.275C258.877 176.577 258.485 176.807 258.038 176.964C257.591 177.109 257.138 177.181 256.679 177.181C256.111 177.181 255.598 177.091 255.139 176.909C254.692 176.728 254.336 176.456 254.07 176.094C253.817 175.72 253.69 175.261 253.69 174.717C253.69 174.041 253.907 173.485 254.342 173.05C254.789 172.616 255.417 172.32 256.226 172.163L259.741 171.474L259.723 172.833L257.168 173.358C256.661 173.455 256.281 173.594 256.027 173.775C255.773 173.956 255.646 174.222 255.646 174.572C255.646 174.911 255.773 175.182 256.027 175.388C256.293 175.581 256.643 175.677 257.078 175.677C257.38 175.677 257.669 175.641 257.947 175.569C258.237 175.496 258.497 175.382 258.726 175.225C258.956 175.055 259.131 174.844 259.252 174.59C259.385 174.325 259.451 174.011 259.451 173.648V171.184ZM266.839 165.278V174.282C266.839 174.729 266.953 175.055 267.183 175.261C267.425 175.466 267.745 175.569 268.143 175.569C268.469 175.569 268.753 175.52 268.995 175.424C269.236 175.315 269.46 175.17 269.665 174.989L270.1 176.402C269.822 176.644 269.478 176.837 269.067 176.982C268.669 177.115 268.222 177.181 267.726 177.181C267.207 177.181 266.73 177.097 266.295 176.928C265.86 176.758 265.522 176.487 265.281 176.112C265.039 175.726 264.912 175.225 264.9 174.609V165.822L266.839 165.278ZM269.955 167.942V169.463H263.161V167.942H269.955ZM272.85 166.42C272.428 166.42 272.102 166.317 271.872 166.112C271.655 165.894 271.546 165.592 271.546 165.206C271.546 164.819 271.655 164.523 271.872 164.318C272.102 164.113 272.428 164.01 272.85 164.01C273.261 164.01 273.575 164.113 273.793 164.318C274.022 164.523 274.137 164.819 274.137 165.206C274.137 165.592 274.022 165.894 273.793 166.112C273.575 166.317 273.261 166.42 272.85 166.42ZM273.811 167.942V177H271.872V167.942H273.811ZM280.775 167.76C281.657 167.76 282.436 167.948 283.112 168.322C283.789 168.696 284.314 169.24 284.688 169.952C285.075 170.653 285.268 171.492 285.268 172.471C285.268 173.449 285.075 174.295 284.688 175.007C284.314 175.708 283.789 176.245 283.112 176.62C282.436 176.994 281.657 177.181 280.775 177.181C279.893 177.181 279.114 176.994 278.438 176.62C277.762 176.245 277.23 175.708 276.844 175.007C276.457 174.295 276.264 173.449 276.264 172.471C276.264 171.492 276.457 170.653 276.844 169.952C277.23 169.24 277.762 168.696 278.438 168.322C279.114 167.948 279.893 167.76 280.775 167.76ZM280.775 169.282C280.232 169.282 279.767 169.409 279.38 169.663C279.006 169.904 278.716 170.26 278.51 170.732C278.305 171.203 278.202 171.782 278.202 172.471C278.202 173.147 278.305 173.727 278.51 174.21C278.716 174.681 279.006 175.043 279.38 175.297C279.767 175.539 280.232 175.659 280.775 175.659C281.319 175.659 281.778 175.539 282.152 175.297C282.526 175.043 282.816 174.681 283.022 174.21C283.227 173.727 283.33 173.147 283.33 172.471C283.33 171.782 283.227 171.203 283.022 170.732C282.816 170.26 282.526 169.904 282.152 169.663C281.778 169.409 281.319 169.282 280.775 169.282ZM287.707 177V167.942H289.428L289.555 170.297L289.301 170.043C289.47 169.524 289.712 169.095 290.026 168.757C290.352 168.407 290.732 168.153 291.167 167.996C291.614 167.839 292.085 167.76 292.58 167.76C293.22 167.76 293.794 167.887 294.301 168.141C294.821 168.382 295.231 168.751 295.533 169.246C295.835 169.741 295.986 170.369 295.986 171.13V177H294.048V171.728C294.048 170.834 293.861 170.218 293.486 169.88C293.124 169.53 292.665 169.355 292.109 169.355C291.711 169.355 291.324 169.451 290.95 169.645C290.575 169.826 290.261 170.122 290.008 170.532C289.766 170.943 289.645 171.492 289.645 172.181V177H287.707ZM66.0261 188.942H68.1277L65.084 198H62.9643L60.6816 191.279L58.5257 198H56.406L53.3805 188.942H55.4639L57.5292 196.098L59.7758 188.942H61.7143L63.9608 196.098L66.0261 188.942ZM70.9805 187.42C70.5578 187.42 70.2317 187.317 70.0022 187.112C69.7848 186.894 69.6761 186.592 69.6761 186.206C69.6761 185.819 69.7848 185.523 70.0022 185.318C70.2317 185.113 70.5578 185.01 70.9805 185.01C71.3912 185.01 71.7052 185.113 71.9226 185.318C72.1521 185.523 72.2668 185.819 72.2668 186.206C72.2668 186.592 72.1521 186.894 71.9226 187.112C71.7052 187.317 71.3912 187.42 70.9805 187.42ZM71.9407 188.942V198H70.0022V188.942H71.9407ZM77.6189 186.278V195.282C77.6189 195.729 77.7336 196.055 77.9631 196.261C78.2046 196.466 78.5247 196.569 78.9233 196.569C79.2494 196.569 79.5332 196.52 79.7748 196.424C80.0163 196.315 80.2398 196.17 80.4451 195.989L80.8799 197.402C80.6021 197.644 80.2579 197.837 79.8472 197.982C79.4487 198.115 79.0018 198.181 78.5066 198.181C77.9872 198.181 77.5102 198.097 77.0754 197.928C76.6405 197.758 76.3024 197.487 76.0608 197.112C75.8192 196.726 75.6924 196.225 75.6803 195.609V186.822L77.6189 186.278ZM80.735 188.942V190.463H73.9411V188.942H80.735ZM82.723 198V184.865H84.6616V190.391C84.9635 189.823 85.3681 189.413 85.8754 189.159C86.3947 188.893 86.9685 188.76 87.5965 188.76C88.2366 188.76 88.8103 188.887 89.3176 189.141C89.837 189.382 90.2476 189.751 90.5496 190.246C90.8515 190.741 91.0025 191.369 91.0025 192.13V198H89.064V192.746C89.064 191.852 88.8768 191.23 88.5024 190.88C88.14 190.53 87.6811 190.355 87.1255 190.355C86.739 190.355 86.3525 190.451 85.966 190.645C85.5916 190.826 85.2775 191.128 85.0239 191.55C84.7823 191.961 84.6616 192.517 84.6616 193.217V198H82.723ZM103.763 188.76C104.645 188.76 105.424 188.948 106.1 189.322C106.776 189.696 107.302 190.24 107.676 190.952C108.063 191.653 108.256 192.492 108.256 193.471C108.256 194.449 108.063 195.295 107.676 196.007C107.302 196.708 106.776 197.245 106.1 197.62C105.424 197.994 104.645 198.181 103.763 198.181C102.881 198.181 102.102 197.994 101.426 197.62C100.749 197.245 100.218 196.708 99.8316 196.007C99.4451 195.295 99.2518 194.449 99.2518 193.471C99.2518 192.492 99.4451 191.653 99.8316 190.952C100.218 190.24 100.749 189.696 101.426 189.322C102.102 188.948 102.881 188.76 103.763 188.76ZM103.763 190.282C103.219 190.282 102.754 190.409 102.368 190.663C101.994 190.904 101.704 191.26 101.498 191.732C101.293 192.203 101.19 192.782 101.19 193.471C101.19 194.147 101.293 194.727 101.498 195.21C101.704 195.681 101.994 196.043 102.368 196.297C102.754 196.539 103.219 196.659 103.763 196.659C104.306 196.659 104.765 196.539 105.14 196.297C105.514 196.043 105.804 195.681 106.009 195.21C106.215 194.727 106.317 194.147 106.317 193.471C106.317 192.782 106.215 192.203 106.009 191.732C105.804 191.26 105.514 190.904 105.14 190.663C104.765 190.409 104.306 190.282 103.763 190.282ZM113.919 198.181C113.328 198.181 112.778 198.072 112.271 197.855C111.776 197.638 111.377 197.287 111.075 196.804C110.773 196.321 110.622 195.693 110.622 194.92V188.942H112.561V194.431C112.561 195.252 112.736 195.82 113.086 196.134C113.436 196.436 113.926 196.587 114.554 196.587C114.856 196.587 115.145 196.539 115.423 196.442C115.713 196.333 115.973 196.17 116.202 195.953C116.432 195.723 116.607 195.433 116.728 195.083C116.86 194.733 116.927 194.322 116.927 193.851V188.942H118.865V198H117.162L117.072 196.533C116.758 197.1 116.335 197.517 115.804 197.783C115.272 198.048 114.644 198.181 113.919 198.181ZM121.894 198V188.942H123.543L123.724 190.572C123.965 189.98 124.322 189.533 124.793 189.231C125.276 188.917 125.868 188.76 126.568 188.76C126.749 188.76 126.93 188.778 127.112 188.815C127.293 188.839 127.444 188.881 127.565 188.942L127.293 190.645C127.16 190.596 127.009 190.56 126.84 190.536C126.683 190.5 126.465 190.481 126.188 190.481C125.813 190.481 125.445 190.584 125.083 190.789C124.72 190.983 124.418 191.279 124.177 191.677C123.947 192.076 123.832 192.583 123.832 193.199V198H121.894ZM138.376 198.181C137.627 198.181 136.945 197.994 136.329 197.62C135.725 197.245 135.248 196.708 134.898 196.007C134.548 195.307 134.372 194.467 134.372 193.489C134.372 192.474 134.56 191.617 134.934 190.916C135.308 190.216 135.81 189.684 136.438 189.322C137.066 188.948 137.754 188.76 138.503 188.76C139.276 188.76 139.928 188.972 140.46 189.394C140.991 189.817 141.347 190.367 141.529 191.043L141.311 191.242V184.865H143.25V198H141.529L141.384 195.536L141.637 195.554C141.553 196.098 141.354 196.569 141.039 196.967C140.725 197.354 140.333 197.656 139.862 197.873C139.403 198.079 138.908 198.181 138.376 198.181ZM138.793 196.623C139.312 196.623 139.759 196.49 140.134 196.225C140.508 195.959 140.798 195.584 141.003 195.101C141.209 194.618 141.311 194.038 141.311 193.362C141.311 192.734 141.209 192.197 141.003 191.75C140.798 191.291 140.508 190.94 140.134 190.699C139.771 190.457 139.349 190.337 138.865 190.337C138.056 190.337 137.428 190.614 136.981 191.17C136.534 191.725 136.311 192.492 136.311 193.471C136.311 194.449 136.528 195.222 136.963 195.79C137.398 196.345 138.008 196.623 138.793 196.623ZM150.242 198.181C149.336 198.181 148.539 197.994 147.851 197.62C147.162 197.245 146.625 196.708 146.238 196.007C145.864 195.295 145.677 194.449 145.677 193.471C145.677 192.492 145.864 191.653 146.238 190.952C146.625 190.24 147.156 189.696 147.833 189.322C148.509 188.948 149.276 188.76 150.133 188.76C151.015 188.76 151.764 188.942 152.38 189.304C152.996 189.666 153.467 190.161 153.793 190.789C154.119 191.417 154.282 192.13 154.282 192.927C154.282 193.145 154.276 193.35 154.264 193.543C154.252 193.736 154.234 193.906 154.21 194.05H146.927V192.565H153.358L152.398 192.855C152.398 192.033 152.193 191.405 151.782 190.971C151.371 190.524 150.81 190.3 150.097 190.3C149.578 190.3 149.125 190.421 148.738 190.663C148.352 190.904 148.056 191.267 147.851 191.75C147.645 192.221 147.543 192.8 147.543 193.489C147.543 194.165 147.651 194.739 147.869 195.21C148.086 195.681 148.394 196.037 148.793 196.279C149.191 196.52 149.662 196.641 150.206 196.641C150.81 196.641 151.299 196.526 151.673 196.297C152.048 196.068 152.344 195.747 152.561 195.337L154.101 196.061C153.884 196.496 153.588 196.877 153.213 197.203C152.851 197.517 152.416 197.758 151.909 197.928C151.402 198.097 150.846 198.181 150.242 198.181ZM160.172 198.181C159.267 198.181 158.439 198.006 157.69 197.656C156.942 197.306 156.35 196.81 155.915 196.17L157.256 195.011C157.521 195.506 157.902 195.904 158.397 196.206C158.904 196.496 159.508 196.641 160.209 196.641C160.764 196.641 161.205 196.545 161.531 196.351C161.857 196.158 162.02 195.886 162.02 195.536C162.02 195.307 161.942 195.107 161.785 194.938C161.64 194.757 161.356 194.618 160.933 194.522L159.031 194.123C158.065 193.93 157.376 193.622 156.966 193.199C156.555 192.764 156.35 192.215 156.35 191.55C156.35 191.055 156.495 190.596 156.785 190.173C157.074 189.751 157.497 189.413 158.053 189.159C158.62 188.893 159.297 188.76 160.082 188.76C160.988 188.76 161.761 188.923 162.401 189.249C163.041 189.564 163.53 190.016 163.868 190.608L162.528 191.732C162.298 191.248 161.96 190.892 161.513 190.663C161.066 190.421 160.601 190.3 160.118 190.3C159.732 190.3 159.399 190.349 159.122 190.445C158.844 190.542 158.633 190.675 158.488 190.844C158.343 191.013 158.27 191.212 158.27 191.442C158.27 191.683 158.361 191.895 158.542 192.076C158.723 192.257 159.049 192.396 159.52 192.492L161.586 192.927C162.455 193.096 163.065 193.386 163.415 193.797C163.778 194.195 163.959 194.685 163.959 195.264C163.959 195.844 163.808 196.357 163.506 196.804C163.204 197.239 162.769 197.577 162.202 197.819C161.634 198.06 160.958 198.181 160.172 198.181ZM167.298 187.42C166.875 187.42 166.549 187.317 166.319 187.112C166.102 186.894 165.993 186.592 165.993 186.206C165.993 185.819 166.102 185.523 166.319 185.318C166.549 185.113 166.875 185.01 167.298 185.01C167.708 185.01 168.022 185.113 168.24 185.318C168.469 185.523 168.584 185.819 168.584 186.206C168.584 186.592 168.469 186.894 168.24 187.112C168.022 187.317 167.708 187.42 167.298 187.42ZM168.258 188.942V198H166.319V188.942H168.258ZM179.263 187.039L179.57 188.561C179.534 188.561 179.498 188.561 179.462 188.561C179.426 188.549 179.389 188.543 179.353 188.543C178.773 188.543 178.333 188.67 178.031 188.923C177.729 189.165 177.578 189.521 177.578 189.992L176.636 189.557C176.636 189.074 176.738 188.646 176.944 188.271C177.149 187.885 177.439 187.583 177.813 187.365C178.2 187.148 178.634 187.039 179.118 187.039C179.142 187.039 179.166 187.039 179.19 187.039C179.214 187.039 179.238 187.039 179.263 187.039ZM176.4 196.587C177.318 196.587 178.031 196.792 178.538 197.203C179.045 197.601 179.299 198.157 179.299 198.87C179.299 199.498 179.099 200.035 178.701 200.482C178.302 200.941 177.759 201.291 177.07 201.533C176.394 201.774 175.615 201.895 174.733 201.895C173.248 201.895 172.149 201.666 171.436 201.207C170.723 200.748 170.367 200.174 170.367 199.486C170.367 199.002 170.536 198.58 170.874 198.217C171.225 197.855 171.81 197.65 172.632 197.601L172.523 197.891C172.016 197.783 171.605 197.589 171.291 197.312C170.989 197.022 170.838 196.617 170.838 196.098C170.838 195.578 171.037 195.138 171.436 194.775C171.835 194.413 172.396 194.201 173.121 194.141L174.135 194.63H173.918C173.362 194.679 172.97 194.805 172.74 195.011C172.511 195.216 172.396 195.446 172.396 195.699C172.396 196.001 172.505 196.225 172.722 196.369C172.952 196.514 173.272 196.587 173.682 196.587H176.4ZM174.733 200.446C175.398 200.446 175.941 200.379 176.364 200.247C176.799 200.126 177.119 199.963 177.324 199.757C177.541 199.564 177.65 199.347 177.65 199.105C177.65 198.827 177.535 198.604 177.306 198.435C177.088 198.266 176.69 198.181 176.11 198.181H173.193C172.855 198.181 172.571 198.266 172.342 198.435C172.112 198.616 171.998 198.858 171.998 199.159C171.998 199.558 172.239 199.872 172.722 200.102C173.205 200.331 173.876 200.446 174.733 200.446ZM174.661 188.76C175.458 188.76 176.146 188.887 176.726 189.141C177.318 189.394 177.771 189.751 178.085 190.21C178.411 190.669 178.574 191.206 178.574 191.822C178.574 192.438 178.411 192.976 178.085 193.435C177.771 193.893 177.318 194.25 176.726 194.503C176.146 194.757 175.458 194.884 174.661 194.884C173.405 194.884 172.438 194.606 171.762 194.05C171.098 193.483 170.766 192.74 170.766 191.822C170.766 191.206 170.929 190.669 171.255 190.21C171.581 189.751 172.034 189.394 172.614 189.141C173.205 188.887 173.888 188.76 174.661 188.76ZM174.661 190.119C174.105 190.119 173.64 190.276 173.266 190.59C172.903 190.892 172.722 191.303 172.722 191.822C172.722 192.341 172.903 192.758 173.266 193.072C173.64 193.386 174.105 193.543 174.661 193.543C175.228 193.543 175.693 193.386 176.056 193.072C176.43 192.758 176.617 192.341 176.617 191.822C176.617 191.303 176.43 190.892 176.056 190.59C175.693 190.276 175.228 190.119 174.661 190.119ZM181.075 198V188.942H182.796L182.923 191.297L182.669 191.043C182.838 190.524 183.08 190.095 183.394 189.757C183.72 189.407 184.1 189.153 184.535 188.996C184.982 188.839 185.453 188.76 185.948 188.76C186.589 188.76 187.162 188.887 187.669 189.141C188.189 189.382 188.6 189.751 188.901 190.246C189.203 190.741 189.354 191.369 189.354 192.13V198H187.416V192.728C187.416 191.834 187.229 191.218 186.854 190.88C186.492 190.53 186.033 190.355 185.477 190.355C185.079 190.355 184.692 190.451 184.318 190.645C183.943 190.826 183.629 191.122 183.376 191.532C183.134 191.943 183.013 192.492 183.013 193.181V198H181.075ZM196.278 198.181C195.372 198.181 194.575 197.994 193.886 197.62C193.198 197.245 192.66 196.708 192.274 196.007C191.899 195.295 191.712 194.449 191.712 193.471C191.712 192.492 191.899 191.653 192.274 190.952C192.66 190.24 193.192 189.696 193.868 189.322C194.544 188.948 195.311 188.76 196.169 188.76C197.051 188.76 197.799 188.942 198.415 189.304C199.031 189.666 199.502 190.161 199.829 190.789C200.155 191.417 200.318 192.13 200.318 192.927C200.318 193.145 200.312 193.35 200.3 193.543C200.288 193.736 200.269 193.906 200.245 194.05H192.962V192.565H199.394L198.434 192.855C198.434 192.033 198.228 191.405 197.818 190.971C197.407 190.524 196.845 190.3 196.133 190.3C195.613 190.3 195.16 190.421 194.774 190.663C194.387 190.904 194.091 191.267 193.886 191.75C193.681 192.221 193.578 192.8 193.578 193.489C193.578 194.165 193.687 194.739 193.904 195.21C194.122 195.681 194.43 196.037 194.828 196.279C195.227 196.52 195.698 196.641 196.241 196.641C196.845 196.641 197.334 196.526 197.709 196.297C198.083 196.068 198.379 195.747 198.597 195.337L200.137 196.061C199.919 196.496 199.623 196.877 199.249 197.203C198.886 197.517 198.452 197.758 197.944 197.928C197.437 198.097 196.882 198.181 196.278 198.181ZM202.766 198V188.942H204.414L204.596 190.572C204.837 189.98 205.193 189.533 205.664 189.231C206.148 188.917 206.739 188.76 207.44 188.76C207.621 188.76 207.802 188.778 207.983 188.815C208.165 188.839 208.316 188.881 208.436 188.942L208.165 190.645C208.032 190.596 207.881 190.56 207.712 190.536C207.555 190.5 207.337 190.481 207.059 190.481C206.685 190.481 206.317 190.584 205.954 190.789C205.592 190.983 205.29 191.279 205.049 191.677C204.819 192.076 204.704 192.583 204.704 193.199V198H202.766ZM218.132 186.278V195.282C218.132 195.729 218.246 196.055 218.476 196.261C218.717 196.466 219.038 196.569 219.436 196.569C219.762 196.569 220.046 196.52 220.288 196.424C220.529 196.315 220.753 196.17 220.958 195.989L221.393 197.402C221.115 197.644 220.771 197.837 220.36 197.982C219.961 198.115 219.515 198.181 219.019 198.181C218.5 198.181 218.023 198.097 217.588 197.928C217.153 197.758 216.815 197.487 216.574 197.112C216.332 196.726 216.205 196.225 216.193 195.609V186.822L218.132 186.278ZM221.248 188.942V190.463H214.454V188.942H221.248ZM227.096 188.76C227.978 188.76 228.757 188.948 229.434 189.322C230.11 189.696 230.635 190.24 231.01 190.952C231.396 191.653 231.589 192.492 231.589 193.471C231.589 194.449 231.396 195.295 231.01 196.007C230.635 196.708 230.11 197.245 229.434 197.62C228.757 197.994 227.978 198.181 227.096 198.181C226.215 198.181 225.436 197.994 224.759 197.62C224.083 197.245 223.552 196.708 223.165 196.007C222.779 195.295 222.585 194.449 222.585 193.471C222.585 192.492 222.779 191.653 223.165 190.952C223.552 190.24 224.083 189.696 224.759 189.322C225.436 188.948 226.215 188.76 227.096 188.76ZM227.096 190.282C226.553 190.282 226.088 190.409 225.701 190.663C225.327 190.904 225.037 191.26 224.832 191.732C224.626 192.203 224.524 192.782 224.524 193.471C224.524 194.147 224.626 194.727 224.832 195.21C225.037 195.681 225.327 196.043 225.701 196.297C226.088 196.539 226.553 196.659 227.096 196.659C227.64 196.659 228.099 196.539 228.473 196.297C228.848 196.043 229.138 195.681 229.343 195.21C229.548 194.727 229.651 194.147 229.651 193.471C229.651 192.782 229.548 192.203 229.343 191.732C229.138 191.26 228.848 190.904 228.473 190.663C228.099 190.409 227.64 190.282 227.096 190.282ZM237.507 198.181C236.758 198.181 236.075 197.994 235.459 197.62C234.856 197.245 234.378 196.708 234.028 196.007C233.678 195.307 233.503 194.467 233.503 193.489C233.503 192.474 233.69 191.617 234.064 190.916C234.439 190.216 234.94 189.684 235.568 189.322C236.196 188.948 236.885 188.76 237.633 188.76C238.406 188.76 239.059 188.972 239.59 189.394C240.122 189.817 240.478 190.367 240.659 191.043L240.442 191.242V184.865H242.38V198H240.659L240.514 195.536L240.768 195.554C240.683 196.098 240.484 196.569 240.17 196.967C239.856 197.354 239.463 197.656 238.992 197.873C238.533 198.079 238.038 198.181 237.507 198.181ZM237.923 196.623C238.443 196.623 238.89 196.49 239.264 196.225C239.638 195.959 239.928 195.584 240.134 195.101C240.339 194.618 240.442 194.038 240.442 193.362C240.442 192.734 240.339 192.197 240.134 191.75C239.928 191.291 239.638 190.94 239.264 190.699C238.902 190.457 238.479 190.337 237.996 190.337C237.187 190.337 236.559 190.614 236.112 191.17C235.665 191.725 235.441 192.492 235.441 193.471C235.441 194.449 235.659 195.222 236.094 195.79C236.528 196.345 237.138 196.623 237.923 196.623ZM250.622 192.184C250.622 191.581 250.453 191.116 250.115 190.789C249.789 190.451 249.336 190.282 248.756 190.282C248.213 190.282 247.748 190.409 247.361 190.663C246.975 190.916 246.691 191.327 246.51 191.895L244.879 191.206C245.109 190.469 245.556 189.878 246.22 189.431C246.896 188.984 247.766 188.76 248.829 188.76C249.554 188.76 250.194 188.881 250.749 189.123C251.305 189.352 251.74 189.702 252.054 190.173C252.38 190.645 252.543 191.248 252.543 191.985V196.025C252.543 196.472 252.766 196.696 253.213 196.696C253.431 196.696 253.642 196.665 253.847 196.605L253.739 197.946C253.461 198.079 253.111 198.145 252.688 198.145C252.301 198.145 251.951 198.079 251.637 197.946C251.335 197.801 251.094 197.589 250.912 197.312C250.743 197.022 250.659 196.665 250.659 196.243V196.116L251.057 196.098C250.949 196.569 250.725 196.961 250.387 197.275C250.049 197.577 249.656 197.807 249.209 197.964C248.762 198.109 248.31 198.181 247.851 198.181C247.283 198.181 246.77 198.091 246.311 197.909C245.864 197.728 245.507 197.456 245.242 197.094C244.988 196.72 244.861 196.261 244.861 195.717C244.861 195.041 245.079 194.485 245.513 194.05C245.96 193.616 246.588 193.32 247.398 193.163L250.912 192.474L250.894 193.833L248.34 194.358C247.832 194.455 247.452 194.594 247.198 194.775C246.945 194.956 246.818 195.222 246.818 195.572C246.818 195.911 246.945 196.182 247.198 196.388C247.464 196.581 247.814 196.677 248.249 196.677C248.551 196.677 248.841 196.641 249.119 196.569C249.409 196.496 249.668 196.382 249.898 196.225C250.127 196.055 250.302 195.844 250.423 195.59C250.556 195.325 250.622 195.011 250.622 194.648V192.184ZM263.124 188.942L259.156 199.069C258.891 199.769 258.601 200.325 258.287 200.736C257.985 201.146 257.634 201.442 257.236 201.623C256.837 201.805 256.372 201.895 255.841 201.895C255.406 201.895 255.001 201.835 254.627 201.714C254.265 201.605 253.945 201.454 253.667 201.261L254.138 199.757C254.367 199.951 254.609 200.096 254.863 200.192C255.128 200.289 255.412 200.337 255.714 200.337C256.04 200.337 256.33 200.247 256.584 200.065C256.849 199.896 257.085 199.552 257.29 199.033L257.689 198.054L256.729 195.808L253.902 188.942H256.076L258.087 194.63L258.613 196.333L259.211 194.467L261.113 188.942H263.124Z" fill="#565656"/>
<rect x="54" y="224" width="170" height="46" rx="23" stroke="black" stroke-width="2"/>
<path d="M83.6638 254.18C82.5358 254.18 81.5578 253.934 80.7298 253.442C79.9138 252.938 79.2778 252.23 78.8218 251.318C78.3778 250.406 78.1558 249.32 78.1558 248.06C78.1558 246.8 78.3898 245.714 78.8578 244.802C79.3378 243.89 80.0038 243.188 80.8558 242.696C81.7078 242.192 82.6858 241.94 83.7898 241.94C84.9658 241.94 85.9198 242.162 86.6518 242.606C87.3958 243.05 87.9958 243.734 88.4518 244.658L87.1378 245.378C86.8738 244.694 86.4538 244.178 85.8778 243.83C85.3138 243.47 84.6178 243.29 83.7898 243.29C82.9858 243.29 82.2718 243.482 81.6478 243.866C81.0358 244.238 80.5498 244.784 80.1898 245.504C79.8418 246.212 79.6678 247.064 79.6678 248.06C79.6678 249.056 79.8178 249.914 80.1178 250.634C80.4298 251.342 80.8858 251.888 81.4858 252.272C82.0978 252.644 82.8418 252.83 83.7178 252.83C84.2098 252.83 84.6658 252.77 85.0858 252.65C85.5178 252.518 85.8898 252.326 86.2018 252.074C86.5258 251.822 86.7778 251.504 86.9578 251.12C87.1378 250.736 87.2278 250.286 87.2278 249.77V249.356H83.4478V248.006H88.5418V254H87.4078L87.3358 251.786L87.6418 251.84C87.3298 252.584 86.8378 253.16 86.1658 253.568C85.4938 253.976 84.6598 254.18 83.6638 254.18ZM94.5832 254.18C93.7312 254.18 92.9692 253.994 92.2972 253.622C91.6372 253.25 91.1212 252.716 90.7492 252.02C90.3772 251.312 90.1912 250.472 90.1912 249.5C90.1912 248.528 90.3772 247.694 90.7492 246.998C91.1212 246.29 91.6312 245.75 92.2792 245.378C92.9272 245.006 93.6652 244.82 94.4932 244.82C95.3332 244.82 96.0472 245 96.6352 245.36C97.2352 245.72 97.6912 246.212 98.0032 246.836C98.3152 247.448 98.4712 248.138 98.4712 248.906C98.4712 249.11 98.4652 249.296 98.4532 249.464C98.4412 249.632 98.4232 249.782 98.3992 249.914H91.1272V248.636H97.7692L97.0312 248.78C97.0312 247.916 96.7912 247.25 96.3112 246.782C95.8432 246.314 95.2252 246.08 94.4572 246.08C93.8692 246.08 93.3592 246.218 92.9272 246.494C92.5072 246.758 92.1772 247.148 91.9372 247.664C91.7092 248.168 91.5952 248.78 91.5952 249.5C91.5952 250.208 91.7152 250.82 91.9552 251.336C92.1952 251.852 92.5312 252.248 92.9632 252.524C93.4072 252.788 93.9352 252.92 94.5472 252.92C95.2072 252.92 95.7412 252.794 96.1492 252.542C96.5692 252.29 96.9052 251.948 97.1572 251.516L98.2912 252.182C98.0632 252.59 97.7692 252.944 97.4092 253.244C97.0612 253.544 96.6472 253.778 96.1672 253.946C95.6992 254.102 95.1712 254.18 94.5832 254.18ZM102.26 242.444V251.516C102.26 251.96 102.386 252.29 102.638 252.506C102.89 252.722 103.214 252.83 103.61 252.83C103.958 252.83 104.258 252.77 104.51 252.65C104.762 252.53 104.99 252.368 105.194 252.164L105.698 253.37C105.422 253.622 105.092 253.82 104.708 253.964C104.336 254.108 103.904 254.18 103.412 254.18C102.956 254.18 102.53 254.102 102.134 253.946C101.738 253.778 101.42 253.52 101.18 253.172C100.952 252.812 100.832 252.344 100.82 251.768V242.84L102.26 242.444ZM105.536 245V246.242H99.0202V245H105.536ZM117.448 248.186C117.448 247.514 117.268 246.998 116.908 246.638C116.548 246.266 116.038 246.08 115.378 246.08C114.754 246.08 114.226 246.218 113.794 246.494C113.362 246.758 113.044 247.19 112.84 247.79L111.67 247.07C111.91 246.398 112.354 245.858 113.002 245.45C113.65 245.03 114.454 244.82 115.414 244.82C116.062 244.82 116.65 244.934 117.178 245.162C117.706 245.378 118.12 245.714 118.42 246.17C118.732 246.614 118.888 247.19 118.888 247.898V252.254C118.888 252.686 119.116 252.902 119.572 252.902C119.8 252.902 120.022 252.872 120.238 252.812L120.166 253.946C119.926 254.066 119.614 254.126 119.23 254.126C118.882 254.126 118.57 254.06 118.294 253.928C118.018 253.796 117.802 253.598 117.646 253.334C117.49 253.058 117.412 252.716 117.412 252.308V252.128L117.772 252.182C117.628 252.65 117.382 253.034 117.034 253.334C116.686 253.622 116.296 253.838 115.864 253.982C115.432 254.114 115.006 254.18 114.586 254.18C114.058 254.18 113.566 254.09 113.11 253.91C112.654 253.73 112.288 253.46 112.012 253.1C111.748 252.728 111.616 252.272 111.616 251.732C111.616 251.06 111.838 250.508 112.282 250.076C112.738 249.632 113.368 249.332 114.172 249.176L117.736 248.474V249.662L114.838 250.256C114.25 250.376 113.812 250.544 113.524 250.76C113.236 250.976 113.092 251.276 113.092 251.66C113.092 252.032 113.236 252.338 113.524 252.578C113.824 252.806 114.244 252.92 114.784 252.92C115.132 252.92 115.462 252.878 115.774 252.794C116.098 252.698 116.386 252.56 116.638 252.38C116.89 252.188 117.088 251.954 117.232 251.678C117.376 251.39 117.448 251.054 117.448 250.67V248.186ZM132.978 257.78V251.534L133.23 251.714C133.146 252.242 132.942 252.692 132.618 253.064C132.306 253.424 131.916 253.7 131.448 253.892C130.992 254.084 130.506 254.18 129.99 254.18C129.246 254.18 128.562 253.994 127.938 253.622C127.314 253.25 126.816 252.716 126.444 252.02C126.072 251.312 125.886 250.472 125.886 249.5C125.886 248.504 126.084 247.658 126.48 246.962C126.876 246.266 127.398 245.738 128.046 245.378C128.694 245.006 129.39 244.82 130.134 244.82C130.638 244.82 131.106 244.916 131.538 245.108C131.97 245.288 132.336 245.552 132.636 245.9C132.948 246.236 133.152 246.638 133.248 247.106H133.032L133.158 245H134.418V257.78H132.978ZM130.134 252.92C130.698 252.92 131.19 252.782 131.61 252.506C132.042 252.218 132.378 251.816 132.618 251.3C132.858 250.772 132.978 250.154 132.978 249.446C132.978 248.726 132.858 248.12 132.618 247.628C132.39 247.124 132.066 246.74 131.646 246.476C131.226 246.212 130.734 246.08 130.17 246.08C129.282 246.08 128.586 246.392 128.082 247.016C127.578 247.64 127.326 248.468 127.326 249.5C127.326 250.532 127.572 251.36 128.064 251.984C128.556 252.608 129.246 252.92 130.134 252.92ZM140.213 254.18C139.637 254.18 139.091 254.072 138.575 253.856C138.071 253.64 137.657 253.292 137.333 252.812C137.021 252.32 136.865 251.684 136.865 250.904V245H138.305V250.526C138.305 251.438 138.503 252.068 138.899 252.416C139.295 252.752 139.853 252.92 140.573 252.92C140.909 252.92 141.239 252.866 141.563 252.758C141.887 252.638 142.175 252.458 142.427 252.218C142.691 251.966 142.895 251.648 143.039 251.264C143.195 250.88 143.273 250.424 143.273 249.896V245H144.713V254H143.453L143.363 252.632C143.051 253.172 142.625 253.568 142.085 253.82C141.557 254.06 140.933 254.18 140.213 254.18ZM150.981 244.82C151.833 244.82 152.583 245.006 153.231 245.378C153.891 245.75 154.407 246.29 154.779 246.998C155.151 247.694 155.337 248.528 155.337 249.5C155.337 250.472 155.151 251.312 154.779 252.02C154.407 252.716 153.891 253.25 153.231 253.622C152.583 253.994 151.833 254.18 150.981 254.18C150.141 254.18 149.391 253.994 148.731 253.622C148.071 253.25 147.555 252.716 147.183 252.02C146.811 251.312 146.625 250.472 146.625 249.5C146.625 248.528 146.811 247.694 147.183 246.998C147.555 246.29 148.071 245.75 148.731 245.378C149.391 245.006 150.141 244.82 150.981 244.82ZM150.981 246.062C150.369 246.062 149.847 246.2 149.415 246.476C148.983 246.752 148.647 247.148 148.407 247.664C148.179 248.168 148.065 248.78 148.065 249.5C148.065 250.208 148.179 250.82 148.407 251.336C148.647 251.852 148.983 252.248 149.415 252.524C149.847 252.8 150.369 252.938 150.981 252.938C151.593 252.938 152.115 252.8 152.547 252.524C152.979 252.248 153.309 251.852 153.537 251.336C153.777 250.82 153.897 250.208 153.897 249.5C153.897 248.78 153.777 248.168 153.537 247.664C153.309 247.148 152.979 246.752 152.547 246.476C152.115 246.2 151.593 246.062 150.981 246.062ZM159.203 242.444V251.516C159.203 251.96 159.329 252.29 159.581 252.506C159.833 252.722 160.157 252.83 160.553 252.83C160.901 252.83 161.201 252.77 161.453 252.65C161.705 252.53 161.933 252.368 162.137 252.164L162.641 253.37C162.365 253.622 162.035 253.82 161.651 253.964C161.279 254.108 160.847 254.18 160.355 254.18C159.899 254.18 159.473 254.102 159.077 253.946C158.681 253.778 158.363 253.52 158.123 253.172C157.895 252.812 157.775 252.344 157.763 251.768V242.84L159.203 242.444ZM162.479 245V246.242H155.963V245H162.479ZM169.066 248.186C169.066 247.514 168.886 246.998 168.526 246.638C168.166 246.266 167.656 246.08 166.996 246.08C166.372 246.08 165.844 246.218 165.412 246.494C164.98 246.758 164.662 247.19 164.458 247.79L163.288 247.07C163.528 246.398 163.972 245.858 164.62 245.45C165.268 245.03 166.072 244.82 167.032 244.82C167.68 244.82 168.268 244.934 168.796 245.162C169.324 245.378 169.738 245.714 170.038 246.17C170.35 246.614 170.506 247.19 170.506 247.898V252.254C170.506 252.686 170.734 252.902 171.19 252.902C171.418 252.902 171.64 252.872 171.856 252.812L171.784 253.946C171.544 254.066 171.232 254.126 170.848 254.126C170.5 254.126 170.188 254.06 169.912 253.928C169.636 253.796 169.42 253.598 169.264 253.334C169.108 253.058 169.03 252.716 169.03 252.308V252.128L169.39 252.182C169.246 252.65 169 253.034 168.652 253.334C168.304 253.622 167.914 253.838 167.482 253.982C167.05 254.114 166.624 254.18 166.204 254.18C165.676 254.18 165.184 254.09 164.728 253.91C164.272 253.73 163.906 253.46 163.63 253.1C163.366 252.728 163.234 252.272 163.234 251.732C163.234 251.06 163.456 250.508 163.9 250.076C164.356 249.632 164.986 249.332 165.79 249.176L169.354 248.474V249.662L166.456 250.256C165.868 250.376 165.43 250.544 165.142 250.76C164.854 250.976 164.71 251.276 164.71 251.66C164.71 252.032 164.854 252.338 165.142 252.578C165.442 252.806 165.862 252.92 166.402 252.92C166.75 252.92 167.08 252.878 167.392 252.794C167.716 252.698 168.004 252.56 168.256 252.38C168.508 252.188 168.706 251.954 168.85 251.678C168.994 251.39 169.066 251.054 169.066 250.67V248.186ZM174.968 242.444V251.516C174.968 251.96 175.094 252.29 175.346 252.506C175.598 252.722 175.922 252.83 176.318 252.83C176.666 252.83 176.966 252.77 177.218 252.65C177.47 252.53 177.698 252.368 177.902 252.164L178.406 253.37C178.13 253.622 177.8 253.82 177.416 253.964C177.044 254.108 176.612 254.18 176.12 254.18C175.664 254.18 175.238 254.102 174.842 253.946C174.446 253.778 174.128 253.52 173.888 253.172C173.66 252.812 173.54 252.344 173.528 251.768V242.84L174.968 242.444ZM178.244 245V246.242H171.728V245H178.244ZM180.295 243.272C179.971 243.272 179.707 243.176 179.503 242.984C179.311 242.78 179.215 242.516 179.215 242.192C179.215 241.868 179.311 241.61 179.503 241.418C179.707 241.214 179.971 241.112 180.295 241.112C180.619 241.112 180.877 241.214 181.069 241.418C181.273 241.61 181.375 241.868 181.375 242.192C181.375 242.516 181.273 242.78 181.069 242.984C180.877 243.176 180.619 243.272 180.295 243.272ZM181.015 245V254H179.575V245H181.015ZM187.272 244.82C188.124 244.82 188.874 245.006 189.522 245.378C190.182 245.75 190.698 246.29 191.07 246.998C191.442 247.694 191.628 248.528 191.628 249.5C191.628 250.472 191.442 251.312 191.07 252.02C190.698 252.716 190.182 253.25 189.522 253.622C188.874 253.994 188.124 254.18 187.272 254.18C186.432 254.18 185.682 253.994 185.022 253.622C184.362 253.25 183.846 252.716 183.474 252.02C183.102 251.312 182.916 250.472 182.916 249.5C182.916 248.528 183.102 247.694 183.474 246.998C183.846 246.29 184.362 245.75 185.022 245.378C185.682 245.006 186.432 244.82 187.272 244.82ZM187.272 246.062C186.66 246.062 186.138 246.2 185.706 246.476C185.274 246.752 184.938 247.148 184.698 247.664C184.47 248.168 184.356 248.78 184.356 249.5C184.356 250.208 184.47 250.82 184.698 251.336C184.938 251.852 185.274 252.248 185.706 252.524C186.138 252.8 186.66 252.938 187.272 252.938C187.884 252.938 188.406 252.8 188.838 252.524C189.27 252.248 189.6 251.852 189.828 251.336C190.068 250.82 190.188 250.208 190.188 249.5C190.188 248.78 190.068 248.168 189.828 247.664C189.6 247.148 189.27 246.752 188.838 246.476C188.406 246.2 187.884 246.062 187.272 246.062ZM193.529 254V245H194.789L194.915 247.016L194.681 246.818C194.873 246.338 195.131 245.954 195.455 245.666C195.779 245.366 196.151 245.15 196.571 245.018C197.003 244.886 197.447 244.82 197.903 244.82C198.551 244.82 199.139 244.946 199.667 245.198C200.195 245.438 200.615 245.81 200.927 246.314C201.251 246.818 201.413 247.46 201.413 248.24V254H199.973V248.744C199.973 247.748 199.757 247.058 199.325 246.674C198.905 246.278 198.383 246.08 197.759 246.08C197.327 246.08 196.895 246.182 196.463 246.386C196.031 246.59 195.671 246.92 195.383 247.376C195.107 247.832 194.969 248.444 194.969 249.212V254H193.529Z" fill="black"/>
</svg>
