<svg width="940" height="320" viewBox="0 0 940 320" fill="none" xmlns="http://www.w3.org/2000/svg">
<path d="M346.374 162.446C348.446 162.446 350.265 162.803 351.831 163.517C353.397 164.23 354.732 165.29 355.838 166.694L353.178 169.768C352.234 168.571 351.198 167.696 350.07 167.143C348.964 166.568 347.675 166.28 346.201 166.28C345.234 166.28 344.428 166.406 343.783 166.66C343.162 166.913 342.701 167.247 342.402 167.661C342.125 168.076 341.987 168.536 341.987 169.043C341.987 169.665 342.229 170.194 342.713 170.632C343.196 171.046 344.025 171.392 345.199 171.668L349.448 172.635C351.704 173.142 353.316 173.902 354.283 174.915C355.274 175.905 355.769 177.194 355.769 178.783C355.769 180.28 355.377 181.569 354.594 182.652C353.811 183.711 352.718 184.528 351.313 185.104C349.908 185.657 348.297 185.933 346.477 185.933C344.889 185.933 343.426 185.749 342.091 185.38C340.778 184.989 339.604 184.459 338.568 183.791C337.532 183.124 336.668 182.352 335.977 181.477L338.671 178.265C339.201 179.002 339.857 179.658 340.64 180.234C341.423 180.81 342.31 181.27 343.3 181.615C344.313 181.938 345.372 182.099 346.477 182.099C347.422 182.099 348.216 181.995 348.861 181.788C349.528 181.558 350.024 181.247 350.346 180.856C350.691 180.441 350.864 179.946 350.864 179.37C350.864 178.772 350.657 178.265 350.242 177.851C349.851 177.413 349.114 177.079 348.032 176.849L343.403 175.813C342.068 175.49 340.917 175.076 339.949 174.569C339.005 174.04 338.28 173.372 337.773 172.566C337.29 171.737 337.048 170.758 337.048 169.63C337.048 168.272 337.417 167.051 338.153 165.969C338.89 164.887 339.949 164.035 341.331 163.413C342.736 162.768 344.417 162.446 346.374 162.446Z" fill="white"/>
<path d="M368.291 162.791C370.041 162.791 371.538 163.091 372.781 163.689C374.025 164.265 374.98 165.106 375.648 166.211C376.339 167.293 376.684 168.606 376.684 170.148C376.684 171.691 376.339 173.015 375.648 174.12C374.98 175.203 374.025 176.043 372.781 176.642C371.538 177.217 370.041 177.505 368.291 177.505H363.49V185.588H358.724V162.791H368.291ZM367.566 173.74C368.993 173.74 370.064 173.441 370.778 172.842C371.492 172.221 371.849 171.323 371.849 170.148C371.849 168.951 371.492 168.053 370.778 167.454C370.064 166.856 368.993 166.556 367.566 166.556H363.49V173.74H367.566Z" fill="white"/>
<path d="M379.499 185.588V162.791H396.596V166.625H384.265V172.29H393.971V175.951H384.265V181.754H397.079V185.588H379.499Z" fill="white"/>
<path d="M419.013 179.301C418.575 180.775 417.885 182.007 416.941 182.997C415.996 183.987 414.88 184.724 413.59 185.208C412.301 185.691 410.885 185.933 409.342 185.933C407.085 185.933 405.128 185.461 403.47 184.517C401.835 183.573 400.569 182.226 399.671 180.476C398.796 178.726 398.358 176.63 398.358 174.189C398.358 171.749 398.796 169.653 399.671 167.903C400.569 166.153 401.835 164.806 403.47 163.862C405.128 162.918 407.062 162.446 409.273 162.446C410.839 162.446 412.255 162.665 413.521 163.102C414.788 163.517 415.858 164.161 416.733 165.036C417.631 165.911 418.288 167.017 418.702 168.352L414.385 170.183C413.993 168.801 413.394 167.823 412.589 167.247C411.783 166.648 410.746 166.349 409.48 166.349C408.237 166.349 407.143 166.648 406.199 167.247C405.278 167.846 404.564 168.732 404.057 169.907C403.551 171.058 403.297 172.485 403.297 174.189C403.297 175.87 403.528 177.298 403.988 178.472C404.472 179.647 405.174 180.533 406.095 181.132C407.016 181.731 408.144 182.03 409.48 182.03C410.723 182.03 411.794 181.696 412.692 181.028C413.613 180.361 414.258 179.347 414.626 177.989L419.013 179.301Z" fill="white"/>
<path d="M426.288 162.791V185.588H421.521V162.791H426.288Z" fill="white"/>
<path d="M450.451 185.588H445.511L443.612 180.027H434.873L432.973 185.588H428.103L436.427 162.791H442.126L450.451 185.588ZM435.944 176.504H442.541L439.225 166.556L435.944 176.504Z" fill="white"/>
<path d="M457.044 181.754H469.064V185.588H452.278V162.791H457.044V181.754Z" fill="white"/>
<path d="M489.471 162.446C491.728 162.446 493.674 162.918 495.308 163.862C496.943 164.806 498.198 166.153 499.073 167.903C499.971 169.653 500.42 171.749 500.42 174.189C500.42 176.63 499.971 178.726 499.073 180.476C498.198 182.226 496.943 183.573 495.308 184.517C493.674 185.461 491.728 185.933 489.471 185.933C487.215 185.933 485.257 185.461 483.599 184.517C481.965 183.573 480.698 182.226 479.8 180.476C478.925 178.726 478.488 176.63 478.488 174.189C478.488 171.749 478.925 169.653 479.8 167.903C480.698 166.153 481.965 164.806 483.599 163.862C485.257 162.918 487.215 162.446 489.471 162.446ZM489.471 166.349C488.182 166.349 487.088 166.648 486.19 167.247C485.292 167.846 484.601 168.732 484.118 169.907C483.657 171.058 483.427 172.485 483.427 174.189C483.427 175.87 483.657 177.298 484.118 178.472C484.601 179.647 485.292 180.533 486.19 181.132C487.088 181.731 488.182 182.03 489.471 182.03C490.738 182.03 491.82 181.731 492.718 181.132C493.616 180.533 494.295 179.647 494.756 178.472C495.239 177.298 495.481 175.87 495.481 174.189C495.481 172.485 495.239 171.058 494.756 169.907C494.295 168.732 493.616 167.846 492.718 167.247C491.82 166.648 490.738 166.349 489.471 166.349Z" fill="white"/>
<path d="M520.737 166.625H508.441V172.428H518.146V176.262H508.441V185.588H503.674V162.791H520.737V166.625Z" fill="white"/>
<path d="M540.331 166.625H528.035V172.428H537.741V176.262H528.035V185.588H523.269V162.791H540.331V166.625Z" fill="white"/>
<path d="M542.863 185.588V162.791H559.96V166.625H547.63V172.29H557.335V175.951H547.63V181.754H560.444V185.588H542.863Z" fill="white"/>
<path d="M573.217 162.791C575.796 162.791 577.823 163.413 579.296 164.656C580.77 165.9 581.507 167.569 581.507 169.665C581.507 171.898 580.77 173.614 579.296 174.811C577.823 175.985 575.808 176.573 573.252 176.573L572.768 176.849H567.864V185.588H563.166V162.791H573.217ZM572.665 173.222C574 173.222 574.99 172.958 575.635 172.428C576.303 171.875 576.637 171.035 576.637 169.907C576.637 168.778 576.303 167.949 575.635 167.42C574.99 166.867 574 166.591 572.665 166.591H567.864V173.222H572.665ZM575.462 174.224L582.854 185.588H577.5L571.387 175.606L575.462 174.224Z" fill="white"/>
<path d="M369.012 81.129C375.5 81.129 381.212 82.1515 386.148 84.1966C391.155 86.1711 395.492 89.0976 399.159 92.9761L390.379 104.717C387.347 101.544 384.068 99.1817 380.542 97.6303C377.087 96.0084 373.138 95.1974 368.695 95.1974C366.086 95.1974 363.97 95.4795 362.348 96.0437C360.726 96.6078 359.563 97.3835 358.858 98.3708C358.153 99.358 357.8 100.486 357.8 101.756C357.8 103.237 358.47 104.506 359.81 105.564C361.22 106.551 363.477 107.397 366.579 108.102L378.321 110.747C385.302 112.369 390.415 114.731 393.659 117.834C396.902 120.937 398.524 125.062 398.524 130.21C398.524 135.146 397.255 139.342 394.716 142.797C392.178 146.182 388.687 148.756 384.244 150.519C379.802 152.212 374.724 153.058 369.012 153.058C364.358 153.058 359.915 152.564 355.684 151.577C351.453 150.519 347.645 149.038 344.26 147.134C340.875 145.23 338.019 143.044 335.692 140.576L344.472 128.412C346.235 130.457 348.386 132.29 350.924 133.912C353.534 135.464 356.354 136.698 359.387 137.614C362.489 138.531 365.627 138.989 368.801 138.989C371.269 138.989 373.314 138.743 374.936 138.249C376.628 137.755 377.862 137.015 378.638 136.028C379.414 135.04 379.802 133.877 379.802 132.537C379.802 131.056 379.273 129.822 378.215 128.835C377.157 127.777 375.147 126.896 372.186 126.19L359.281 123.334C355.332 122.418 351.806 121.219 348.703 119.738C345.671 118.186 343.273 116.141 341.51 113.603C339.747 110.994 338.866 107.75 338.866 103.871C338.866 99.4991 340.065 95.6206 342.462 92.2357C344.86 88.7803 348.315 86.0653 352.828 84.0908C357.342 82.1163 362.736 81.129 369.012 81.129Z" fill="white"/>
<path d="M466.18 152H447.457L442.592 136.239H418.686L413.714 152H395.415L419.955 82.1868H441.745L466.18 152ZM422.071 123.863H439.207L430.639 95.6206L422.071 123.863Z" fill="white"/>
<path d="M485.617 137.932H520.63V152H467.424V82.1868H485.617V137.932Z" fill="white"/>
<path d="M524.18 152V82.1868H578.55V96.2552H542.374V110.429H571.145V123.652H542.374V137.932H579.925V152H524.18Z" fill="white"/>
<path d="M643.739 183.546C634.772 183.546 627.197 181.691 621.013 177.981C614.932 174.27 609.933 168.602 606.017 160.975L625.187 151.39C626.527 155.925 628.64 159.583 631.526 162.366C634.412 165.149 638.637 166.54 644.203 166.54C648.016 166.54 651.263 165.87 653.942 164.531C656.622 163.191 658.683 161.232 660.126 158.656C661.672 156.079 662.445 152.936 662.445 149.225C662.445 145.515 661.724 142.423 660.281 139.949C658.941 137.373 656.983 135.466 654.406 134.229C651.83 132.889 648.583 132.219 644.667 132.219C641.987 132.219 639.462 132.477 637.091 132.992C634.824 133.508 632.762 134.332 630.907 135.466C629.052 136.497 627.403 137.888 625.96 139.64L609.264 136.548L615.602 79.9652H677.287V97.1257H631.68L628.588 122.016L628.125 124.026H628.434C630.598 121.552 633.535 119.645 637.246 118.306C641.059 116.966 645.388 116.296 650.232 116.296C656.931 116.296 662.652 117.636 667.393 120.315C672.134 122.995 675.792 126.757 678.369 131.601C680.946 136.342 682.234 141.805 682.234 147.988C682.234 153.863 681.255 159.068 679.297 163.603C677.338 168.035 674.556 171.745 670.948 174.734C667.444 177.62 663.373 179.836 658.735 181.382C654.097 182.825 649.098 183.546 643.739 183.546Z" fill="white"/>
<path d="M728.618 183.546C715.529 183.546 705.429 179.114 698.317 170.251C691.309 161.387 687.804 148.298 687.804 130.983C687.804 113.668 691.309 100.578 698.317 91.7147C705.429 82.8511 715.529 78.4193 728.618 78.4193C741.708 78.4193 751.756 82.8511 758.765 91.7147C765.876 100.578 769.432 113.668 769.432 130.983C769.432 148.298 765.876 161.387 758.765 170.251C751.756 179.114 741.708 183.546 728.618 183.546ZM728.618 166.386C733.05 166.386 736.657 165.149 739.44 162.675C742.326 160.099 744.49 156.234 745.933 151.08C747.376 145.824 748.098 139.125 748.098 130.983C748.098 122.841 747.376 116.193 745.933 111.039C744.49 105.783 742.326 101.918 739.44 99.4446C736.657 96.868 733.05 95.5797 728.618 95.5797C724.186 95.5797 720.528 96.868 717.642 99.4446C714.756 101.918 712.592 105.783 711.149 111.039C709.809 116.193 709.139 122.841 709.139 130.983C709.139 139.125 709.809 145.824 711.149 151.08C712.592 156.234 714.756 160.099 717.642 162.675C720.528 165.149 724.186 166.386 728.618 166.386Z" fill="white"/>
<path d="M810.987 122.16V119.384C810.987 117.225 811.45 115.228 812.375 113.394C813.318 111.56 814.68 110.087 816.462 108.973C818.245 107.859 820.421 107.302 822.992 107.302C825.614 107.302 827.816 107.859 829.599 108.973C831.398 110.069 832.752 111.535 833.661 113.368C834.586 115.185 835.049 117.19 835.049 119.384V122.16C835.049 124.32 834.586 126.316 833.661 128.15C832.735 129.984 831.373 131.458 829.573 132.572C827.774 133.686 825.58 134.243 822.992 134.243C820.387 134.243 818.193 133.686 816.411 132.572C814.629 131.458 813.275 129.984 812.349 128.15C811.441 126.316 810.987 124.32 810.987 122.16ZM819.187 119.384V122.16C819.187 123.257 819.453 124.311 819.984 125.322C820.533 126.333 821.535 126.839 822.992 126.839C824.483 126.839 825.486 126.351 826 125.374C826.514 124.38 826.771 123.309 826.771 122.16V119.384C826.771 118.236 826.523 117.156 826.026 116.145C825.546 115.117 824.535 114.602 822.992 114.602C821.552 114.602 820.558 115.117 820.01 116.145C819.462 117.156 819.187 118.236 819.187 119.384ZM783.686 92.0316V89.2552C783.686 87.0615 784.157 85.0564 785.1 83.2397C786.06 81.406 787.431 79.9407 789.213 78.8438C790.995 77.7298 793.155 77.1729 795.691 77.1729C798.313 77.1729 800.515 77.7298 802.298 78.8438C804.097 79.9407 805.46 81.406 806.385 83.2397C807.311 85.0564 807.773 87.0615 807.773 89.2552V92.0316C807.773 94.2252 807.302 96.2304 806.36 98.047C805.434 99.8637 804.072 101.312 802.272 102.392C800.473 103.471 798.279 104.011 795.691 104.011C793.103 104.011 790.91 103.463 789.11 102.366C787.328 101.269 785.974 99.8123 785.048 97.9956C784.14 96.179 783.686 94.191 783.686 92.0316ZM791.964 89.2552V92.0316C791.964 93.1798 792.229 94.251 792.761 95.245C793.309 96.2218 794.286 96.7103 795.691 96.7103C797.199 96.7103 798.202 96.2218 798.699 95.245C799.213 94.251 799.47 93.1798 799.47 92.0316V89.2552C799.47 88.1069 799.23 87.0272 798.75 86.0161C798.27 84.9878 797.251 84.4737 795.691 84.4737C794.252 84.4737 793.266 84.9964 792.735 86.0418C792.221 87.0872 791.964 88.1584 791.964 89.2552ZM787.568 132.032L823.763 79.3837H830.781L794.586 132.032H787.568Z" fill="white"/>
<path d="M816.583 162.397C816.583 166.628 815.79 170.252 814.205 173.269C812.633 176.273 810.485 178.574 807.762 180.172C805.052 181.77 801.978 182.569 798.539 182.569C795.1 182.569 792.019 181.77 789.297 180.172C786.587 178.561 784.439 176.254 782.854 173.25C781.281 170.233 780.495 166.615 780.495 162.397C780.495 158.165 781.281 154.548 782.854 151.544C784.439 148.527 786.587 146.219 789.297 144.621C792.019 143.024 795.1 142.225 798.539 142.225C801.978 142.225 805.052 143.024 807.762 144.621C810.485 146.219 812.633 148.527 814.205 151.544C815.79 154.548 816.583 158.165 816.583 162.397ZM809.43 162.397C809.43 159.418 808.964 156.906 808.031 154.861C807.11 152.803 805.832 151.25 804.196 150.201C802.559 149.14 800.674 148.61 798.539 148.61C796.404 148.61 794.519 149.14 792.882 150.201C791.246 151.25 789.961 152.803 789.028 154.861C788.108 156.906 787.648 159.418 787.648 162.397C787.648 165.375 788.108 167.893 789.028 169.952C789.961 171.997 791.246 173.55 792.882 174.611C794.519 175.659 796.404 176.183 798.539 176.183C800.674 176.183 802.559 175.659 804.196 174.611C805.832 173.55 807.11 171.997 808.031 169.952C808.964 167.893 809.43 165.375 809.43 162.397Z" fill="white"/>
<path d="M819.798 182.032V142.761H844.956V148.725H826.912V159.386H843.23V165.35H826.912V182.032H819.798Z" fill="white"/>
<path d="M847.927 182.032V142.761H873.085V148.725H855.041V159.386H871.359V165.35H855.041V182.032H847.927Z" fill="white"/>
<path d="M689 229C689 215.745 699.745 205 713 205H837C850.255 205 861 215.745 861 229C861 242.255 850.255 253 837 253H713C699.745 253 689 242.255 689 229Z" fill="white"/>
<path d="M739.749 222.94C740.829 222.94 741.777 223.126 742.593 223.498C743.409 223.87 744.105 224.422 744.681 225.154L743.295 226.756C742.803 226.132 742.263 225.676 741.675 225.388C741.099 225.088 740.427 224.938 739.659 224.938C739.155 224.938 738.735 225.004 738.399 225.136C738.075 225.268 737.835 225.442 737.679 225.658C737.535 225.874 737.463 226.114 737.463 226.378C737.463 226.702 737.589 226.978 737.841 227.206C738.093 227.422 738.525 227.602 739.137 227.746L741.351 228.25C742.527 228.514 743.367 228.91 743.871 229.438C744.387 229.954 744.645 230.626 744.645 231.454C744.645 232.234 744.441 232.906 744.033 233.47C743.625 234.022 743.055 234.448 742.323 234.748C741.591 235.036 740.751 235.18 739.803 235.18C738.975 235.18 738.213 235.084 737.517 234.892C736.833 234.688 736.221 234.412 735.681 234.064C735.141 233.716 734.691 233.314 734.331 232.858L735.735 231.184C736.011 231.568 736.353 231.91 736.761 232.21C737.169 232.51 737.631 232.75 738.147 232.93C738.675 233.098 739.227 233.182 739.803 233.182C740.295 233.182 740.709 233.128 741.045 233.02C741.393 232.9 741.651 232.738 741.819 232.534C741.999 232.318 742.089 232.06 742.089 231.76C742.089 231.448 741.981 231.184 741.765 230.968C741.561 230.74 741.177 230.566 740.613 230.446L738.201 229.906C737.505 229.738 736.905 229.522 736.401 229.258C735.909 228.982 735.531 228.634 735.267 228.214C735.015 227.782 734.889 227.272 734.889 226.684C734.889 225.976 735.081 225.34 735.465 224.776C735.849 224.212 736.401 223.768 737.121 223.444C737.853 223.108 738.729 222.94 739.749 222.94Z" fill="#BF1901"/>
<path d="M745.933 235V222.058H748.399V227.53C748.687 226.954 749.083 226.528 749.587 226.252C750.091 225.964 750.661 225.82 751.297 225.82C751.921 225.82 752.473 225.94 752.953 226.18C753.445 226.42 753.829 226.786 754.105 227.278C754.393 227.758 754.537 228.364 754.537 229.096V235H752.071V229.816C752.071 229.036 751.921 228.502 751.621 228.214C751.321 227.914 750.937 227.764 750.469 227.764C750.121 227.764 749.785 227.848 749.461 228.016C749.149 228.172 748.891 228.436 748.687 228.808C748.495 229.168 748.399 229.648 748.399 230.248V235H745.933Z" fill="#BF1901"/>
<path d="M760.372 225.82C761.284 225.82 762.082 226.006 762.766 226.378C763.462 226.75 764.002 227.284 764.386 227.98C764.782 228.676 764.98 229.516 764.98 230.5C764.98 231.472 764.782 232.312 764.386 233.02C764.002 233.716 763.462 234.25 762.766 234.622C762.082 234.994 761.284 235.18 760.372 235.18C759.472 235.18 758.674 234.994 757.978 234.622C757.282 234.25 756.736 233.716 756.34 233.02C755.956 232.312 755.764 231.472 755.764 230.5C755.764 229.516 755.956 228.676 756.34 227.98C756.736 227.284 757.282 226.75 757.978 226.378C758.674 226.006 759.472 225.82 760.372 225.82ZM760.372 227.656C759.916 227.656 759.526 227.764 759.202 227.98C758.89 228.184 758.65 228.496 758.482 228.916C758.314 229.336 758.23 229.864 758.23 230.5C758.23 231.136 758.314 231.664 758.482 232.084C758.65 232.504 758.89 232.822 759.202 233.038C759.526 233.242 759.916 233.344 760.372 233.344C760.816 233.344 761.194 233.242 761.506 233.038C761.83 232.822 762.076 232.504 762.244 232.084C762.412 231.664 762.496 231.136 762.496 230.5C762.496 229.864 762.412 229.336 762.244 228.916C762.076 228.496 761.83 228.184 761.506 227.98C761.194 227.764 760.816 227.656 760.372 227.656Z" fill="#BF1901"/>
<path d="M766.233 238.78V226H768.447L768.609 228.862L768.303 228.538C768.411 228.01 768.609 227.542 768.897 227.134C769.197 226.726 769.575 226.408 770.031 226.18C770.487 225.94 770.997 225.82 771.561 225.82C772.293 225.82 772.947 226.006 773.523 226.378C774.099 226.75 774.549 227.284 774.873 227.98C775.209 228.664 775.377 229.498 775.377 230.482C775.377 231.466 775.209 232.312 774.873 233.02C774.537 233.716 774.075 234.25 773.487 234.622C772.911 234.994 772.251 235.18 771.507 235.18C770.715 235.18 770.055 234.958 769.527 234.514C769.011 234.07 768.657 233.512 768.465 232.84L768.699 232.462V238.78H766.233ZM770.787 233.29C771.447 233.29 771.963 233.056 772.335 232.588C772.719 232.108 772.911 231.412 772.911 230.5C772.911 229.588 772.725 228.898 772.353 228.43C771.993 227.95 771.483 227.71 770.823 227.71C770.403 227.71 770.031 227.824 769.707 228.052C769.395 228.268 769.149 228.586 768.969 229.006C768.789 229.414 768.699 229.912 768.699 230.5C768.699 231.076 768.783 231.574 768.951 231.994C769.119 232.414 769.359 232.738 769.671 232.966C769.995 233.182 770.367 233.29 770.787 233.29Z" fill="#BF1901"/>
<path d="M791.858 223.12V235H789.014L784.856 228.016L783.83 226.072H783.812L783.884 228.124V235H781.652V223.12H784.478L788.636 230.086L789.662 232.048H789.698L789.626 229.996V223.12H791.858Z" fill="#BF1901"/>
<path d="M797.913 225.82C798.825 225.82 799.623 226.006 800.307 226.378C801.003 226.75 801.543 227.284 801.927 227.98C802.323 228.676 802.521 229.516 802.521 230.5C802.521 231.472 802.323 232.312 801.927 233.02C801.543 233.716 801.003 234.25 800.307 234.622C799.623 234.994 798.825 235.18 797.913 235.18C797.013 235.18 796.215 234.994 795.519 234.622C794.823 234.25 794.277 233.716 793.881 233.02C793.497 232.312 793.305 231.472 793.305 230.5C793.305 229.516 793.497 228.676 793.881 227.98C794.277 227.284 794.823 226.75 795.519 226.378C796.215 226.006 797.013 225.82 797.913 225.82ZM797.913 227.656C797.457 227.656 797.067 227.764 796.743 227.98C796.431 228.184 796.191 228.496 796.023 228.916C795.855 229.336 795.771 229.864 795.771 230.5C795.771 231.136 795.855 231.664 796.023 232.084C796.191 232.504 796.431 232.822 796.743 233.038C797.067 233.242 797.457 233.344 797.913 233.344C798.357 233.344 798.735 233.242 799.047 233.038C799.371 232.822 799.617 232.504 799.785 232.084C799.953 231.664 800.037 231.136 800.037 230.5C800.037 229.864 799.953 229.336 799.785 228.916C799.617 228.496 799.371 228.184 799.047 227.98C798.735 227.764 798.357 227.656 797.913 227.656Z" fill="#BF1901"/>
<path d="M815.138 226H817.766L814.886 235H812.042L810.08 228.88L808.19 235H805.346L802.466 226H805.094L806.894 232.894L808.892 226H811.34L813.356 232.894L815.138 226Z" fill="#BF1901"/>
<path d="M346.413 198.399V206.532C346.413 207.996 346.005 209.142 345.191 209.969C344.389 210.784 343.269 211.191 341.83 211.191C340.799 211.191 339.959 211 339.31 210.618C338.661 210.236 338.209 209.702 337.955 209.014C337.7 208.314 337.655 207.506 337.821 206.59L339.787 206.227C339.635 207.322 339.717 208.13 340.036 208.652C340.354 209.161 340.952 209.415 341.83 209.415C342.785 209.415 343.441 209.142 343.797 208.594C344.166 208.034 344.351 207.22 344.351 206.151V198.399H346.413Z" fill="#C9C9C9"/>
<path d="M354.076 204.871C354.076 204.235 353.898 203.745 353.542 203.401C353.198 203.045 352.721 202.867 352.11 202.867C351.537 202.867 351.047 203 350.64 203.268C350.232 203.535 349.933 203.968 349.742 204.566L348.024 203.84C348.266 203.064 348.737 202.44 349.437 201.969C350.149 201.498 351.066 201.263 352.186 201.263C352.95 201.263 353.624 201.39 354.21 201.645C354.795 201.886 355.254 202.256 355.585 202.752C355.928 203.248 356.1 203.885 356.1 204.661V208.919C356.1 209.39 356.336 209.625 356.807 209.625C357.036 209.625 357.258 209.594 357.475 209.53L357.36 210.943C357.067 211.083 356.698 211.153 356.253 211.153C355.846 211.153 355.476 211.083 355.145 210.943C354.827 210.79 354.573 210.567 354.382 210.275C354.204 209.969 354.114 209.594 354.114 209.148V209.014L354.534 208.995C354.42 209.492 354.184 209.905 353.828 210.236C353.472 210.555 353.058 210.796 352.587 210.962C352.116 211.115 351.639 211.191 351.155 211.191C350.557 211.191 350.016 211.096 349.532 210.905C349.061 210.714 348.686 210.427 348.406 210.045C348.138 209.651 348.005 209.167 348.005 208.594C348.005 207.882 348.234 207.296 348.692 206.838C349.163 206.38 349.825 206.068 350.678 205.902L354.382 205.177L354.363 206.609L351.671 207.162C351.136 207.264 350.735 207.411 350.468 207.602C350.2 207.793 350.067 208.073 350.067 208.442C350.067 208.798 350.2 209.084 350.468 209.301C350.748 209.504 351.117 209.606 351.575 209.606C351.893 209.606 352.199 209.568 352.492 209.492C352.797 209.415 353.071 209.294 353.313 209.129C353.554 208.951 353.739 208.728 353.866 208.461C354.006 208.181 354.076 207.85 354.076 207.468V204.871Z" fill="#C9C9C9"/>
<path d="M358.588 211V201.454H360.402L360.536 203.936L360.268 203.668C360.447 203.121 360.701 202.669 361.032 202.313C361.376 201.944 361.777 201.676 362.235 201.511C362.706 201.345 363.202 201.263 363.724 201.263C364.399 201.263 365.003 201.396 365.538 201.664C366.085 201.918 366.518 202.306 366.836 202.828C367.154 203.35 367.314 204.012 367.314 204.814V211H365.271V205.444C365.271 204.502 365.073 203.853 364.679 203.497C364.297 203.127 363.813 202.943 363.228 202.943C362.808 202.943 362.4 203.045 362.006 203.248C361.611 203.439 361.28 203.751 361.013 204.184C360.758 204.617 360.631 205.196 360.631 205.921V211H358.588Z" fill="#C9C9C9"/>
<path d="M372.949 211.191C372.325 211.191 371.746 211.076 371.211 210.847C370.689 210.618 370.269 210.249 369.951 209.74C369.633 209.231 369.474 208.569 369.474 207.754V201.454H371.517V207.239C371.517 208.104 371.701 208.703 372.07 209.034C372.44 209.352 372.955 209.511 373.617 209.511C373.935 209.511 374.241 209.46 374.533 209.358C374.839 209.244 375.113 209.072 375.354 208.843C375.596 208.601 375.781 208.295 375.908 207.926C376.048 207.557 376.118 207.124 376.118 206.628V201.454H378.161V211H376.366L376.271 209.454C375.94 210.052 375.494 210.491 374.934 210.771C374.374 211.051 373.712 211.191 372.949 211.191Z" fill="#C9C9C9"/>
<path d="M386.011 204.871C386.011 204.235 385.833 203.745 385.477 203.401C385.133 203.045 384.656 202.867 384.045 202.867C383.472 202.867 382.982 203 382.575 203.268C382.167 203.535 381.868 203.968 381.677 204.566L379.959 203.84C380.201 203.064 380.672 202.44 381.372 201.969C382.085 201.498 383.001 201.263 384.121 201.263C384.885 201.263 385.559 201.39 386.145 201.645C386.73 201.886 387.189 202.256 387.52 202.752C387.863 203.248 388.035 203.885 388.035 204.661V208.919C388.035 209.39 388.271 209.625 388.742 209.625C388.971 209.625 389.193 209.594 389.41 209.53L389.295 210.943C389.003 211.083 388.633 211.153 388.188 211.153C387.781 211.153 387.411 211.083 387.081 210.943C386.762 210.79 386.508 210.567 386.317 210.275C386.139 209.969 386.049 209.594 386.049 209.148V209.014L386.47 208.995C386.355 209.492 386.119 209.905 385.763 210.236C385.407 210.555 384.993 210.796 384.522 210.962C384.051 211.115 383.574 211.191 383.09 211.191C382.492 211.191 381.951 211.096 381.467 210.905C380.996 210.714 380.621 210.427 380.341 210.045C380.073 209.651 379.94 209.167 379.94 208.594C379.94 207.882 380.169 207.296 380.627 206.838C381.098 206.38 381.76 206.068 382.613 205.902L386.317 205.177L386.298 206.609L383.606 207.162C383.071 207.264 382.67 207.411 382.403 207.602C382.135 207.793 382.002 208.073 382.002 208.442C382.002 208.798 382.135 209.084 382.403 209.301C382.683 209.504 383.052 209.606 383.51 209.606C383.828 209.606 384.134 209.568 384.427 209.492C384.732 209.415 385.006 209.294 385.248 209.129C385.489 208.951 385.674 208.728 385.801 208.461C385.941 208.181 386.011 207.85 386.011 207.468V204.871Z" fill="#C9C9C9"/>
<path d="M390.523 211V201.454H392.261L392.452 203.172C392.706 202.548 393.082 202.077 393.578 201.759C394.087 201.428 394.711 201.263 395.449 201.263C395.64 201.263 395.831 201.282 396.022 201.32C396.213 201.345 396.372 201.39 396.499 201.454L396.213 203.248C396.073 203.197 395.914 203.159 395.736 203.134C395.57 203.096 395.341 203.077 395.048 203.077C394.654 203.077 394.265 203.185 393.884 203.401C393.502 203.605 393.183 203.917 392.929 204.337C392.687 204.757 392.566 205.291 392.566 205.941V211H390.523Z" fill="#C9C9C9"/>
<path d="M405.951 201.454L401.77 212.127C401.49 212.865 401.185 213.45 400.854 213.883C400.535 214.316 400.166 214.628 399.746 214.819C399.326 215.01 398.836 215.105 398.276 215.105C397.818 215.105 397.391 215.041 396.997 214.914C396.615 214.8 396.278 214.64 395.985 214.437L396.481 212.852C396.723 213.056 396.978 213.209 397.245 213.31C397.525 213.412 397.824 213.463 398.142 213.463C398.486 213.463 398.792 213.368 399.059 213.177C399.339 212.998 399.587 212.636 399.804 212.088L400.224 211.057L399.212 208.69L396.233 201.454H398.524L400.644 207.449L401.197 209.244L401.827 207.277L403.832 201.454H405.951Z" fill="#C9C9C9"/>
<path d="M411.47 211V209.511C412.68 208.645 413.691 207.882 414.506 207.22C415.333 206.558 415.995 205.947 416.492 205.387C416.988 204.827 417.345 204.299 417.561 203.802C417.79 203.293 417.905 202.777 417.905 202.256C417.905 201.581 417.695 201.034 417.275 200.614C416.854 200.194 416.269 199.984 415.518 199.984C414.729 199.984 414.099 200.251 413.628 200.785C413.17 201.307 412.909 202.026 412.845 202.943L411.069 202.122C411.158 201.32 411.394 200.626 411.776 200.041C412.158 199.455 412.673 199.003 413.322 198.685C413.984 198.367 414.748 198.208 415.613 198.208C416.326 198.208 416.95 198.31 417.485 198.513C418.032 198.717 418.49 199.003 418.859 199.373C419.228 199.729 419.508 200.149 419.699 200.633C419.903 201.116 420.005 201.632 420.005 202.179C420.005 202.981 419.808 203.758 419.413 204.509C419.018 205.247 418.395 206.004 417.542 206.781C416.689 207.557 415.569 208.391 414.181 209.282V209.32C414.334 209.294 414.544 209.282 414.812 209.282C415.079 209.269 415.346 209.263 415.613 209.263C415.881 209.25 416.097 209.244 416.263 209.244H420.234V211H411.47Z" fill="#C9C9C9"/>
<path d="M425.96 211.191C424.84 211.191 423.917 210.949 423.192 210.466C422.479 209.982 421.912 209.282 421.492 208.365L423.402 207.372C423.593 207.983 423.879 208.486 424.261 208.881C424.655 209.263 425.235 209.454 425.998 209.454C426.533 209.454 426.985 209.358 427.354 209.167C427.736 208.964 428.029 208.684 428.232 208.327C428.436 207.958 428.538 207.519 428.538 207.01C428.538 206.475 428.442 206.03 428.251 205.673C428.06 205.317 427.787 205.05 427.43 204.871C427.074 204.68 426.628 204.585 426.094 204.585C425.725 204.585 425.381 204.623 425.063 204.699C424.745 204.776 424.458 204.897 424.204 205.062C423.949 205.215 423.726 205.419 423.535 205.673L421.855 205.349L422.619 198.399H429.951V200.155H424.242L423.784 203.707L423.745 203.917H423.784C424.076 203.598 424.452 203.35 424.91 203.172C425.381 202.994 425.935 202.905 426.571 202.905C427.386 202.905 428.086 203.077 428.671 203.42C429.257 203.751 429.715 204.216 430.046 204.814C430.377 205.412 430.542 206.106 430.542 206.895C430.542 207.582 430.428 208.193 430.199 208.728C429.97 209.263 429.645 209.715 429.225 210.084C428.805 210.453 428.315 210.733 427.755 210.924C427.208 211.102 426.609 211.191 425.96 211.191Z" fill="#C9C9C9"/>
<path d="M440.158 198.647V208.136C440.158 208.607 440.279 208.951 440.52 209.167C440.775 209.384 441.112 209.492 441.532 209.492C441.876 209.492 442.175 209.441 442.43 209.339C442.684 209.224 442.92 209.072 443.136 208.881L443.594 210.37C443.302 210.625 442.939 210.828 442.506 210.981C442.086 211.121 441.615 211.191 441.093 211.191C440.546 211.191 440.043 211.102 439.585 210.924C439.127 210.746 438.77 210.459 438.516 210.065C438.261 209.657 438.127 209.129 438.115 208.48V199.22L440.158 198.647ZM443.442 201.454V203.057H436.282V201.454H443.442Z" fill="#C9C9C9"/>
<path d="M448.746 201.263C449.675 201.263 450.496 201.46 451.209 201.855C451.922 202.249 452.476 202.822 452.87 203.573C453.277 204.311 453.481 205.196 453.481 206.227C453.481 207.258 453.277 208.149 452.87 208.9C452.476 209.638 451.922 210.205 451.209 210.599C450.496 210.994 449.675 211.191 448.746 211.191C447.817 211.191 446.996 210.994 446.283 210.599C445.57 210.205 445.01 209.638 444.603 208.9C444.196 208.149 443.992 207.258 443.992 206.227C443.992 205.196 444.196 204.311 444.603 203.573C445.01 202.822 445.57 202.249 446.283 201.855C446.996 201.46 447.817 201.263 448.746 201.263ZM448.746 202.867C448.173 202.867 447.683 203 447.276 203.268C446.881 203.522 446.576 203.898 446.359 204.394C446.143 204.89 446.035 205.501 446.035 206.227C446.035 206.94 446.143 207.551 446.359 208.06C446.576 208.556 446.881 208.938 447.276 209.205C447.683 209.46 448.173 209.587 448.746 209.587C449.319 209.587 449.803 209.46 450.197 209.205C450.592 208.938 450.897 208.556 451.114 208.06C451.33 207.551 451.438 206.94 451.438 206.227C451.438 205.501 451.33 204.89 451.114 204.394C450.897 203.898 450.592 203.522 450.197 203.268C449.803 203 449.319 202.867 448.746 202.867Z" fill="#C9C9C9"/>
<path d="M467.96 198.399V206.532C467.96 207.996 467.552 209.142 466.738 209.969C465.936 210.784 464.816 211.191 463.377 211.191C462.346 211.191 461.506 211 460.857 210.618C460.208 210.236 459.756 209.702 459.502 209.014C459.247 208.314 459.202 207.506 459.368 206.59L461.334 206.227C461.182 207.322 461.264 208.13 461.583 208.652C461.901 209.161 462.499 209.415 463.377 209.415C464.332 209.415 464.988 209.142 465.344 208.594C465.713 208.034 465.898 207.22 465.898 206.151V198.399H467.96Z" fill="#C9C9C9"/>
<path d="M475.623 204.871C475.623 204.235 475.445 203.745 475.089 203.401C474.745 203.045 474.268 202.867 473.657 202.867C473.084 202.867 472.594 203 472.186 203.268C471.779 203.535 471.48 203.968 471.289 204.566L469.571 203.84C469.813 203.064 470.284 202.44 470.984 201.969C471.696 201.498 472.613 201.263 473.733 201.263C474.497 201.263 475.171 201.39 475.757 201.645C476.342 201.886 476.801 202.256 477.132 202.752C477.475 203.248 477.647 203.885 477.647 204.661V208.919C477.647 209.39 477.883 209.625 478.353 209.625C478.583 209.625 478.805 209.594 479.022 209.53L478.907 210.943C478.614 211.083 478.245 211.153 477.8 211.153C477.392 211.153 477.023 211.083 476.692 210.943C476.374 210.79 476.12 210.567 475.929 210.275C475.75 209.969 475.661 209.594 475.661 209.148V209.014L476.081 208.995C475.967 209.492 475.731 209.905 475.375 210.236C475.019 210.555 474.605 210.796 474.134 210.962C473.663 211.115 473.186 211.191 472.702 211.191C472.104 211.191 471.563 211.096 471.079 210.905C470.608 210.714 470.233 210.427 469.953 210.045C469.685 209.651 469.552 209.167 469.552 208.594C469.552 207.882 469.781 207.296 470.239 206.838C470.71 206.38 471.372 206.068 472.225 205.902L475.929 205.177L475.91 206.609L473.217 207.162C472.683 207.264 472.282 207.411 472.015 207.602C471.747 207.793 471.614 208.073 471.614 208.442C471.614 208.798 471.747 209.084 472.015 209.301C472.295 209.504 472.664 209.606 473.122 209.606C473.44 209.606 473.746 209.568 474.038 209.492C474.344 209.415 474.618 209.294 474.859 209.129C475.101 208.951 475.286 208.728 475.413 208.461C475.553 208.181 475.623 207.85 475.623 207.468V204.871Z" fill="#C9C9C9"/>
<path d="M480.135 211V201.454H481.949L482.083 203.936L481.815 203.668C481.993 203.121 482.248 202.669 482.579 202.313C482.923 201.944 483.324 201.676 483.782 201.511C484.253 201.345 484.749 201.263 485.271 201.263C485.946 201.263 486.55 201.396 487.085 201.664C487.632 201.918 488.065 202.306 488.383 202.828C488.701 203.35 488.861 204.012 488.861 204.814V211H486.818V205.444C486.818 204.502 486.62 203.853 486.226 203.497C485.844 203.127 485.36 202.943 484.775 202.943C484.355 202.943 483.947 203.045 483.553 203.248C483.158 203.439 482.827 203.751 482.56 204.184C482.305 204.617 482.178 205.196 482.178 205.921V211H480.135Z" fill="#C9C9C9"/>
<path d="M494.496 211.191C493.872 211.191 493.293 211.076 492.758 210.847C492.236 210.618 491.816 210.249 491.498 209.74C491.18 209.231 491.021 208.569 491.021 207.754V201.454H493.064V207.239C493.064 208.104 493.248 208.703 493.617 209.034C493.986 209.352 494.502 209.511 495.164 209.511C495.482 209.511 495.788 209.46 496.08 209.358C496.386 209.244 496.659 209.072 496.901 208.843C497.143 208.601 497.328 208.295 497.455 207.926C497.595 207.557 497.665 207.124 497.665 206.628V201.454H499.708V211H497.913L497.818 209.454C497.487 210.052 497.041 210.491 496.481 210.771C495.921 211.051 495.259 211.191 494.496 211.191Z" fill="#C9C9C9"/>
<path d="M507.558 204.871C507.558 204.235 507.38 203.745 507.024 203.401C506.68 203.045 506.203 202.867 505.592 202.867C505.019 202.867 504.529 203 504.122 203.268C503.714 203.535 503.415 203.968 503.224 204.566L501.506 203.84C501.748 203.064 502.219 202.44 502.919 201.969C503.631 201.498 504.548 201.263 505.668 201.263C506.432 201.263 507.106 201.39 507.692 201.645C508.277 201.886 508.736 202.256 509.067 202.752C509.41 203.248 509.582 203.885 509.582 204.661V208.919C509.582 209.39 509.818 209.625 510.288 209.625C510.518 209.625 510.74 209.594 510.957 209.53L510.842 210.943C510.549 211.083 510.18 211.153 509.735 211.153C509.327 211.153 508.958 211.083 508.627 210.943C508.309 210.79 508.055 210.567 507.864 210.275C507.686 209.969 507.596 209.594 507.596 209.148V209.014L508.016 208.995C507.902 209.492 507.666 209.905 507.31 210.236C506.954 210.555 506.54 210.796 506.069 210.962C505.598 211.115 505.121 211.191 504.637 211.191C504.039 211.191 503.498 211.096 503.014 210.905C502.543 210.714 502.168 210.427 501.888 210.045C501.62 209.651 501.487 209.167 501.487 208.594C501.487 207.882 501.716 207.296 502.174 206.838C502.645 206.38 503.307 206.068 504.16 205.902L507.864 205.177L507.845 206.609L505.153 207.162C504.618 207.264 504.217 207.411 503.95 207.602C503.682 207.793 503.549 208.073 503.549 208.442C503.549 208.798 503.682 209.084 503.95 209.301C504.23 209.504 504.599 209.606 505.057 209.606C505.375 209.606 505.681 209.568 505.974 209.492C506.279 209.415 506.553 209.294 506.794 209.129C507.036 208.951 507.221 208.728 507.348 208.461C507.488 208.181 507.558 207.85 507.558 207.468V204.871Z" fill="#C9C9C9"/>
<path d="M512.07 211V201.454H513.808L513.998 203.172C514.253 202.548 514.629 202.077 515.125 201.759C515.634 201.428 516.258 201.263 516.996 201.263C517.187 201.263 517.378 201.282 517.569 201.32C517.76 201.345 517.919 201.39 518.046 201.454L517.76 203.248C517.62 203.197 517.461 203.159 517.282 203.134C517.117 203.096 516.888 203.077 516.595 203.077C516.201 203.077 515.812 203.185 515.43 203.401C515.049 203.605 514.73 203.917 514.476 204.337C514.234 204.757 514.113 205.291 514.113 205.941V211H512.07Z" fill="#C9C9C9"/>
<path d="M527.498 201.454L523.317 212.127C523.037 212.865 522.731 213.45 522.401 213.883C522.082 214.316 521.713 214.628 521.293 214.819C520.873 215.01 520.383 215.105 519.823 215.105C519.365 215.105 518.938 215.041 518.544 214.914C518.162 214.8 517.825 214.64 517.532 214.437L518.028 212.852C518.27 213.056 518.525 213.209 518.792 213.31C519.072 213.412 519.371 213.463 519.689 213.463C520.033 213.463 520.338 213.368 520.606 213.177C520.886 212.998 521.134 212.636 521.35 212.088L521.77 211.057L520.759 208.69L517.78 201.454H520.071L522.191 207.449L522.744 209.244L523.374 207.277L525.379 201.454H527.498Z" fill="#C9C9C9"/>
<path d="M537.275 211.191C536.091 211.191 535.06 210.93 534.182 210.408C533.316 209.874 532.724 209.129 532.406 208.174L534.392 207.239C534.506 207.697 534.685 208.092 534.926 208.423C535.168 208.754 535.487 209.008 535.881 209.186C536.276 209.352 536.766 209.434 537.351 209.434C537.848 209.434 538.268 209.345 538.611 209.167C538.955 208.989 539.216 208.741 539.394 208.423C539.585 208.104 539.681 207.742 539.681 207.334C539.681 206.914 539.598 206.564 539.432 206.284C539.28 206.004 539.031 205.8 538.688 205.673C538.357 205.546 537.93 205.482 537.409 205.482C537.256 205.482 537.097 205.489 536.931 205.501C536.779 205.501 536.613 205.514 536.435 205.54V203.821C536.549 203.834 536.658 203.847 536.759 203.859C536.874 203.859 536.982 203.859 537.084 203.859C537.911 203.859 538.503 203.694 538.86 203.363C539.216 203.032 539.394 202.517 539.394 201.816C539.394 201.218 539.21 200.76 538.841 200.442C538.484 200.124 537.969 199.964 537.294 199.964C536.594 199.964 536.047 200.13 535.652 200.461C535.27 200.779 534.977 201.244 534.774 201.855L532.903 201.072C533.081 200.486 533.38 199.977 533.8 199.544C534.22 199.112 534.736 198.781 535.347 198.552C535.97 198.31 536.651 198.189 537.389 198.189C538.293 198.189 539.044 198.335 539.642 198.628C540.253 198.921 540.705 199.322 540.998 199.831C541.304 200.34 541.456 200.906 541.456 201.53C541.456 202.014 541.386 202.44 541.246 202.809C541.106 203.166 540.915 203.478 540.673 203.745C540.444 203.999 540.19 204.197 539.91 204.337C539.642 204.477 539.369 204.572 539.089 204.623V204.661C539.458 204.674 539.795 204.75 540.101 204.89C540.419 205.018 540.699 205.202 540.941 205.444C541.195 205.673 541.393 205.953 541.533 206.284C541.673 206.615 541.743 206.978 541.743 207.372C541.743 208.136 541.552 208.804 541.17 209.377C540.788 209.95 540.26 210.396 539.585 210.714C538.923 211.032 538.153 211.191 537.275 211.191Z" fill="#C9C9C9"/>
<path d="M545.885 211V202.351C545.885 202.096 545.885 201.836 545.885 201.568C545.897 201.288 545.91 200.995 545.923 200.69C545.49 201.11 544.994 201.473 544.434 201.778C543.886 202.071 543.32 202.281 542.734 202.408L542.352 200.633C542.62 200.595 542.932 200.505 543.288 200.365C543.644 200.225 544.013 200.047 544.395 199.831C544.777 199.614 545.127 199.385 545.445 199.143C545.764 198.889 546.012 198.641 546.19 198.399H547.908V211H545.885Z" fill="#C9C9C9"/>
<path d="M559.909 201.263C560.838 201.263 561.659 201.46 562.372 201.855C563.085 202.249 563.639 202.822 564.033 203.573C564.44 204.311 564.644 205.196 564.644 206.227C564.644 207.258 564.44 208.149 564.033 208.9C563.639 209.638 563.085 210.205 562.372 210.599C561.659 210.994 560.838 211.191 559.909 211.191C558.98 211.191 558.159 210.994 557.446 210.599C556.733 210.205 556.173 209.638 555.766 208.9C555.359 208.149 555.155 207.258 555.155 206.227C555.155 205.196 555.359 204.311 555.766 203.573C556.173 202.822 556.733 202.249 557.446 201.855C558.159 201.46 558.98 201.263 559.909 201.263ZM559.909 202.867C559.336 202.867 558.846 203 558.439 203.268C558.044 203.522 557.739 203.898 557.522 204.394C557.306 204.89 557.198 205.501 557.198 206.227C557.198 206.94 557.306 207.551 557.522 208.06C557.739 208.556 558.044 208.938 558.439 209.205C558.846 209.46 559.336 209.587 559.909 209.587C560.482 209.587 560.966 209.46 561.36 209.205C561.755 208.938 562.06 208.556 562.277 208.06C562.493 207.551 562.601 206.94 562.601 206.227C562.601 205.501 562.493 204.89 562.277 204.394C562.06 203.898 561.755 203.522 561.36 203.268C560.966 203 560.482 202.867 559.909 202.867Z" fill="#C9C9C9"/>
<path d="M566.355 211V201.454H568.169L568.302 203.936L568.035 203.668C568.213 203.121 568.468 202.669 568.799 202.313C569.143 201.944 569.543 201.676 570.002 201.511C570.473 201.345 570.969 201.263 571.491 201.263C572.166 201.263 572.77 201.396 573.305 201.664C573.852 201.918 574.285 202.306 574.603 202.828C574.921 203.35 575.08 204.012 575.08 204.814V211H573.037V205.444C573.037 204.502 572.84 203.853 572.446 203.497C572.064 203.127 571.58 202.943 570.995 202.943C570.574 202.943 570.167 203.045 569.773 203.248C569.378 203.439 569.047 203.751 568.78 204.184C568.525 204.617 568.398 205.196 568.398 205.921V211H566.355Z" fill="#C9C9C9"/>
<path d="M579.303 197.158V208.327C579.303 208.798 579.385 209.123 579.551 209.301C579.716 209.479 579.99 209.568 580.372 209.568C580.601 209.568 580.792 209.555 580.945 209.53C581.11 209.492 581.314 209.428 581.556 209.339L581.326 210.866C581.11 210.968 580.862 211.045 580.582 211.096C580.302 211.159 580.022 211.191 579.742 211.191C578.889 211.191 578.259 210.975 577.852 210.542C577.457 210.096 577.26 209.415 577.26 208.499V197.158H579.303Z" fill="#C9C9C9"/>
<path d="M590.359 201.454L586.177 212.127C585.897 212.865 585.592 213.45 585.261 213.883C584.943 214.316 584.573 214.628 584.153 214.819C583.733 215.01 583.243 215.105 582.683 215.105C582.225 215.105 581.799 215.041 581.404 214.914C581.022 214.8 580.685 214.64 580.392 214.437L580.889 212.852C581.13 213.056 581.385 213.209 581.652 213.31C581.932 213.412 582.231 213.463 582.55 213.463C582.893 213.463 583.199 213.368 583.466 213.177C583.746 212.998 583.994 212.636 584.211 212.088L584.631 211.057L583.619 208.69L580.64 201.454H582.931L585.051 207.449L585.604 209.244L586.235 207.277L588.239 201.454H590.359Z" fill="#C9C9C9"/>
<path d="M593.4 198.399V203.439L593.132 206.991H591.528L591.261 203.439V198.399H593.4ZM592.33 208.48C592.763 208.48 593.107 208.607 593.361 208.862C593.629 209.104 593.762 209.428 593.762 209.835C593.762 210.243 593.629 210.567 593.361 210.809C593.107 211.051 592.763 211.172 592.33 211.172C591.91 211.172 591.567 211.051 591.299 210.809C591.045 210.567 590.917 210.243 590.917 209.835C590.917 209.428 591.045 209.104 591.299 208.862C591.567 208.607 591.91 208.48 592.33 208.48Z" fill="#C9C9C9"/>
</svg>
