<svg width="940" height="320" viewBox="0 0 940 320" fill="none" xmlns="http://www.w3.org/2000/svg">
<path d="M561.891 101V56.7928H583.392C588.839 56.8374 592.858 57.8868 595.448 59.9409C598.038 61.9503 599.333 64.8751 599.333 68.7153C599.333 71.2159 598.596 73.3816 597.123 75.2125C595.649 76.9986 593.394 78.1373 590.358 78.6285V78.6954C593.751 79.142 596.274 80.3253 597.926 82.2454C599.623 84.1209 600.472 86.3982 600.472 89.0774C600.472 92.873 599.132 95.8202 596.453 97.9189C593.774 99.973 589.755 101 584.396 101H561.891ZM573.01 92.8953H582.454C584.553 92.8953 586.115 92.4711 587.143 91.6227C588.17 90.7743 588.683 89.5463 588.683 87.9388C588.683 86.3759 588.17 85.1926 587.143 84.3888C586.115 83.5404 584.553 83.1162 582.454 83.1162H573.01V92.8953ZM573.01 74.8776H581.382C585.49 74.8776 587.544 73.27 587.544 70.0549C587.544 66.8399 585.49 65.2323 581.382 65.2323H573.01V74.8776ZM616.185 56.7928V101H604.664V56.7928H616.185ZM641.26 101.67C637.33 101.67 633.825 100.799 630.744 99.0576C627.707 97.3161 625.341 94.7485 623.644 91.3548C621.947 87.9611 621.099 83.8306 621.099 78.9634C621.099 74.1854 621.992 70.0996 623.778 66.7059C625.564 63.3122 628.109 60.7 631.414 58.8692C634.763 57.0384 638.692 56.123 643.202 56.123C648.203 56.123 652.245 57.0384 655.326 58.8692C658.407 60.6553 660.796 63.5132 662.493 67.4427L651.843 71.6625C651.262 69.3851 650.235 67.7329 648.762 66.7059C647.288 65.6789 645.457 65.1654 643.269 65.1654C641.081 65.1654 639.206 65.7012 637.643 66.7729C636.08 67.7999 634.897 69.3405 634.093 71.3946C633.289 73.404 632.887 75.9046 632.887 78.8964C632.887 82.0222 633.289 84.6344 634.093 86.7331C634.941 88.8319 636.169 90.3947 637.777 91.4218C639.429 92.4042 641.461 92.8953 643.872 92.8953C645.167 92.8953 646.35 92.7391 647.422 92.4265C648.494 92.1139 649.431 91.6674 650.235 91.0869C651.039 90.4617 651.664 89.7026 652.111 88.8095C652.557 87.8718 652.78 86.7778 652.78 85.5275V84.8577H642.666V77.1549H662.56V101H654.723L653.852 90.618L655.728 92.2255C654.79 95.262 653.093 97.6063 650.637 99.2585C648.226 100.866 645.1 101.67 641.26 101.67ZM701.796 56.123C705.904 56.123 709.521 56.7705 712.647 58.0654C715.817 59.3157 718.564 61.1688 720.886 63.6248L715.326 71.0597C713.406 69.0502 711.33 67.5543 709.097 66.572C706.909 65.5449 704.408 65.0314 701.595 65.0314C699.943 65.0314 698.603 65.21 697.576 65.5672C696.549 65.9245 695.812 66.4157 695.366 67.0408C694.919 67.666 694.696 68.3804 694.696 69.1842C694.696 70.1219 695.12 70.9257 695.969 71.5955C696.862 72.2207 698.291 72.7565 700.256 73.203L707.69 74.8776C712.111 75.9046 715.349 77.4005 717.403 79.3653C719.457 81.33 720.484 83.9423 720.484 87.202C720.484 90.3278 719.68 92.9847 718.072 95.1727C716.465 97.3161 714.254 98.9459 711.441 100.062C708.628 101.134 705.413 101.67 701.796 101.67C698.849 101.67 696.036 101.357 693.357 100.732C690.677 100.062 688.266 99.1245 686.123 97.9189C683.979 96.7132 682.171 95.329 680.697 93.7661L686.257 86.0633C687.373 87.3583 688.735 88.5193 690.342 89.5463C691.995 90.5287 693.781 91.3101 695.701 91.8906C697.666 92.4711 699.653 92.7614 701.662 92.7614C703.225 92.7614 704.52 92.6051 705.547 92.2925C706.619 91.9799 707.4 91.5111 707.891 90.8859C708.383 90.2608 708.628 89.524 708.628 88.6756C708.628 87.7378 708.293 86.9564 707.623 86.3312C706.954 85.6614 705.681 85.1033 703.806 84.6567L695.634 82.8482C693.133 82.2677 690.901 81.5086 688.936 80.5709C687.016 79.5885 685.497 78.2936 684.381 76.686C683.265 75.0338 682.707 72.9798 682.707 70.5238C682.707 67.7553 683.466 65.2993 684.984 63.1559C686.502 60.9679 688.69 59.2487 691.548 57.9984C694.406 56.7481 697.822 56.123 701.796 56.123ZM736.193 92.0916H758.363V101H724.672V56.7928H736.193V92.0916ZM802.139 101H790.284L787.203 91.0199H772.065L768.917 101H757.329L772.869 56.7928H786.667L802.139 101ZM774.208 83.1832H785.059L779.634 65.2993L774.208 83.1832ZM804.267 101V56.7928H825.767C831.215 56.8374 835.234 57.8868 837.824 59.9409C840.414 61.9503 841.709 64.8751 841.709 68.7153C841.709 71.2159 840.972 73.3816 839.498 75.2125C838.025 76.9986 835.77 78.1373 832.733 78.6285V78.6954C836.127 79.142 838.65 80.3253 840.302 82.2454C841.999 84.1209 842.847 86.3982 842.847 89.0774C842.847 92.873 841.508 95.8202 838.829 97.9189C836.149 99.973 832.13 101 826.772 101H804.267ZM815.385 92.8953H824.83C826.928 92.8953 828.491 92.4711 829.518 91.6227C830.545 90.7743 831.059 89.5463 831.059 87.9388C831.059 86.3759 830.545 85.1926 829.518 84.3888C828.491 83.5404 826.928 83.1162 824.83 83.1162H815.385V92.8953ZM815.385 74.8776H823.758C827.866 74.8776 829.92 73.27 829.92 70.0549C829.92 66.8399 827.866 65.2323 823.758 65.2323H815.385V74.8776ZM864.321 56.123C868.429 56.123 872.046 56.7705 875.172 58.0654C878.342 59.3157 881.088 61.1688 883.41 63.6248L877.851 71.0597C875.931 69.0502 873.855 67.5543 871.622 66.572C869.434 65.5449 866.933 65.0314 864.12 65.0314C862.468 65.0314 861.128 65.21 860.101 65.5672C859.074 65.9245 858.337 66.4157 857.891 67.0408C857.444 67.666 857.221 68.3804 857.221 69.1842C857.221 70.1219 857.645 70.9257 858.494 71.5955C859.387 72.2207 860.816 72.7565 862.78 73.203L870.215 74.8776C874.636 75.9046 877.873 77.4005 879.927 79.3653C881.982 81.33 883.009 83.9423 883.009 87.202C883.009 90.3278 882.205 92.9847 880.597 95.1727C878.99 97.3161 876.779 98.9459 873.966 100.062C871.153 101.134 867.938 101.67 864.321 101.67C861.374 101.67 858.561 101.357 855.881 100.732C853.202 100.062 850.791 99.1245 848.647 97.9189C846.504 96.7132 844.696 95.329 843.222 93.7661L848.781 86.0633C849.898 87.3583 851.26 88.5193 852.867 89.5463C854.519 90.5287 856.306 91.3101 858.226 91.8906C860.19 92.4711 862.178 92.7614 864.187 92.7614C865.75 92.7614 867.045 92.6051 868.072 92.2925C869.144 91.9799 869.925 91.5111 870.416 90.8859C870.907 90.2608 871.153 89.524 871.153 88.6756C871.153 87.7378 870.818 86.9564 870.148 86.3312C869.478 85.6614 868.206 85.1033 866.33 84.6567L858.159 82.8482C855.658 82.2677 853.425 81.5086 851.461 80.5709C849.541 79.5885 848.022 78.2936 846.906 76.686C845.79 75.0338 845.231 72.9798 845.231 70.5238C845.231 67.7553 845.991 65.2993 847.509 63.1559C849.027 60.9679 851.215 59.2487 854.073 57.9984C856.931 56.7481 860.347 56.123 864.321 56.123Z" fill="white"/>
<path d="M529.624 148.083C528.776 150.941 527.436 153.33 525.605 155.25C523.774 157.17 521.609 158.599 519.108 159.537C516.607 160.474 513.861 160.943 510.869 160.943C506.493 160.943 502.698 160.028 499.483 158.197C496.312 156.366 493.856 153.754 492.115 150.36C490.418 146.967 489.57 142.903 489.57 138.17C489.57 133.437 490.418 129.373 492.115 125.979C493.856 122.586 496.312 119.973 499.483 118.143C502.698 116.312 506.449 115.396 510.735 115.396C513.772 115.396 516.518 115.821 518.974 116.669C521.43 117.473 523.506 118.723 525.203 120.42C526.945 122.117 528.217 124.26 529.021 126.85L520.649 130.4C519.889 127.721 518.728 125.823 517.166 124.707C515.603 123.546 513.593 122.965 511.137 122.965C508.726 122.965 506.605 123.546 504.774 124.707C502.988 125.868 501.604 127.587 500.621 129.864C499.639 132.097 499.148 134.865 499.148 138.17C499.148 141.43 499.594 144.198 500.487 146.475C501.425 148.753 502.787 150.472 504.573 151.633C506.359 152.794 508.547 153.374 511.137 153.374C513.549 153.374 515.625 152.727 517.367 151.432C519.153 150.137 520.403 148.172 521.117 145.538L529.624 148.083ZM553.577 115.396C557.953 115.396 561.727 116.312 564.897 118.143C568.068 119.973 570.501 122.586 572.198 125.979C573.939 129.373 574.81 133.437 574.81 138.17C574.81 142.903 573.939 146.967 572.198 150.36C570.501 153.754 568.068 156.366 564.897 158.197C561.727 160.028 557.953 160.943 553.577 160.943C549.201 160.943 545.406 160.028 542.191 158.197C539.02 156.366 536.564 153.754 534.823 150.36C533.126 146.967 532.278 142.903 532.278 138.17C532.278 133.437 533.126 129.373 534.823 125.979C536.564 122.586 539.02 119.973 542.191 118.143C545.406 116.312 549.201 115.396 553.577 115.396ZM553.577 122.965C551.077 122.965 548.956 123.546 547.214 124.707C545.473 125.868 544.133 127.587 543.195 129.864C542.302 132.097 541.856 134.865 541.856 138.17C541.856 141.43 542.302 144.198 543.195 146.475C544.133 148.753 545.473 150.472 547.214 151.633C548.956 152.794 551.077 153.374 553.577 153.374C556.033 153.374 558.132 152.794 559.874 151.633C561.615 150.472 562.932 148.753 563.825 146.475C564.763 144.198 565.232 141.43 565.232 138.17C565.232 134.865 564.763 132.097 563.825 129.864C562.932 127.587 561.615 125.868 559.874 124.707C558.132 123.546 556.033 122.965 553.577 122.965ZM590.364 152.839H613.673V160.273H581.121V116.066H590.364V152.839ZM627.577 152.839H650.887V160.273H618.334V116.066H627.577V152.839ZM655.548 160.273V116.066H688.703V123.501H664.791V134.486H683.612V141.586H664.791V152.839H689.641V160.273H655.548ZM732.175 148.083C731.327 150.941 729.987 153.33 728.156 155.25C726.325 157.17 724.16 158.599 721.659 159.537C719.158 160.474 716.412 160.943 713.42 160.943C709.044 160.943 705.249 160.028 702.034 158.197C698.863 156.366 696.407 153.754 694.666 150.36C692.969 146.967 692.121 142.903 692.121 138.17C692.121 133.437 692.969 129.373 694.666 125.979C696.407 122.586 698.863 119.973 702.034 118.143C705.249 116.312 709 115.396 713.286 115.396C716.323 115.396 719.069 115.821 721.525 116.669C723.981 117.473 726.057 118.723 727.754 120.42C729.496 122.117 730.768 124.26 731.572 126.85L723.2 130.4C722.44 127.721 721.279 125.823 719.717 124.707C718.154 123.546 716.144 122.965 713.688 122.965C711.277 122.965 709.156 123.546 707.325 124.707C705.539 125.868 704.155 127.587 703.172 129.864C702.19 132.097 701.699 134.865 701.699 138.17C701.699 141.43 702.145 144.198 703.038 146.475C703.976 148.753 705.338 150.472 707.124 151.633C708.91 152.794 711.098 153.374 713.688 153.374C716.1 153.374 718.176 152.727 719.918 151.432C721.704 150.137 722.954 148.172 723.668 145.538L732.175 148.083ZM772.003 116.066V123.501H757.2V160.273H747.957V123.501H733.087V116.066H772.003ZM785.785 116.066V160.273H776.542V116.066H785.785ZM813.352 115.396C817.728 115.396 821.502 116.312 824.672 118.143C827.842 119.973 830.276 122.586 831.973 125.979C833.714 129.373 834.585 133.437 834.585 138.17C834.585 142.903 833.714 146.967 831.973 150.36C830.276 153.754 827.842 156.366 824.672 158.197C821.502 160.028 817.728 160.943 813.352 160.943C808.976 160.943 805.181 160.028 801.966 158.197C798.795 156.366 796.339 153.754 794.598 150.36C792.901 146.967 792.053 142.903 792.053 138.17C792.053 133.437 792.901 129.373 794.598 125.979C796.339 122.586 798.795 119.973 801.966 118.143C805.181 116.312 808.976 115.396 813.352 115.396ZM813.352 122.965C810.852 122.965 808.731 123.546 806.989 124.707C805.248 125.868 803.908 127.587 802.97 129.864C802.077 132.097 801.631 134.865 801.631 138.17C801.631 141.43 802.077 144.198 802.97 146.475C803.908 148.753 805.248 150.472 806.989 151.633C808.731 152.794 810.852 153.374 813.352 153.374C815.808 153.374 817.907 152.794 819.649 151.633C821.39 150.472 822.707 148.753 823.6 146.475C824.538 144.198 825.007 141.43 825.007 138.17C825.007 134.865 824.538 132.097 823.6 129.864C822.707 127.587 821.39 125.868 819.649 124.707C817.907 123.546 815.808 122.965 813.352 122.965ZM878.874 116.066V160.273H868.291L852.818 134.285L849 127.051H848.933L849.201 134.687V160.273H840.896V116.066H851.411L866.884 141.988L870.702 149.289H870.836L870.568 141.653V116.066H878.874Z" fill="white"/>
<path d="M749.799 175.186C751.306 175.186 752.573 175.558 753.602 176.303C754.647 177.047 755.427 178.093 755.941 179.44C756.473 180.787 756.739 182.374 756.739 184.199C756.739 186.22 756.464 187.904 755.915 189.251C755.365 190.58 754.576 191.582 753.548 192.256C752.52 192.929 751.28 193.266 749.826 193.266C748.337 193.266 747.061 192.938 745.997 192.282C744.934 191.626 744.136 190.643 743.604 189.331L746.29 188.081C746.538 188.914 746.946 189.579 747.513 190.075C748.098 190.572 748.887 190.82 749.879 190.82C750.695 190.82 751.377 190.66 751.926 190.341C752.476 190.022 752.91 189.561 753.229 188.959C753.566 188.356 753.805 187.629 753.947 186.778C754.089 185.928 754.16 184.97 754.16 183.907C754.16 183.854 754.16 183.809 754.16 183.774C754.16 183.721 754.16 183.668 754.16 183.614H754.054C753.859 184.323 753.504 184.899 752.99 185.343C752.494 185.786 751.926 186.114 751.288 186.326C750.65 186.521 750.012 186.619 749.374 186.619C748.24 186.619 747.229 186.397 746.343 185.954C745.474 185.493 744.792 184.855 744.296 184.04C743.799 183.224 743.551 182.258 743.551 181.142C743.551 179.919 743.799 178.864 744.296 177.978C744.81 177.091 745.528 176.409 746.449 175.93C747.389 175.434 748.505 175.186 749.799 175.186ZM749.826 177.685C748.709 177.685 747.85 177.987 747.247 178.589C746.662 179.192 746.37 180.034 746.37 181.115C746.37 182.072 746.68 182.826 747.3 183.375C747.938 183.907 748.78 184.173 749.826 184.173C750.5 184.173 751.093 184.04 751.607 183.774C752.121 183.49 752.52 183.109 752.804 182.631C753.105 182.152 753.256 181.594 753.256 180.956C753.256 180.282 753.105 179.706 752.804 179.227C752.52 178.731 752.121 178.35 751.607 178.084C751.093 177.818 750.5 177.685 749.826 177.685ZM765.491 193.266C763.382 193.266 761.725 192.504 760.519 190.979C759.332 189.437 758.738 187.186 758.738 184.226C758.738 181.266 759.332 179.023 760.519 177.499C761.725 175.957 763.382 175.186 765.491 175.186C767.619 175.186 769.276 175.957 770.463 177.499C771.669 179.023 772.271 181.266 772.271 184.226C772.271 187.186 771.669 189.437 770.463 190.979C769.276 192.504 767.619 193.266 765.491 193.266ZM765.491 190.846C766.342 190.846 767.051 190.607 767.619 190.128C768.203 189.632 768.638 188.897 768.921 187.922C769.223 186.929 769.373 185.697 769.373 184.226C769.373 182.755 769.223 181.532 768.921 180.557C768.638 179.564 768.203 178.828 767.619 178.35C767.051 177.854 766.342 177.605 765.491 177.605C764.641 177.605 763.923 177.854 763.338 178.35C762.771 178.828 762.345 179.564 762.062 180.557C761.778 181.532 761.636 182.755 761.636 184.226C761.636 185.697 761.778 186.929 762.062 187.922C762.345 188.897 762.771 189.632 763.338 190.128C763.923 190.607 764.641 190.846 765.491 190.846ZM783.853 179.706L787.602 185.396L788.134 185.476L793.531 193H790.155L786.246 187.151L785.635 186.938L780.423 179.706H783.853ZM793.452 179.706L788.24 186.832L787.655 186.805L783.401 193H780.157L785.821 185.422L786.379 185.476L790.181 179.706H793.452ZM804.907 193V180.956C804.907 180.601 804.907 180.238 804.907 179.865C804.925 179.475 804.942 179.068 804.96 178.642C804.357 179.227 803.666 179.732 802.886 180.158C802.124 180.566 801.335 180.858 800.52 181.035L799.988 178.563C800.36 178.509 800.795 178.385 801.291 178.19C801.787 177.995 802.301 177.747 802.833 177.446C803.365 177.145 803.852 176.825 804.295 176.489C804.738 176.134 805.084 175.789 805.332 175.452H807.725V193H804.907ZM817.253 175.212C818.441 175.212 819.469 175.407 820.337 175.797C821.223 176.17 821.906 176.701 822.384 177.393C822.863 178.084 823.102 178.917 823.102 179.892C823.102 180.796 822.881 181.594 822.438 182.285C822.012 182.959 821.383 183.473 820.55 183.827V183.854C821.56 184.226 822.358 184.784 822.943 185.529C823.546 186.255 823.847 187.159 823.847 188.241C823.847 189.287 823.572 190.182 823.023 190.926C822.491 191.671 821.729 192.247 820.736 192.654C819.761 193.062 818.6 193.266 817.253 193.266C815.906 193.266 814.736 193.062 813.743 192.654C812.768 192.247 812.006 191.671 811.457 190.926C810.907 190.182 810.632 189.287 810.632 188.241C810.632 187.177 810.925 186.273 811.51 185.529C812.095 184.784 812.91 184.226 813.956 183.854V183.827C813.158 183.49 812.529 182.985 812.068 182.312C811.607 181.62 811.377 180.814 811.377 179.892C811.377 178.917 811.616 178.084 812.095 177.393C812.573 176.701 813.256 176.17 814.142 175.797C815.028 175.407 816.065 175.212 817.253 175.212ZM817.253 177.605C816.314 177.605 815.56 177.836 814.993 178.297C814.443 178.758 814.169 179.387 814.169 180.184C814.169 180.982 814.452 181.611 815.02 182.072C815.587 182.515 816.331 182.737 817.253 182.737C818.175 182.737 818.91 182.515 819.46 182.072C820.027 181.611 820.311 180.982 820.311 180.184C820.311 179.387 820.036 178.758 819.486 178.297C818.937 177.836 818.192 177.605 817.253 177.605ZM817.253 190.873C818.033 190.873 818.698 190.758 819.247 190.527C819.797 190.297 820.222 189.96 820.523 189.517C820.825 189.074 820.975 188.56 820.975 187.975C820.975 187.354 820.816 186.832 820.497 186.406C820.195 185.963 819.77 185.626 819.22 185.396C818.671 185.165 818.015 185.05 817.253 185.05C816.508 185.05 815.853 185.165 815.285 185.396C814.718 185.626 814.275 185.963 813.956 186.406C813.655 186.832 813.504 187.354 813.504 187.975C813.504 188.56 813.655 189.074 813.956 189.517C814.257 189.96 814.692 190.297 815.259 190.527C815.826 190.758 816.491 190.873 817.253 190.873ZM832.625 193.266C830.515 193.266 828.858 192.504 827.653 190.979C826.465 189.437 825.871 187.186 825.871 184.226C825.871 181.266 826.465 179.023 827.653 177.499C828.858 175.957 830.515 175.186 832.625 175.186C834.752 175.186 836.409 175.957 837.597 177.499C838.802 179.023 839.405 181.266 839.405 184.226C839.405 187.186 838.802 189.437 837.597 190.979C836.409 192.504 834.752 193.266 832.625 193.266ZM832.625 190.846C833.476 190.846 834.185 190.607 834.752 190.128C835.337 189.632 835.771 188.897 836.055 187.922C836.356 186.929 836.507 185.697 836.507 184.226C836.507 182.755 836.356 181.532 836.055 180.557C835.771 179.564 835.337 178.828 834.752 178.35C834.185 177.854 833.476 177.605 832.625 177.605C831.774 177.605 831.056 177.854 830.471 178.35C829.904 178.828 829.478 179.564 829.195 180.557C828.911 181.532 828.769 182.755 828.769 184.226C828.769 185.697 828.911 186.929 829.195 187.922C829.478 188.897 829.904 189.632 830.471 190.128C831.056 190.607 831.774 190.846 832.625 190.846ZM855.175 179.44C856.238 179.44 857.142 179.6 857.887 179.919C858.649 180.22 859.287 180.654 859.801 181.221C860.315 181.789 860.705 182.436 860.971 183.162L858.286 184.226C858.055 183.411 857.683 182.79 857.169 182.365C856.673 181.922 856.017 181.7 855.201 181.7C854.404 181.7 853.721 181.886 853.154 182.258C852.587 182.613 852.153 183.136 851.851 183.827C851.568 184.518 851.426 185.369 851.426 186.38C851.426 187.372 851.577 188.214 851.878 188.905C852.179 189.597 852.614 190.12 853.181 190.474C853.748 190.829 854.422 191.006 855.201 191.006C855.804 191.006 856.327 190.908 856.77 190.713C857.213 190.501 857.577 190.208 857.86 189.836C858.162 189.446 858.365 188.976 858.472 188.427L861.051 189.304C860.803 190.102 860.413 190.802 859.881 191.405C859.367 191.99 858.72 192.451 857.94 192.787C857.16 193.106 856.265 193.266 855.255 193.266C853.943 193.266 852.782 192.991 851.772 192.442C850.761 191.892 849.972 191.103 849.405 190.075C848.856 189.029 848.581 187.789 848.581 186.353C848.581 184.917 848.856 183.685 849.405 182.657C849.972 181.611 850.752 180.814 851.745 180.264C852.755 179.715 853.899 179.44 855.175 179.44ZM863.165 193V179.706H865.691L865.824 181.939C866.285 181.088 866.896 180.459 867.659 180.052C868.439 179.644 869.263 179.44 870.131 179.44C871.089 179.44 871.966 179.662 872.764 180.105C873.579 180.53 874.19 181.177 874.598 182.046C874.882 181.461 875.272 180.973 875.768 180.583C876.264 180.193 876.814 179.91 877.417 179.732C878.019 179.537 878.613 179.44 879.198 179.44C880.049 179.44 880.846 179.617 881.591 179.972C882.335 180.326 882.938 180.867 883.399 181.594C883.86 182.32 884.09 183.251 884.09 184.385V193H881.245V184.837C881.245 183.756 880.988 182.976 880.474 182.498C879.96 182.019 879.304 181.78 878.507 181.78C877.886 181.78 877.31 181.93 876.778 182.232C876.264 182.533 875.848 182.985 875.529 183.588C875.21 184.173 875.05 184.899 875.05 185.768V193H872.205V184.837C872.205 183.756 871.948 182.976 871.434 182.498C870.92 182.019 870.264 181.78 869.467 181.78C868.935 181.78 868.403 181.922 867.871 182.205C867.34 182.489 866.896 182.932 866.542 183.535C866.187 184.137 866.01 184.935 866.01 185.928V193H863.165Z" fill="white"/>
<rect x="712" y="221" width="172" height="48" rx="24" fill="white"/>
<path d="M762.749 238.94C763.829 238.94 764.777 239.126 765.593 239.498C766.409 239.87 767.105 240.422 767.681 241.154L766.295 242.756C765.803 242.132 765.263 241.676 764.675 241.388C764.099 241.088 763.427 240.938 762.659 240.938C762.155 240.938 761.735 241.004 761.399 241.136C761.075 241.268 760.835 241.442 760.679 241.658C760.535 241.874 760.463 242.114 760.463 242.378C760.463 242.702 760.589 242.978 760.841 243.206C761.093 243.422 761.525 243.602 762.137 243.746L764.351 244.25C765.527 244.514 766.367 244.91 766.871 245.438C767.387 245.954 767.645 246.626 767.645 247.454C767.645 248.234 767.441 248.906 767.033 249.47C766.625 250.022 766.055 250.448 765.323 250.748C764.591 251.036 763.751 251.18 762.803 251.18C761.975 251.18 761.213 251.084 760.517 250.892C759.833 250.688 759.221 250.412 758.681 250.064C758.141 249.716 757.691 249.314 757.331 248.858L758.735 247.184C759.011 247.568 759.353 247.91 759.761 248.21C760.169 248.51 760.631 248.75 761.147 248.93C761.675 249.098 762.227 249.182 762.803 249.182C763.295 249.182 763.709 249.128 764.045 249.02C764.393 248.9 764.651 248.738 764.819 248.534C764.999 248.318 765.089 248.06 765.089 247.76C765.089 247.448 764.981 247.184 764.765 246.968C764.561 246.74 764.177 246.566 763.613 246.446L761.201 245.906C760.505 245.738 759.905 245.522 759.401 245.258C758.909 244.982 758.531 244.634 758.267 244.214C758.015 243.782 757.889 243.272 757.889 242.684C757.889 241.976 758.081 241.34 758.465 240.776C758.849 240.212 759.401 239.768 760.121 239.444C760.853 239.108 761.729 238.94 762.749 238.94ZM768.933 251V238.058H771.399V243.53C771.687 242.954 772.083 242.528 772.587 242.252C773.091 241.964 773.661 241.82 774.297 241.82C774.921 241.82 775.473 241.94 775.953 242.18C776.445 242.42 776.829 242.786 777.105 243.278C777.393 243.758 777.537 244.364 777.537 245.096V251H775.071V245.816C775.071 245.036 774.921 244.502 774.621 244.214C774.321 243.914 773.937 243.764 773.469 243.764C773.121 243.764 772.785 243.848 772.461 244.016C772.149 244.172 771.891 244.436 771.687 244.808C771.495 245.168 771.399 245.648 771.399 246.248V251H768.933ZM783.372 241.82C784.284 241.82 785.082 242.006 785.766 242.378C786.462 242.75 787.002 243.284 787.386 243.98C787.782 244.676 787.98 245.516 787.98 246.5C787.98 247.472 787.782 248.312 787.386 249.02C787.002 249.716 786.462 250.25 785.766 250.622C785.082 250.994 784.284 251.18 783.372 251.18C782.472 251.18 781.674 250.994 780.978 250.622C780.282 250.25 779.736 249.716 779.34 249.02C778.956 248.312 778.764 247.472 778.764 246.5C778.764 245.516 778.956 244.676 779.34 243.98C779.736 243.284 780.282 242.75 780.978 242.378C781.674 242.006 782.472 241.82 783.372 241.82ZM783.372 243.656C782.916 243.656 782.526 243.764 782.202 243.98C781.89 244.184 781.65 244.496 781.482 244.916C781.314 245.336 781.23 245.864 781.23 246.5C781.23 247.136 781.314 247.664 781.482 248.084C781.65 248.504 781.89 248.822 782.202 249.038C782.526 249.242 782.916 249.344 783.372 249.344C783.816 249.344 784.194 249.242 784.506 249.038C784.83 248.822 785.076 248.504 785.244 248.084C785.412 247.664 785.496 247.136 785.496 246.5C785.496 245.864 785.412 245.336 785.244 244.916C785.076 244.496 784.83 244.184 784.506 243.98C784.194 243.764 783.816 243.656 783.372 243.656ZM789.233 254.78V242H791.447L791.609 244.862L791.303 244.538C791.411 244.01 791.609 243.542 791.897 243.134C792.197 242.726 792.575 242.408 793.031 242.18C793.487 241.94 793.997 241.82 794.561 241.82C795.293 241.82 795.947 242.006 796.523 242.378C797.099 242.75 797.549 243.284 797.873 243.98C798.209 244.664 798.377 245.498 798.377 246.482C798.377 247.466 798.209 248.312 797.873 249.02C797.537 249.716 797.075 250.25 796.487 250.622C795.911 250.994 795.251 251.18 794.507 251.18C793.715 251.18 793.055 250.958 792.527 250.514C792.011 250.07 791.657 249.512 791.465 248.84L791.699 248.462V254.78H789.233ZM793.787 249.29C794.447 249.29 794.963 249.056 795.335 248.588C795.719 248.108 795.911 247.412 795.911 246.5C795.911 245.588 795.725 244.898 795.353 244.43C794.993 243.95 794.483 243.71 793.823 243.71C793.403 243.71 793.031 243.824 792.707 244.052C792.395 244.268 792.149 244.586 791.969 245.006C791.789 245.414 791.699 245.912 791.699 246.5C791.699 247.076 791.783 247.574 791.951 247.994C792.119 248.414 792.359 248.738 792.671 248.966C792.995 249.182 793.367 249.29 793.787 249.29ZM814.858 239.12V251H812.014L807.856 244.016L806.83 242.072H806.812L806.884 244.124V251H804.652V239.12H807.478L811.636 246.086L812.662 248.048H812.698L812.626 245.996V239.12H814.858ZM820.913 241.82C821.825 241.82 822.623 242.006 823.307 242.378C824.003 242.75 824.543 243.284 824.927 243.98C825.323 244.676 825.521 245.516 825.521 246.5C825.521 247.472 825.323 248.312 824.927 249.02C824.543 249.716 824.003 250.25 823.307 250.622C822.623 250.994 821.825 251.18 820.913 251.18C820.013 251.18 819.215 250.994 818.519 250.622C817.823 250.25 817.277 249.716 816.881 249.02C816.497 248.312 816.305 247.472 816.305 246.5C816.305 245.516 816.497 244.676 816.881 243.98C817.277 243.284 817.823 242.75 818.519 242.378C819.215 242.006 820.013 241.82 820.913 241.82ZM820.913 243.656C820.457 243.656 820.067 243.764 819.743 243.98C819.431 244.184 819.191 244.496 819.023 244.916C818.855 245.336 818.771 245.864 818.771 246.5C818.771 247.136 818.855 247.664 819.023 248.084C819.191 248.504 819.431 248.822 819.743 249.038C820.067 249.242 820.457 249.344 820.913 249.344C821.357 249.344 821.735 249.242 822.047 249.038C822.371 248.822 822.617 248.504 822.785 248.084C822.953 247.664 823.037 247.136 823.037 246.5C823.037 245.864 822.953 245.336 822.785 244.916C822.617 244.496 822.371 244.184 822.047 243.98C821.735 243.764 821.357 243.656 820.913 243.656ZM838.138 242H840.766L837.886 251H835.042L833.08 244.88L831.19 251H828.346L825.466 242H828.094L829.894 248.894L831.892 242H834.34L836.356 248.894L838.138 242Z" fill="#BF1901"/>
</svg>
