<svg width="1140" height="320" viewBox="0 0 1140 320" fill="none" xmlns="http://www.w3.org/2000/svg">
<path d="M738.891 101V56.7928H760.392C765.839 56.8374 769.858 57.8868 772.448 59.9409C775.038 61.9503 776.333 64.8751 776.333 68.7153C776.333 71.2159 775.596 73.3816 774.123 75.2125C772.649 76.9986 770.394 78.1373 767.358 78.6285V78.6954C770.751 79.142 773.274 80.3253 774.926 82.2454C776.623 84.1209 777.472 86.3982 777.472 89.0774C777.472 92.873 776.132 95.8202 773.453 97.9189C770.774 99.973 766.755 101 761.396 101H738.891ZM750.01 92.8953H759.454C761.553 92.8953 763.115 92.4711 764.143 91.6227C765.17 90.7743 765.683 89.5463 765.683 87.9388C765.683 86.3759 765.17 85.1926 764.143 84.3888C763.115 83.5404 761.553 83.1162 759.454 83.1162H750.01V92.8953ZM750.01 74.8776H758.382C762.49 74.8776 764.544 73.27 764.544 70.0549C764.544 66.8399 762.49 65.2323 758.382 65.2323H750.01V74.8776ZM793.185 56.7928V101H781.664V56.7928H793.185ZM818.26 101.67C814.33 101.67 810.825 100.799 807.744 99.0576C804.707 97.3161 802.341 94.7485 800.644 91.3548C798.947 87.9611 798.099 83.8306 798.099 78.9634C798.099 74.1854 798.992 70.0996 800.778 66.7059C802.564 63.3122 805.109 60.7 808.414 58.8692C811.763 57.0384 815.692 56.123 820.202 56.123C825.203 56.123 829.245 57.0384 832.326 58.8692C835.407 60.6553 837.796 63.5132 839.493 67.4427L828.843 71.6625C828.262 69.3851 827.235 67.7329 825.762 66.7059C824.288 65.6789 822.457 65.1654 820.269 65.1654C818.081 65.1654 816.206 65.7012 814.643 66.7729C813.08 67.7999 811.897 69.3405 811.093 71.3946C810.289 73.404 809.887 75.9046 809.887 78.8964C809.887 82.0222 810.289 84.6344 811.093 86.7331C811.941 88.8319 813.169 90.3947 814.777 91.4218C816.429 92.4042 818.461 92.8953 820.872 92.8953C822.167 92.8953 823.35 92.7391 824.422 92.4265C825.494 92.1139 826.431 91.6674 827.235 91.0869C828.039 90.4617 828.664 89.7026 829.111 88.8095C829.557 87.8718 829.78 86.7778 829.78 85.5275V84.8577H819.666V77.1549H839.56V101H831.723L830.852 90.618L832.728 92.2255C831.79 95.262 830.093 97.6063 827.637 99.2585C825.226 100.866 822.1 101.67 818.26 101.67ZM878.796 56.123C882.904 56.123 886.521 56.7705 889.647 58.0654C892.817 59.3157 895.564 61.1688 897.886 63.6248L892.326 71.0597C890.406 69.0502 888.33 67.5543 886.097 66.572C883.909 65.5449 881.408 65.0314 878.595 65.0314C876.943 65.0314 875.603 65.21 874.576 65.5672C873.549 65.9245 872.812 66.4157 872.366 67.0408C871.919 67.666 871.696 68.3804 871.696 69.1842C871.696 70.1219 872.12 70.9257 872.969 71.5955C873.862 72.2207 875.291 72.7565 877.256 73.203L884.69 74.8776C889.111 75.9046 892.349 77.4005 894.403 79.3653C896.457 81.33 897.484 83.9423 897.484 87.202C897.484 90.3278 896.68 92.9847 895.072 95.1727C893.465 97.3161 891.254 98.9459 888.441 100.062C885.628 101.134 882.413 101.67 878.796 101.67C875.849 101.67 873.036 101.357 870.357 100.732C867.677 100.062 865.266 99.1245 863.123 97.9189C860.979 96.7132 859.171 95.329 857.697 93.7661L863.257 86.0633C864.373 87.3583 865.735 88.5193 867.342 89.5463C868.995 90.5287 870.781 91.3101 872.701 91.8906C874.666 92.4711 876.653 92.7614 878.662 92.7614C880.225 92.7614 881.52 92.6051 882.547 92.2925C883.619 91.9799 884.4 91.5111 884.891 90.8859C885.383 90.2608 885.628 89.524 885.628 88.6756C885.628 87.7378 885.293 86.9564 884.623 86.3312C883.954 85.6614 882.681 85.1033 880.806 84.6567L872.634 82.8482C870.133 82.2677 867.901 81.5086 865.936 80.5709C864.016 79.5885 862.497 78.2936 861.381 76.686C860.265 75.0338 859.707 72.9798 859.707 70.5238C859.707 67.7553 860.466 65.2993 861.984 63.1559C863.502 60.9679 865.69 59.2487 868.548 57.9984C871.406 56.7481 874.822 56.123 878.796 56.123ZM913.193 92.0916H935.363V101H901.672V56.7928H913.193V92.0916ZM979.139 101H967.284L964.203 91.0199H949.065L945.917 101H934.329L949.869 56.7928H963.667L979.139 101ZM951.208 83.1832H962.059L956.634 65.2993L951.208 83.1832ZM981.267 101V56.7928H1002.77C1008.22 56.8374 1012.23 57.8868 1014.82 59.9409C1017.41 61.9503 1018.71 64.8751 1018.71 68.7153C1018.71 71.2159 1017.97 73.3816 1016.5 75.2125C1015.02 76.9986 1012.77 78.1373 1009.73 78.6285V78.6954C1013.13 79.142 1015.65 80.3253 1017.3 82.2454C1019 84.1209 1019.85 86.3982 1019.85 89.0774C1019.85 92.873 1018.51 95.8202 1015.83 97.9189C1013.15 99.973 1009.13 101 1003.77 101H981.267ZM992.385 92.8953H1001.83C1003.93 92.8953 1005.49 92.4711 1006.52 91.6227C1007.55 90.7743 1008.06 89.5463 1008.06 87.9388C1008.06 86.3759 1007.55 85.1926 1006.52 84.3888C1005.49 83.5404 1003.93 83.1162 1001.83 83.1162H992.385V92.8953ZM992.385 74.8776H1000.76C1004.87 74.8776 1006.92 73.27 1006.92 70.0549C1006.92 66.8399 1004.87 65.2323 1000.76 65.2323H992.385V74.8776ZM1041.32 56.123C1045.43 56.123 1049.05 56.7705 1052.17 58.0654C1055.34 59.3157 1058.09 61.1688 1060.41 63.6248L1054.85 71.0597C1052.93 69.0502 1050.85 67.5543 1048.62 66.572C1046.43 65.5449 1043.93 65.0314 1041.12 65.0314C1039.47 65.0314 1038.13 65.21 1037.1 65.5672C1036.07 65.9245 1035.34 66.4157 1034.89 67.0408C1034.44 67.666 1034.22 68.3804 1034.22 69.1842C1034.22 70.1219 1034.65 70.9257 1035.49 71.5955C1036.39 72.2207 1037.82 72.7565 1039.78 73.203L1047.22 74.8776C1051.64 75.9046 1054.87 77.4005 1056.93 79.3653C1058.98 81.33 1060.01 83.9423 1060.01 87.202C1060.01 90.3278 1059.2 92.9847 1057.6 95.1727C1055.99 97.3161 1053.78 98.9459 1050.97 100.062C1048.15 101.134 1044.94 101.67 1041.32 101.67C1038.37 101.67 1035.56 101.357 1032.88 100.732C1030.2 100.062 1027.79 99.1245 1025.65 97.9189C1023.5 96.7132 1021.7 95.329 1020.22 93.7661L1025.78 86.0633C1026.9 87.3583 1028.26 88.5193 1029.87 89.5463C1031.52 90.5287 1033.31 91.3101 1035.23 91.8906C1037.19 92.4711 1039.18 92.7614 1041.19 92.7614C1042.75 92.7614 1044.04 92.6051 1045.07 92.2925C1046.14 91.9799 1046.92 91.5111 1047.42 90.8859C1047.91 90.2608 1048.15 89.524 1048.15 88.6756C1048.15 87.7378 1047.82 86.9564 1047.15 86.3312C1046.48 85.6614 1045.21 85.1033 1043.33 84.6567L1035.16 82.8482C1032.66 82.2677 1030.43 81.5086 1028.46 80.5709C1026.54 79.5885 1025.02 78.2936 1023.91 76.686C1022.79 75.0338 1022.23 72.9798 1022.23 70.5238C1022.23 67.7553 1022.99 65.2993 1024.51 63.1559C1026.03 60.9679 1028.22 59.2487 1031.07 57.9984C1033.93 56.7481 1037.35 56.123 1041.32 56.123Z" fill="white"/>
<path d="M706.624 148.083C705.776 150.941 704.436 153.33 702.605 155.25C700.774 157.17 698.609 158.599 696.108 159.537C693.607 160.474 690.861 160.943 687.869 160.943C683.493 160.943 679.698 160.028 676.483 158.197C673.312 156.366 670.856 153.754 669.115 150.36C667.418 146.967 666.57 142.903 666.57 138.17C666.57 133.437 667.418 129.373 669.115 125.979C670.856 122.586 673.312 119.973 676.483 118.143C679.698 116.312 683.449 115.396 687.735 115.396C690.772 115.396 693.518 115.821 695.974 116.669C698.43 117.473 700.506 118.723 702.203 120.42C703.945 122.117 705.217 124.26 706.021 126.85L697.649 130.4C696.889 127.721 695.728 125.823 694.166 124.707C692.603 123.546 690.593 122.965 688.137 122.965C685.726 122.965 683.605 123.546 681.774 124.707C679.988 125.868 678.604 127.587 677.621 129.864C676.639 132.097 676.148 134.865 676.148 138.17C676.148 141.43 676.594 144.198 677.487 146.475C678.425 148.753 679.787 150.472 681.573 151.633C683.359 152.794 685.547 153.374 688.137 153.374C690.549 153.374 692.625 152.727 694.367 151.432C696.153 150.137 697.403 148.172 698.117 145.538L706.624 148.083ZM730.577 115.396C734.953 115.396 738.727 116.312 741.897 118.143C745.068 119.973 747.501 122.586 749.198 125.979C750.939 129.373 751.81 133.437 751.81 138.17C751.81 142.903 750.939 146.967 749.198 150.36C747.501 153.754 745.068 156.366 741.897 158.197C738.727 160.028 734.953 160.943 730.577 160.943C726.201 160.943 722.406 160.028 719.191 158.197C716.02 156.366 713.564 153.754 711.823 150.36C710.126 146.967 709.278 142.903 709.278 138.17C709.278 133.437 710.126 129.373 711.823 125.979C713.564 122.586 716.02 119.973 719.191 118.143C722.406 116.312 726.201 115.396 730.577 115.396ZM730.577 122.965C728.077 122.965 725.956 123.546 724.214 124.707C722.473 125.868 721.133 127.587 720.195 129.864C719.302 132.097 718.856 134.865 718.856 138.17C718.856 141.43 719.302 144.198 720.195 146.475C721.133 148.753 722.473 150.472 724.214 151.633C725.956 152.794 728.077 153.374 730.577 153.374C733.033 153.374 735.132 152.794 736.874 151.633C738.615 150.472 739.932 148.753 740.825 146.475C741.763 144.198 742.232 141.43 742.232 138.17C742.232 134.865 741.763 132.097 740.825 129.864C739.932 127.587 738.615 125.868 736.874 124.707C735.132 123.546 733.033 122.965 730.577 122.965ZM767.364 152.839H790.673V160.273H758.121V116.066H767.364V152.839ZM804.577 152.839H827.887V160.273H795.334V116.066H804.577V152.839ZM832.548 160.273V116.066H865.703V123.501H841.791V134.486H860.612V141.586H841.791V152.839H866.641V160.273H832.548ZM909.175 148.083C908.327 150.941 906.987 153.33 905.156 155.25C903.325 157.17 901.16 158.599 898.659 159.537C896.158 160.474 893.412 160.943 890.42 160.943C886.044 160.943 882.249 160.028 879.034 158.197C875.863 156.366 873.407 153.754 871.666 150.36C869.969 146.967 869.121 142.903 869.121 138.17C869.121 133.437 869.969 129.373 871.666 125.979C873.407 122.586 875.863 119.973 879.034 118.143C882.249 116.312 886 115.396 890.286 115.396C893.323 115.396 896.069 115.821 898.525 116.669C900.981 117.473 903.057 118.723 904.754 120.42C906.496 122.117 907.768 124.26 908.572 126.85L900.2 130.4C899.44 127.721 898.279 125.823 896.717 124.707C895.154 123.546 893.144 122.965 890.688 122.965C888.277 122.965 886.156 123.546 884.325 124.707C882.539 125.868 881.155 127.587 880.172 129.864C879.19 132.097 878.699 134.865 878.699 138.17C878.699 141.43 879.145 144.198 880.038 146.475C880.976 148.753 882.338 150.472 884.124 151.633C885.91 152.794 888.098 153.374 890.688 153.374C893.1 153.374 895.176 152.727 896.918 151.432C898.704 150.137 899.954 148.172 900.668 145.538L909.175 148.083ZM949.003 116.066V123.501H934.2V160.273H924.957V123.501H910.087V116.066H949.003ZM962.785 116.066V160.273H953.542V116.066H962.785ZM990.352 115.396C994.728 115.396 998.502 116.312 1001.67 118.143C1004.84 119.973 1007.28 122.586 1008.97 125.979C1010.71 129.373 1011.59 133.437 1011.59 138.17C1011.59 142.903 1010.71 146.967 1008.97 150.36C1007.28 153.754 1004.84 156.366 1001.67 158.197C998.502 160.028 994.728 160.943 990.352 160.943C985.976 160.943 982.181 160.028 978.966 158.197C975.795 156.366 973.339 153.754 971.598 150.36C969.901 146.967 969.053 142.903 969.053 138.17C969.053 133.437 969.901 129.373 971.598 125.979C973.339 122.586 975.795 119.973 978.966 118.143C982.181 116.312 985.976 115.396 990.352 115.396ZM990.352 122.965C987.852 122.965 985.731 123.546 983.989 124.707C982.248 125.868 980.908 127.587 979.97 129.864C979.077 132.097 978.631 134.865 978.631 138.17C978.631 141.43 979.077 144.198 979.97 146.475C980.908 148.753 982.248 150.472 983.989 151.633C985.731 152.794 987.852 153.374 990.352 153.374C992.808 153.374 994.907 152.794 996.649 151.633C998.39 150.472 999.707 148.753 1000.6 146.475C1001.54 144.198 1002.01 141.43 1002.01 138.17C1002.01 134.865 1001.54 132.097 1000.6 129.864C999.707 127.587 998.39 125.868 996.649 124.707C994.907 123.546 992.808 122.965 990.352 122.965ZM1055.87 116.066V160.273H1045.29L1029.82 134.285L1026 127.051H1025.93L1026.2 134.687V160.273H1017.9V116.066H1028.41L1043.88 141.988L1047.7 149.289H1047.84L1047.57 141.653V116.066H1055.87Z" fill="white"/>
<path d="M926.799 175.186C928.306 175.186 929.573 175.558 930.602 176.303C931.647 177.047 932.427 178.093 932.941 179.44C933.473 180.787 933.739 182.374 933.739 184.199C933.739 186.22 933.464 187.904 932.915 189.251C932.365 190.58 931.576 191.582 930.548 192.256C929.52 192.929 928.28 193.266 926.826 193.266C925.337 193.266 924.061 192.938 922.997 192.282C921.934 191.626 921.136 190.643 920.604 189.331L923.29 188.081C923.538 188.914 923.946 189.579 924.513 190.075C925.098 190.572 925.887 190.82 926.879 190.82C927.695 190.82 928.377 190.66 928.926 190.341C929.476 190.022 929.91 189.561 930.229 188.959C930.566 188.356 930.805 187.629 930.947 186.778C931.089 185.928 931.16 184.97 931.16 183.907C931.16 183.854 931.16 183.809 931.16 183.774C931.16 183.721 931.16 183.668 931.16 183.614H931.054C930.859 184.323 930.504 184.899 929.99 185.343C929.494 185.786 928.926 186.114 928.288 186.326C927.65 186.521 927.012 186.619 926.374 186.619C925.24 186.619 924.229 186.397 923.343 185.954C922.474 185.493 921.792 184.855 921.296 184.04C920.799 183.224 920.551 182.258 920.551 181.142C920.551 179.919 920.799 178.864 921.296 177.978C921.81 177.091 922.528 176.409 923.449 175.93C924.389 175.434 925.505 175.186 926.799 175.186ZM926.826 177.685C925.709 177.685 924.85 177.987 924.247 178.589C923.662 179.192 923.37 180.034 923.37 181.115C923.37 182.072 923.68 182.826 924.3 183.375C924.938 183.907 925.78 184.173 926.826 184.173C927.5 184.173 928.093 184.04 928.607 183.774C929.121 183.49 929.52 183.109 929.804 182.631C930.105 182.152 930.256 181.594 930.256 180.956C930.256 180.282 930.105 179.706 929.804 179.227C929.52 178.731 929.121 178.35 928.607 178.084C928.093 177.818 927.5 177.685 926.826 177.685ZM942.491 193.266C940.382 193.266 938.725 192.504 937.519 190.979C936.332 189.437 935.738 187.186 935.738 184.226C935.738 181.266 936.332 179.023 937.519 177.499C938.725 175.957 940.382 175.186 942.491 175.186C944.619 175.186 946.276 175.957 947.463 177.499C948.669 179.023 949.271 181.266 949.271 184.226C949.271 187.186 948.669 189.437 947.463 190.979C946.276 192.504 944.619 193.266 942.491 193.266ZM942.491 190.846C943.342 190.846 944.051 190.607 944.619 190.128C945.203 189.632 945.638 188.897 945.921 187.922C946.223 186.929 946.373 185.697 946.373 184.226C946.373 182.755 946.223 181.532 945.921 180.557C945.638 179.564 945.203 178.828 944.619 178.35C944.051 177.854 943.342 177.605 942.491 177.605C941.641 177.605 940.923 177.854 940.338 178.35C939.771 178.828 939.345 179.564 939.062 180.557C938.778 181.532 938.636 182.755 938.636 184.226C938.636 185.697 938.778 186.929 939.062 187.922C939.345 188.897 939.771 189.632 940.338 190.128C940.923 190.607 941.641 190.846 942.491 190.846ZM960.853 179.706L964.602 185.396L965.134 185.476L970.531 193H967.155L963.246 187.151L962.635 186.938L957.423 179.706H960.853ZM970.452 179.706L965.24 186.832L964.655 186.805L960.401 193H957.157L962.821 185.422L963.379 185.476L967.181 179.706H970.452ZM981.907 193V180.956C981.907 180.601 981.907 180.238 981.907 179.865C981.925 179.475 981.942 179.068 981.96 178.642C981.357 179.227 980.666 179.732 979.886 180.158C979.124 180.566 978.335 180.858 977.52 181.035L976.988 178.563C977.36 178.509 977.795 178.385 978.291 178.19C978.787 177.995 979.301 177.747 979.833 177.446C980.365 177.145 980.852 176.825 981.295 176.489C981.738 176.134 982.084 175.789 982.332 175.452H984.725V193H981.907ZM994.253 175.212C995.441 175.212 996.469 175.407 997.337 175.797C998.223 176.17 998.906 176.701 999.384 177.393C999.863 178.084 1000.1 178.917 1000.1 179.892C1000.1 180.796 999.881 181.594 999.438 182.285C999.012 182.959 998.383 183.473 997.55 183.827V183.854C998.56 184.226 999.358 184.784 999.943 185.529C1000.55 186.255 1000.85 187.159 1000.85 188.241C1000.85 189.287 1000.57 190.182 1000.02 190.926C999.491 191.671 998.729 192.247 997.736 192.654C996.761 193.062 995.6 193.266 994.253 193.266C992.906 193.266 991.736 193.062 990.743 192.654C989.768 192.247 989.006 191.671 988.457 190.926C987.907 190.182 987.632 189.287 987.632 188.241C987.632 187.177 987.925 186.273 988.51 185.529C989.095 184.784 989.91 184.226 990.956 183.854V183.827C990.158 183.49 989.529 182.985 989.068 182.312C988.607 181.62 988.377 180.814 988.377 179.892C988.377 178.917 988.616 178.084 989.095 177.393C989.573 176.701 990.256 176.17 991.142 175.797C992.028 175.407 993.065 175.212 994.253 175.212ZM994.253 177.605C993.314 177.605 992.56 177.836 991.993 178.297C991.443 178.758 991.169 179.387 991.169 180.184C991.169 180.982 991.452 181.611 992.02 182.072C992.587 182.515 993.331 182.737 994.253 182.737C995.175 182.737 995.91 182.515 996.46 182.072C997.027 181.611 997.311 180.982 997.311 180.184C997.311 179.387 997.036 178.758 996.486 178.297C995.937 177.836 995.192 177.605 994.253 177.605ZM994.253 190.873C995.033 190.873 995.698 190.758 996.247 190.527C996.797 190.297 997.222 189.96 997.523 189.517C997.825 189.074 997.975 188.56 997.975 187.975C997.975 187.354 997.816 186.832 997.497 186.406C997.195 185.963 996.77 185.626 996.22 185.396C995.671 185.165 995.015 185.05 994.253 185.05C993.508 185.05 992.853 185.165 992.285 185.396C991.718 185.626 991.275 185.963 990.956 186.406C990.655 186.832 990.504 187.354 990.504 187.975C990.504 188.56 990.655 189.074 990.956 189.517C991.257 189.96 991.692 190.297 992.259 190.527C992.826 190.758 993.491 190.873 994.253 190.873ZM1009.62 193.266C1007.52 193.266 1005.86 192.504 1004.65 190.979C1003.47 189.437 1002.87 187.186 1002.87 184.226C1002.87 181.266 1003.47 179.023 1004.65 177.499C1005.86 175.957 1007.52 175.186 1009.62 175.186C1011.75 175.186 1013.41 175.957 1014.6 177.499C1015.8 179.023 1016.4 181.266 1016.4 184.226C1016.4 187.186 1015.8 189.437 1014.6 190.979C1013.41 192.504 1011.75 193.266 1009.62 193.266ZM1009.62 190.846C1010.48 190.846 1011.18 190.607 1011.75 190.128C1012.34 189.632 1012.77 188.897 1013.05 187.922C1013.36 186.929 1013.51 185.697 1013.51 184.226C1013.51 182.755 1013.36 181.532 1013.05 180.557C1012.77 179.564 1012.34 178.828 1011.75 178.35C1011.18 177.854 1010.48 177.605 1009.62 177.605C1008.77 177.605 1008.06 177.854 1007.47 178.35C1006.9 178.828 1006.48 179.564 1006.19 180.557C1005.91 181.532 1005.77 182.755 1005.77 184.226C1005.77 185.697 1005.91 186.929 1006.19 187.922C1006.48 188.897 1006.9 189.632 1007.47 190.128C1008.06 190.607 1008.77 190.846 1009.62 190.846ZM1032.17 179.44C1033.24 179.44 1034.14 179.6 1034.89 179.919C1035.65 180.22 1036.29 180.654 1036.8 181.221C1037.32 181.789 1037.71 182.436 1037.97 183.162L1035.29 184.226C1035.06 183.411 1034.68 182.79 1034.17 182.365C1033.67 181.922 1033.02 181.7 1032.2 181.7C1031.4 181.7 1030.72 181.886 1030.15 182.258C1029.59 182.613 1029.15 183.136 1028.85 183.827C1028.57 184.518 1028.43 185.369 1028.43 186.38C1028.43 187.372 1028.58 188.214 1028.88 188.905C1029.18 189.597 1029.61 190.12 1030.18 190.474C1030.75 190.829 1031.42 191.006 1032.2 191.006C1032.8 191.006 1033.33 190.908 1033.77 190.713C1034.21 190.501 1034.58 190.208 1034.86 189.836C1035.16 189.446 1035.37 188.976 1035.47 188.427L1038.05 189.304C1037.8 190.102 1037.41 190.802 1036.88 191.405C1036.37 191.99 1035.72 192.451 1034.94 192.787C1034.16 193.106 1033.26 193.266 1032.25 193.266C1030.94 193.266 1029.78 192.991 1028.77 192.442C1027.76 191.892 1026.97 191.103 1026.41 190.075C1025.86 189.029 1025.58 187.789 1025.58 186.353C1025.58 184.917 1025.86 183.685 1026.41 182.657C1026.97 181.611 1027.75 180.814 1028.74 180.264C1029.76 179.715 1030.9 179.44 1032.17 179.44ZM1040.17 193V179.706H1042.69L1042.82 181.939C1043.28 181.088 1043.9 180.459 1044.66 180.052C1045.44 179.644 1046.26 179.44 1047.13 179.44C1048.09 179.44 1048.97 179.662 1049.76 180.105C1050.58 180.53 1051.19 181.177 1051.6 182.046C1051.88 181.461 1052.27 180.973 1052.77 180.583C1053.26 180.193 1053.81 179.91 1054.42 179.732C1055.02 179.537 1055.61 179.44 1056.2 179.44C1057.05 179.44 1057.85 179.617 1058.59 179.972C1059.34 180.326 1059.94 180.867 1060.4 181.594C1060.86 182.32 1061.09 183.251 1061.09 184.385V193H1058.25V184.837C1058.25 183.756 1057.99 182.976 1057.47 182.498C1056.96 182.019 1056.3 181.78 1055.51 181.78C1054.89 181.78 1054.31 181.93 1053.78 182.232C1053.26 182.533 1052.85 182.985 1052.53 183.588C1052.21 184.173 1052.05 184.899 1052.05 185.768V193H1049.21V184.837C1049.21 183.756 1048.95 182.976 1048.43 182.498C1047.92 182.019 1047.26 181.78 1046.47 181.78C1045.93 181.78 1045.4 181.922 1044.87 182.205C1044.34 182.489 1043.9 182.932 1043.54 183.535C1043.19 184.137 1043.01 184.935 1043.01 185.928V193H1040.17Z" fill="white"/>
<rect x="889" y="221" width="172" height="48" rx="24" fill="white"/>
<path d="M939.749 238.94C940.829 238.94 941.777 239.126 942.593 239.498C943.409 239.87 944.105 240.422 944.681 241.154L943.295 242.756C942.803 242.132 942.263 241.676 941.675 241.388C941.099 241.088 940.427 240.938 939.659 240.938C939.155 240.938 938.735 241.004 938.399 241.136C938.075 241.268 937.835 241.442 937.679 241.658C937.535 241.874 937.463 242.114 937.463 242.378C937.463 242.702 937.589 242.978 937.841 243.206C938.093 243.422 938.525 243.602 939.137 243.746L941.351 244.25C942.527 244.514 943.367 244.91 943.871 245.438C944.387 245.954 944.645 246.626 944.645 247.454C944.645 248.234 944.441 248.906 944.033 249.47C943.625 250.022 943.055 250.448 942.323 250.748C941.591 251.036 940.751 251.18 939.803 251.18C938.975 251.18 938.213 251.084 937.517 250.892C936.833 250.688 936.221 250.412 935.681 250.064C935.141 249.716 934.691 249.314 934.331 248.858L935.735 247.184C936.011 247.568 936.353 247.91 936.761 248.21C937.169 248.51 937.631 248.75 938.147 248.93C938.675 249.098 939.227 249.182 939.803 249.182C940.295 249.182 940.709 249.128 941.045 249.02C941.393 248.9 941.651 248.738 941.819 248.534C941.999 248.318 942.089 248.06 942.089 247.76C942.089 247.448 941.981 247.184 941.765 246.968C941.561 246.74 941.177 246.566 940.613 246.446L938.201 245.906C937.505 245.738 936.905 245.522 936.401 245.258C935.909 244.982 935.531 244.634 935.267 244.214C935.015 243.782 934.889 243.272 934.889 242.684C934.889 241.976 935.081 241.34 935.465 240.776C935.849 240.212 936.401 239.768 937.121 239.444C937.853 239.108 938.729 238.94 939.749 238.94ZM945.933 251V238.058H948.399V243.53C948.687 242.954 949.083 242.528 949.587 242.252C950.091 241.964 950.661 241.82 951.297 241.82C951.921 241.82 952.473 241.94 952.953 242.18C953.445 242.42 953.829 242.786 954.105 243.278C954.393 243.758 954.537 244.364 954.537 245.096V251H952.071V245.816C952.071 245.036 951.921 244.502 951.621 244.214C951.321 243.914 950.937 243.764 950.469 243.764C950.121 243.764 949.785 243.848 949.461 244.016C949.149 244.172 948.891 244.436 948.687 244.808C948.495 245.168 948.399 245.648 948.399 246.248V251H945.933ZM960.372 241.82C961.284 241.82 962.082 242.006 962.766 242.378C963.462 242.75 964.002 243.284 964.386 243.98C964.782 244.676 964.98 245.516 964.98 246.5C964.98 247.472 964.782 248.312 964.386 249.02C964.002 249.716 963.462 250.25 962.766 250.622C962.082 250.994 961.284 251.18 960.372 251.18C959.472 251.18 958.674 250.994 957.978 250.622C957.282 250.25 956.736 249.716 956.34 249.02C955.956 248.312 955.764 247.472 955.764 246.5C955.764 245.516 955.956 244.676 956.34 243.98C956.736 243.284 957.282 242.75 957.978 242.378C958.674 242.006 959.472 241.82 960.372 241.82ZM960.372 243.656C959.916 243.656 959.526 243.764 959.202 243.98C958.89 244.184 958.65 244.496 958.482 244.916C958.314 245.336 958.23 245.864 958.23 246.5C958.23 247.136 958.314 247.664 958.482 248.084C958.65 248.504 958.89 248.822 959.202 249.038C959.526 249.242 959.916 249.344 960.372 249.344C960.816 249.344 961.194 249.242 961.506 249.038C961.83 248.822 962.076 248.504 962.244 248.084C962.412 247.664 962.496 247.136 962.496 246.5C962.496 245.864 962.412 245.336 962.244 244.916C962.076 244.496 961.83 244.184 961.506 243.98C961.194 243.764 960.816 243.656 960.372 243.656ZM966.233 254.78V242H968.447L968.609 244.862L968.303 244.538C968.411 244.01 968.609 243.542 968.897 243.134C969.197 242.726 969.575 242.408 970.031 242.18C970.487 241.94 970.997 241.82 971.561 241.82C972.293 241.82 972.947 242.006 973.523 242.378C974.099 242.75 974.549 243.284 974.873 243.98C975.209 244.664 975.377 245.498 975.377 246.482C975.377 247.466 975.209 248.312 974.873 249.02C974.537 249.716 974.075 250.25 973.487 250.622C972.911 250.994 972.251 251.18 971.507 251.18C970.715 251.18 970.055 250.958 969.527 250.514C969.011 250.07 968.657 249.512 968.465 248.84L968.699 248.462V254.78H966.233ZM970.787 249.29C971.447 249.29 971.963 249.056 972.335 248.588C972.719 248.108 972.911 247.412 972.911 246.5C972.911 245.588 972.725 244.898 972.353 244.43C971.993 243.95 971.483 243.71 970.823 243.71C970.403 243.71 970.031 243.824 969.707 244.052C969.395 244.268 969.149 244.586 968.969 245.006C968.789 245.414 968.699 245.912 968.699 246.5C968.699 247.076 968.783 247.574 968.951 247.994C969.119 248.414 969.359 248.738 969.671 248.966C969.995 249.182 970.367 249.29 970.787 249.29ZM991.858 239.12V251H989.014L984.856 244.016L983.83 242.072H983.812L983.884 244.124V251H981.652V239.12H984.478L988.636 246.086L989.662 248.048H989.698L989.626 245.996V239.12H991.858ZM997.913 241.82C998.825 241.82 999.623 242.006 1000.31 242.378C1001 242.75 1001.54 243.284 1001.93 243.98C1002.32 244.676 1002.52 245.516 1002.52 246.5C1002.52 247.472 1002.32 248.312 1001.93 249.02C1001.54 249.716 1001 250.25 1000.31 250.622C999.623 250.994 998.825 251.18 997.913 251.18C997.013 251.18 996.215 250.994 995.519 250.622C994.823 250.25 994.277 249.716 993.881 249.02C993.497 248.312 993.305 247.472 993.305 246.5C993.305 245.516 993.497 244.676 993.881 243.98C994.277 243.284 994.823 242.75 995.519 242.378C996.215 242.006 997.013 241.82 997.913 241.82ZM997.913 243.656C997.457 243.656 997.067 243.764 996.743 243.98C996.431 244.184 996.191 244.496 996.023 244.916C995.855 245.336 995.771 245.864 995.771 246.5C995.771 247.136 995.855 247.664 996.023 248.084C996.191 248.504 996.431 248.822 996.743 249.038C997.067 249.242 997.457 249.344 997.913 249.344C998.357 249.344 998.735 249.242 999.047 249.038C999.371 248.822 999.617 248.504 999.785 248.084C999.953 247.664 1000.04 247.136 1000.04 246.5C1000.04 245.864 999.953 245.336 999.785 244.916C999.617 244.496 999.371 244.184 999.047 243.98C998.735 243.764 998.357 243.656 997.913 243.656ZM1015.14 242H1017.77L1014.89 251H1012.04L1010.08 244.88L1008.19 251H1005.35L1002.47 242H1005.09L1006.89 248.894L1008.89 242H1011.34L1013.36 248.894L1015.14 242Z" fill="#BF1901"/>
</svg>
